<svg id="Layer_1" data-name="Layer 1" xmlns="http://www.w3.org/2000/svg" fill="currentColor" viewBox="0 0 826.08 200.74"><path d="M91.06,76.93a40.1,40.1,0,0,1,20.21,30.66,47.4,47.4,0,0,1-2.65,23.28,39.07,39.07,0,0,1-15.31,18.94c-7.73,5.13-16.4,7.6-25.56,8.36-5,.41-10.08.57-15.13.59-16.83.07-33.67,0-50.51,0h-2c0-.63-.09-1.16-.09-1.69Q0,82,0,6.9C0,5.42.39,5,1.86,5c16.69,0,33.37,0,50.06,0,8.64,0,17.2.7,25.47,3.49,9.17,3.09,16.87,8.18,22,16.54a36.81,36.81,0,0,1,4.91,15c1.66,13.19-1.74,24.8-10.85,34.62-.34.38-.72.72-1.1,1.07S91.61,76.45,91.06,76.93Zm-59.93,52.5h1.46c7.95,0,15.91.09,23.86,0a59.48,59.48,0,0,0,9.7-1,17.41,17.41,0,0,0,9.53-4.51c3.06-3.07,4.17-6.91,4.22-11.12C80,106,77.39,100.65,71,97.53a33,33,0,0,0-14.17-3.26c-8.16-.12-16.32-.06-24.48-.06-.39,0-.78.05-1.24.08Zm0-95V65.34c3.16,0,6.26,0,9.36,0,6.21-.12,12.44-.1,18.63-.5a16.31,16.31,0,0,0,10.42-4.59c3.34-3.25,4-7.42,3.83-11.82-.14-5-2.28-8.76-6.76-11.13a28.63,28.63,0,0,0-13.14-3c-6.83-.12-13.66,0-20.49.07C32.37,34.39,31.77,34.44,31.12,34.48Z"/><path d="M244.15,185.52q10.26-10.7,20.37-21.27c16,14.52,38.42,4.46,42.35-11.58-2.07.83-4,1.73-6.06,2.42a56.16,56.16,0,0,1-27.88,2.24,54.09,54.09,0,0,1-25.84-11.73c-9.26-7.68-15.65-17.31-18.39-29.06-4.42-18.89-.4-35.84,12.54-50.45a52.63,52.63,0,0,1,30.59-17.21c15.54-2.86,29.89.19,42.78,9.4a53.8,53.8,0,0,1,21.86,33.65A55.47,55.47,0,0,1,337.55,103c.11,14.68.26,29.37-.05,44.05-.33,15.7-6.59,28.86-18.21,39.48a52.69,52.69,0,0,1-26.15,13.14C275.16,203.11,257.47,198.18,244.15,185.52ZM308,103.09a25.73,25.73,0,1,0-25.63,25.53A25.8,25.8,0,0,0,308,103.09Z"/><path d="M823.79,158.79c-11.64,0-22.91,0-34.19,0-.51,0-1.19-.65-1.52-1.16q-12.2-19-24.32-38.1c-.29-.46-.6-.91-1-1.49-2.42,2.63-4.77,5.16-7.1,7.72-1.54,1.69-3.63,3.18-4.42,5.18s-.21,4.42-.21,6.66V158.7H721.2V.07H751V90.73l3.49-3.87q16.49-18.49,33-37a2.5,2.5,0,0,1,1.61-.86q18.06-.07,36.12,0c.18,0,.37,0,.84.08L783.31,96.31Z"/><path d="M427.23,54.06V47.87h29.34V158.69H427.28v-4.4c-15.51,7.47-31.21,8.14-46.94,1.79a54.32,54.32,0,0,1-25.13-20.46,56.65,56.65,0,0,1,.18-63.15,55,55,0,0,1,32.47-22.73C401.37,46.23,414.53,47.91,427.23,54.06ZM402.14,77.6a26.57,26.57,0,1,0-.54,53.14c13.81.07,26.65-10.45,26.85-26.23A26.48,26.48,0,0,0,402.14,77.6Z"/><path d="M607.75,47.87H637.3V55l2.85-1a48,48,0,0,1,24.94-2.38c14,2.35,25.24,9.28,33.23,21.06,4.94,7.28,8.21,15.34,8.33,24.22.27,20.34.22,40.68.3,61,0,.2,0,.4-.06.72H677.33V157q0-27.77,0-55.52c0-8.71-3.85-15.2-11.73-19A19.94,19.94,0,0,0,637.66,96a14.86,14.86,0,0,0-.31,3.33q0,28.68,0,57.35v2H607.75Z"/><path d="M120.35,49h29.54v1.8q0,29.75,0,59.5a19.8,19.8,0,0,0,15.76,19.86c10.88,2.41,22.07-5.44,23.43-16.46a39.36,39.36,0,0,0,.3-4.72q0-29,0-58V49.09h29.54V50.9c0,19.63,0,39.26,0,58.89,0,11-2.82,21.13-9.38,30.07a47.66,47.66,0,0,1-28.25,18.85c-14.51,3.4-28.05.91-40.28-7.71a47.43,47.43,0,0,1-19.73-30.52,55.64,55.64,0,0,1-.91-10.48c-.08-19.78,0-39.56,0-59.35Z"/><path d="M590.28,45.13V158.67H560.65c0-.49-.07-1-.07-1.56q0-50.33,0-100.65a1.82,1.82,0,0,1,1.55-2.08c8.85-2.88,17.68-5.83,26.51-8.76C589.13,45.45,589.66,45.31,590.28,45.13Z"/><path d="M502.14,0V158.68H472.41c0-.39-.07-.83-.07-1.27q0-73.18,0-146.37c0-.86.14-1.32,1.08-1.63,9.34-3,18.65-6.15,28-9.23C501.55.12,501.75.09,502.14,0Zm43.47,157c-1.13-8.84-2.26-17.66-3.37-26.51-.14-1.15-.31-1.56-.8-1.56-12.9,0-25.8,0-38.7,0a5.79,5.79,0,0,0-.6.07V158.7h43.65C545.73,158.09,545.67,157.55,545.61,157Z"/></svg>