<?xml version="1.0" encoding="utf-8"?><!-- Uploaded to: SVG Repo, www.svgrepo.com, Generator: SVG Repo Mixer Tools -->
<svg width="48px" height="48px" viewBox="0 0 89.0481 89.0481" xmlns="http://www.w3.org/2000/svg"><defs><style>.a{fill:#f7a8b8;}.b{fill:#231f20;}.b,.c,.d,.f,.g{fill-rule:evenodd;}.c{fill:#fff685;}.d{fill:#00aeef;}.e,.f{fill:#f9ddd1;}.g{fill:#ffffff;}</style></defs><circle class="a" cx="44.5241" cy="44.5241" r="43.524"/><path class="b" d="M44.5241,0a44.5251,44.5251,0,1,1-31.483,13.0411A44.3855,44.3855,0,0,1,44.5241,0Zm30.069,14.455A42.5243,42.5243,0,1,0,87.048,44.5241,42.3922,42.3922,0,0,0,74.5931,14.455Z"/><path class="c" d="M44.7766,61.0617C36.61,65.6674,26.3883,70.691,16.1833,68.2736l5.6007-5.94C1.5982.67,87.5455.3787,67.2642,62.3341l5.6007,5.94C62.66,70.691,52.943,65.6674,44.7766,61.0617Z"/><path class="b" d="M44.7764,62.2035a71.69,71.69,0,0,1-13.2353,6.0511,29.1058,29.1058,0,0,1-15.5883.9918,1,1,0,0,1-.45-1.705l5.1514-5.4629c-5.9462-18.6466-2.2907-31.7977,5.21-39.384a26.5869,26.5869,0,0,1,37.43-.0227c7.4562,7.5736,11.0624,20.717,5.1006,39.4069L73.5914,67.59a.9976.9976,0,0,1-.4967,1.6545l.0006.002a28.1146,28.1146,0,0,1-15.3439-.9958,72.7154,72.7154,0,0,1-12.975-6.0471ZM30.9475,66.348a71.4762,71.4762,0,0,0,13.3407-6.1534.9949.9949,0,0,1,.9768,0A73.0065,73.0065,0,0,0,58.3608,66.352a27.0909,27.0909,0,0,0,12.5345,1.2872L66.564,63.0456a.9989.9989,0,0,1-.2492-1.02C72.2591,43.867,68.9275,31.2369,61.8721,24.07a24.5876,24.5876,0,0,0-34.5861.0227c-7.101,7.1818-10.4819,19.8195-4.5527,37.9324l-.0006,0a.9966.9966,0,0,1-.2222.9922l-4.3571,4.6207A28.2625,28.2625,0,0,0,30.9475,66.348Z"/><path class="d" d="M64.0851,83.3771a43.5732,43.5732,0,0,1-39.1221,0c-.0516-.5808-.08-1.1678-.08-1.762a19.6407,19.6407,0,0,1,39.2814,0C64.1648,82.2093,64.1367,82.7963,64.0851,83.3771Z"/><path class="b" d="M64.5344,84.2678a44.4681,44.4681,0,0,1-40.0207,0,.9971.9971,0,0,1-.5479-.866c-.0258-.2991-.0456-.5856-.0581-.8575-.0159-.35-.0244-.6624-.0244-.9292a20.6408,20.6408,0,0,1,41.2815,0c0,.2668-.0085.5789-.0244.9292-.0133.29-.0348.5976-.0632.9187a.9951.9951,0,0,1-.5437.8031l.0009.0017ZM54.36,85.87a42.2253,42.2253,0,0,0,8.7738-3.1348l.0145-.2773c.01-.2364.0164-.5159.0164-.843a18.6407,18.6407,0,1,0-37.2813,0c0,.3271.006.6066.0165.843l.0144.2773A42.6847,42.6847,0,0,0,54.36,85.87Z"/><circle class="e" cx="44.5241" cy="66.439" r="7.8846" transform="translate(-28.189 99.7458) rotate(-80.7825)"/><path class="b" d="M44.5241,57.5544a8.8855,8.8855,0,1,1-6.2822,2.6025,8.856,8.856,0,0,1,6.2822-2.6025Zm4.8682,4.0164a6.8851,6.8851,0,1,0,2.0163,4.8682A6.863,6.863,0,0,0,49.3923,61.5708Z"/><path class="f" d="M63.5386,47.3567a4.9312,4.9312,0,1,1-4.9312,4.9312A4.931,4.931,0,0,1,63.5386,47.3567Z"/><path class="b" d="M63.5386,46.3567a5.9315,5.9315,0,1,1-4.1939,1.7373,5.9129,5.9129,0,0,1,4.1939-1.7373Zm2.78,3.1512a3.9322,3.9322,0,1,0,1.1512,2.78A3.92,3.92,0,0,0,66.3185,49.5079Z"/><path class="f" d="M25.51,47.3567a4.9312,4.9312,0,1,1-4.9311,4.9312A4.931,4.931,0,0,1,25.51,47.3567Z"/><path class="b" d="M25.51,46.3567a5.9317,5.9317,0,1,1-4.1938,1.7373A5.9133,5.9133,0,0,1,25.51,46.3567Zm2.78,3.1512a3.9324,3.9324,0,1,0,1.1511,2.78A3.92,3.92,0,0,0,28.29,49.5079Z"/><circle class="e" cx="44.5241" cy="47.126" r="19.5001"/><path class="b" d="M44.5241,26.6258A20.5012,20.5012,0,1,1,30.0285,32.63a20.4366,20.4366,0,0,1,14.4956-6.0047Zm13.0816,7.4186A18.5006,18.5006,0,1,0,63.0241,47.126,18.4427,18.4427,0,0,0,57.6057,34.0444Z"/><path class="c" d="M32.5477,25.7618,25.8432,32.921l2.5356,2.9914c5.4728,4.8623,13.56,6.86,23.3827,6.8879a9.9983,9.9983,0,0,1-5.35-6.9315c7.1594,3.68,11.8732,4.496,17.5943,5.4442l3.1077.3855L57.38,25.7618l-11.963-4.35Z"/><path class="b" d="M36.18,49.7565a2.5314,2.5314,0,1,1-2.5313,2.5314A2.5313,2.5313,0,0,1,36.18,49.7565Z"/><path class="b" d="M52.8676,49.7565a2.5314,2.5314,0,1,1-2.5314,2.5314A2.5313,2.5313,0,0,1,52.8676,49.7565Z"/><path class="b" d="M26.9921,36.03a.9978.9978,0,1,1,1.4609-1.36,21.3687,21.3687,0,0,0,9.4658,5.6211,38.1734,38.1734,0,0,0,10.7918,1.567,11.9441,11.9441,0,0,1-1.3184-1.4446,9.4231,9.4231,0,0,1-1.9729-4.428.9988.9988,0,0,1,1.493-.9813,48.71,48.71,0,0,0,9.2888,3.6966,76.557,76.557,0,0,0,8.34,1.7212.9974.9974,0,0,1-.32,1.969A78.2686,78.2686,0,0,1,55.67,40.623a48.9419,48.9419,0,0,1-7.5952-2.8284,9.1579,9.1579,0,0,0,.8958,1.4,9.79,9.79,0,0,0,3.2,2.6961.9972.9972,0,0,1-.3625,1.9054A42.4944,42.4944,0,0,1,37.3326,42.198,23.3452,23.3452,0,0,1,26.9921,36.03Z"/><path class="g" d="M26.1113,57.0059a2.1382,2.1382,0,1,1-2.1381,2.1381A2.1384,2.1384,0,0,1,26.1113,57.0059Z"/><path class="b" d="M26.1113,56.0058a3.1289,3.1289,0,0,1,2.2167.9215l.002-.0019a3.1376,3.1376,0,1,1-4.4373,4.4373c-.0216-.0215-.0417-.0436-.061-.0666a3.1269,3.1269,0,0,1,.061-4.3671l.002-.0017.0017-.0019.0019-.002a3.1264,3.1264,0,0,1,2.213-.9176Zm.8048,2.33a1.147,1.147,0,0,0-1.61,0l-.0037.0037a1.1474,1.1474,0,0,0-.034,1.5738l.0377.0357a1.1381,1.1381,0,1,0,1.61-1.6095l.002-.002Z"/><path class="g" d="M62.6553,57.0059a2.1382,2.1382,0,1,1-2.1382,2.1381A2.1385,2.1385,0,0,1,62.6553,57.0059Z"/><path class="b" d="M62.6553,56.0058a3.129,3.129,0,0,1,2.2167.9215l.002-.0019a3.1377,3.1377,0,1,1-4.4374,4.4373c-.0215-.0215-.0416-.0436-.0609-.0666a3.127,3.127,0,0,1,.0609-4.3671l.002-.0017.0017-.0019.002-.002a3.1264,3.1264,0,0,1,2.213-.9176Zm.8048,2.33a1.147,1.147,0,0,0-1.6095,0l-.0037.0037a1.1474,1.1474,0,0,0-.034,1.5738l.0377.0357A1.1381,1.1381,0,0,0,63.46,58.3393l.002-.002Z"/></svg>