<?xml version="1.0" encoding="utf-8"?>
<!-- Generator: Adobe Illustrator 26.0.2, SVG Export Plug-In . SVG Version: 6.00 Build 0)  -->
<svg version="1.1" id="Layer_1" xmlns="http://www.w3.org/2000/svg" xmlns:xlink="http://www.w3.org/1999/xlink" x="0px" y="0px"
	 viewBox="0 0 410 330" style="enable-background:new 0 0 410 330;" xml:space="preserve">
<!-- <style type="text/css">
	.st0{fill:#010101;}
</style> -->
<g>
	<path class="st0" d="M59.8,154.4c5.1,2.9,8.5,8,9.1,13.8c0.5,3.5,0.1,7.2-1.2,10.5c-1.3,3.5-3.8,6.5-6.9,8.5
		c-3.5,2.3-7.4,3.4-11.5,3.8c-2.3,0.2-4.5,0.3-6.8,0.3c-7.6,0-15.2,0-22.8,0h-0.9c0-0.3,0-0.5,0-0.8c0-22.6,0-45.1,0-67.7
		c0-0.7,0.2-0.9,0.8-0.9c7.5,0,15,0,22.6,0c3.9,0,7.8,0.3,11.5,1.6c4.1,1.4,7.6,3.7,9.9,7.5c1.2,2.1,2,4.4,2.2,6.8
		c0.7,5.9-0.8,11.2-4.9,15.6c-0.2,0.2-0.3,0.3-0.5,0.5C60.2,154,60,154.2,59.8,154.4z M32.8,178.1h0.7c3.6,0,7.2,0,10.8,0
		c1.5,0,2.9-0.2,4.4-0.5c1.6-0.2,3.1-0.9,4.3-2c1.4-1.4,1.9-3.1,1.9-5c0-3.1-1.1-5.5-4-6.9c-2-1-4.2-1.5-6.4-1.5
		c-3.7-0.1-7.4,0-11,0c-0.2,0-0.4,0-0.6,0L32.8,178.1z M32.8,135.3v13.9c1.4,0,2.8,0,4.2,0c2.8-0.1,5.6,0,8.4-0.2
		c1.8-0.1,3.4-0.8,4.7-2.1c1.5-1.5,1.8-3.3,1.7-5.3c-0.1-2.3-1-4-3-5c-1.8-0.9-3.9-1.4-5.9-1.4c-3.1-0.1-6.2,0-9.2,0
		C33.3,135.2,33.1,135.3,32.8,135.3L32.8,135.3z"/>
	<path class="st0" d="M128.8,203.4c3.1-3.2,6.1-6.4,9.2-9.6c7.2,6.5,17.3,2,19.1-5.2c-0.9,0.4-1.8,0.8-2.7,1.1
		c-4,1.4-8.4,1.7-12.6,1c-4.3-0.7-8.3-2.5-11.7-5.3c-4.2-3.5-7.1-7.8-8.3-13.1c-2-8.5-0.2-16.2,5.7-22.8c3.6-4.1,8.4-6.8,13.8-7.8
		c7-1.3,13.5,0.1,19.3,4.2c5.1,3.6,8.7,9,9.9,15.2c0.3,1.6,0.5,3.3,0.5,5c0,6.6,0.1,13.2,0,19.9c-0.1,7.1-3,13-8.2,17.8
		c-3.3,3-7.4,5.1-11.8,5.9C142.8,211.3,134.8,209.1,128.8,203.4z M157.6,166.2c0-6.4-5.1-11.6-11.5-11.7c-6.4,0-11.6,5.1-11.7,11.5
		c0,6.4,5.1,11.6,11.5,11.7c0,0,0.1,0,0.1,0C152.4,177.7,157.6,172.6,157.6,166.2z"/>
	<path class="st0" d="M390.2,191.3c-5.2,0-10.3,0-15.4,0c-0.2,0-0.5-0.3-0.7-0.5c-3.7-5.7-7.3-11.4-11-17.2
		c-0.1-0.2-0.3-0.4-0.5-0.7c-1.1,1.2-2.2,2.3-3.2,3.5c-0.7,0.8-1.6,1.4-2,2.3c-0.4,0.9-0.1,2-0.1,3v9.5H344v-71.5h13.4v40.9l1.6-1.7
		c5-5.6,9.9-11.1,14.9-16.7c0.2-0.2,0.4-0.4,0.7-0.4c5.4,0,10.9,0,16.3,0c0.1,0,0.2,0,0.4,0L372,163.2L390.2,191.3z"/>
	<path class="st0" d="M211.4,144.1v-2.8h13.2v50h-13.2v-2c-7,3.4-14.1,3.7-21.2,0.8c-4.6-1.9-8.6-5.1-11.3-9.2
		c-5.8-8.6-5.7-19.9,0.1-28.5c3.4-5.1,8.7-8.8,14.6-10.3C199.7,140.6,205.7,141.3,211.4,144.1z M200.1,154.7
		c-6.6-0.1-12,5.2-12.1,11.9s5.2,12,11.9,12.1c6.2,0,12-4.7,12.1-11.8c0.1-6.6-5.2-12-11.7-12.1
		C200.2,154.7,200.1,154.7,200.1,154.7z"/>
	<path class="st0" d="M292.8,141.3h13.3v3.2l1.3-0.5c3.6-1.3,7.5-1.7,11.2-1.1c6.3,1.1,11.4,4.2,15,9.5c2.2,3.3,3.7,6.9,3.8,10.9
		c0.1,9.2,0.1,18.3,0.1,27.5c0,0.1,0,0.2,0,0.3h-13.3v-0.7c0-8.3,0-16.7,0-25c0-3.9-1.7-6.9-5.3-8.6c-4.5-2.1-9.9-0.2-12,4.3
		c-0.3,0.6-0.5,1.2-0.6,1.8c-0.1,0.5-0.1,1-0.1,1.5c0,8.6,0,17.2,0,25.9v0.9h-13.3V141.3z"/>
	<path class="st0" d="M73,141.8h13.3v0.8c0,8.9,0,17.9,0,26.8c-0.1,4.3,2.9,8.1,7.1,9c4.9,1.1,10-2.5,10.6-7.4
		c0.1-0.7,0.1-1.4,0.1-2.1c0-8.7,0-17.4,0-26.2v-0.9h13.3v0.8c0,8.9,0,17.7,0,26.6c0,5-1.3,9.5-4.2,13.6c-3.1,4.3-7.6,7.3-12.7,8.5
		c-6.5,1.5-12.6,0.4-18.2-3.5c-4.7-3.2-7.9-8.2-8.9-13.8c-0.3-1.6-0.4-3.1-0.4-4.7c0-8.9,0-17.8,0-26.8L73,141.8z"/>
	<path class="st0" d="M284.9,140.1v51.2h-13.4c0-0.2,0-0.5,0-0.7c0-15.1,0-30.3,0-45.4c-0.1-0.4,0.2-0.9,0.7-0.9c0,0,0,0,0,0
		c4-1.3,8-2.6,12-4C284.4,140.2,284.7,140.2,284.9,140.1z"/>
	<path class="st0" d="M245.2,119.7v71.6h-13.4c0-0.2,0-0.4,0-0.6c0-22,0-44,0-66c0-0.4,0.1-0.6,0.5-0.7c4.2-1.4,8.4-2.8,12.6-4.2
		C244.9,119.8,245,119.8,245.2,119.7z M264.8,190.5c-0.5-4-1-8-1.5-12c-0.1-0.5-0.1-0.7-0.4-0.7c-5.8,0-11.6,0-17.5,0
		c-0.1,0-0.2,0-0.3,0v13.4h19.7C264.8,191,264.8,190.8,264.8,190.5z"/>
</g>
</svg>
