<?xml version="1.0" encoding="iso-8859-1"?>
<!-- Uploaded to: SVG Repo, www.svgrepo.com, Generator: SVG Repo Mixer Tools -->
<svg height="800px" width="800px" version="1.1" id="Layer_1" xmlns="http://www.w3.org/2000/svg" xmlns:xlink="http://www.w3.org/1999/xlink" 
	 viewBox="0 0 511.992 511.992" xml:space="preserve">
<path style="fill:#434A54;" d="M85.323,383.717c-1.594,0-3.234-0.344-4.766-1.125c-5.266-2.625-7.391-9.031-4.75-14.312
	c4.219-8.5,13.437-33.312,18.187-66.467c3.484-24.312,4.203-49.523,2.109-74.929c-2.594-31.78-9.609-63.983-20.828-95.732
	c-1.953-5.562,0.953-11.656,6.516-13.609c5.547-1.969,11.64,0.937,13.609,6.5c11.906,33.718,19.312,67.968,22.031,101.795
	c2.172,27.141,1.344,54.07-2.469,80.039c-6.531,44.561-19.531,70.873-20.093,71.967C93.01,381.56,89.244,383.717,85.323,383.717z"/>
<path style="fill:#ED5564;" d="M383.997,21.746H106.666c-3.547,0-6.859,1.766-8.844,4.719l-63.999,95.17
	c-2.422,3.609-2.422,8.312,0,11.906l63.999,95.186c1.984,2.938,5.297,4.703,8.844,4.703h277.331c5.891,0,10.655-4.766,10.655-10.656
	V32.418C394.652,26.528,389.888,21.746,383.997,21.746z"/>
<path style="fill:#F6BB42;" d="M416.215,458.808c-2.094,0-4.172-0.625-5.969-1.812l-26.343-17.812l-26.078,17.062
	c-3.547,2.312-8.125,2.312-11.672,0l-26.094-17.062l-26.155,17.406c-3.905,2.625-9.062,2.344-12.687-0.625l-21.758-17.906
	l-120.107-1.219c-2.828-0.031-5.531-1.188-7.5-3.219s-3.062-4.75-3.016-7.594l1.469-106.686c0.078-5.844,4.828-10.531,10.671-10.531
	l0,0l296.346,0.125c2.844,0,5.547,1.125,7.547,3.125l63.999,64.125c3.25,3.25,4.047,8.219,2,12.312l-21.343,42.654
	c-1.016,2.031-2.641,3.688-4.672,4.719l-63.781,21.781C419.542,458.434,417.886,458.808,416.215,458.808z"/>
<path style="fill:#FFCE54;" d="M201.445,291.094c-21.859-22.461-51.155-35.07-82.499-35.492c-0.547-0.016-1.094-0.016-1.641-0.016
	c-30.999,0-60.233,12-82.326,33.757C12.854,311.154,0.448,340.247,0.011,371.31c-0.422,31.344,11.375,60.967,33.234,83.436
	c21.843,22.438,51.14,35.062,82.482,35.5c0.547,0,1.094,0,1.641,0c31,0,60.233-12,82.327-33.75
	c22.125-21.812,34.531-50.904,34.968-81.967C235.085,343.185,223.289,313.56,201.445,291.094z"/>
<path style="fill:#080808;" d="M92.885,365.529c4.156,4.156,4.156,10.906,0,15.062c-4.172,4.188-10.921,4.188-15.093,0
	c-4.156-4.156-4.156-10.906,0-15.062C81.963,361.342,88.713,361.342,92.885,365.529z"/>
<path style="fill:#FFCE54;" d="M484.464,351.717H330.653c-5.875,0-10.656,4.781-10.656,10.688c0,5.875,4.781,10.656,10.656,10.656
	h175.091L484.464,351.717z"/>
<path style="fill:#656D78;" d="M85.354,383.717c-3.969,0-7.766-2.188-9.609-6c-13.437-27.656-21.796-58.281-24.859-91.029
	c-2.406-26.023-1.5-53.445,2.734-81.506c7.172-47.687,21.343-80.483,21.937-81.858c2.359-5.406,8.656-7.859,14.046-5.5
	c5.406,2.343,7.875,8.64,5.516,14.031c-0.141,0.312-13.796,32.046-20.5,77.108c-3.922,26.281-4.734,51.89-2.453,76.132
	c2.844,30.029,10.5,58.061,22.765,83.311c2.578,5.281,0.375,11.688-4.922,14.25C88.51,383.373,86.916,383.717,85.354,383.717z"/>
<path style="fill:#F5F7FA;" d="M343.419,106.479l-49.171-9.812l-18.687-28.281c-1.969-3-5.305-4.796-8.898-4.796h-74.687
	c-3.593,0-6.937,1.797-8.906,4.796l-17.953,27.203h-26.452c-5.891,0-10.656,4.781-10.656,10.671v53.327
	c0,5.891,4.766,10.671,10.656,10.671h202.66c5.891,0,10.672-4.781,10.672-10.671v-42.64
	C351.997,111.854,348.403,107.479,343.419,106.479z"/>
<g>
	<path style="fill:#434A54;" d="M192.008,143.588c-14.703,0-26.671,11.969-26.671,26.671c0,14.703,11.969,26.672,26.671,26.672
		c14.703,0,26.656-11.969,26.656-26.672C218.664,155.557,206.711,143.588,192.008,143.588z"/>
	<path style="fill:#434A54;" d="M287.999,143.588c-14.703,0-26.664,11.969-26.664,26.671c0,14.703,11.961,26.672,26.664,26.672
		c14.702,0,26.655-11.969,26.655-26.672C314.654,155.557,302.701,143.588,287.999,143.588z"/>
</g>
</svg>