<svg id="Layer_1" data-name="Layer 1" xmlns="http://www.w3.org/2000/svg" viewBox="0 0 388.17 21.51"><path d="M113.59,7.32l-3.51-.53-1-1.13a13,13,0,0,0-9.6-4.24H96.7a12.91,12.91,0,0,0-1.76.13h0a12.34,12.34,0,0,0-8.47,5.31c-3.49,1.27-6,4.54-6,7.88A2.59,2.59,0,0,0,83,17.34h1.51a4.67,4.67,0,0,0,9.15,0h13.23a4.67,4.67,0,0,0,9.15,0h1.29A2.59,2.59,0,0,0,120,14.75,7.48,7.48,0,0,0,113.59,7.32ZM99.45,3.18a11.27,11.27,0,0,1,8.2,3.55H97.78L96.34,3.19h3.11Zm-4.92.23,1.35,3.32h-7.1A10.59,10.59,0,0,1,94.53,3.41Zm-5.4,15.92A2.91,2.91,0,1,1,92,16.43,2.9,2.9,0,0,1,89.13,19.33Zm22.38,0a2.91,2.91,0,1,1,2.9-2.9A2.9,2.9,0,0,1,111.51,19.33Z" style="fill:#231f20"/></svg>