<svg width="336" height="224" viewBox="0 0 336 224" fill="none" xmlns="http://www.w3.org/2000/svg">
<path d="M307.534 80.0443C308.083 80.6517 308.504 81.3634 308.772 82.1369C309.039 82.9104 309.149 83.73 309.093 84.5467C308.971 86.1817 308.474 87.7666 307.642 89.179C306.118 91.9477 303.269 94.1966 300.536 95.787C298.968 92.651 299.936 88.6952 300.536 86.724C301.508 83.588 305.164 78.5569 307.516 80.0443" fill="#EBEBEB"/>
<path d="M301.41 101.745C301.584 100.847 301.993 100.011 302.595 99.3217C303.197 98.6325 303.971 98.1147 304.837 97.8209C305.707 97.5401 306.624 97.4351 307.534 97.512C308.445 97.5889 309.331 97.8462 310.141 98.2689C310.894 98.6452 311.638 99.2187 311.821 100.061C311.881 100.451 311.836 100.851 311.691 101.218C311.546 101.585 311.307 101.908 310.997 102.153C310.369 102.638 309.624 102.947 308.838 103.049C306.15 103.497 303.511 103.461 301.41 101.759" fill="#EBEBEB"/>
<path d="M294.618 109.357C294.712 109.161 294.823 108.974 294.95 108.797L295.908 107.309C296.733 106.073 297.871 104.285 299.69 102.829C301.213 101.567 303.046 100.735 304.998 100.419C305.592 100.332 306.193 100.317 306.79 100.374C306.951 100.387 307.111 100.41 307.27 100.442C307.382 100.442 307.435 100.473 307.435 100.482C306.634 100.434 305.829 100.467 305.034 100.58C303.119 100.946 301.327 101.792 299.828 103.04C298.036 104.451 296.898 106.203 296.043 107.417C295.617 108.031 295.272 108.528 295.021 108.864C294.904 109.041 294.768 109.206 294.618 109.357Z" fill="#E0E0E0"/>
<path d="M305.088 84.1345C305.069 84.2277 305.042 84.319 305.007 84.4078L304.747 85.1739C304.515 85.8414 304.165 86.7956 303.726 87.9739C302.83 90.3304 301.58 93.5694 300.106 97.1131C298.632 100.657 297.226 103.833 296.173 106.127C295.649 107.269 295.214 108.188 294.909 108.815C294.762 109.111 294.641 109.352 294.551 109.541C294.513 109.627 294.466 109.709 294.412 109.787C294.433 109.696 294.465 109.607 294.506 109.523C294.591 109.33 294.694 109.075 294.829 108.775L296.025 106.051C297.037 103.748 298.422 100.563 299.896 97.019C301.37 93.4753 302.655 90.2497 303.574 87.9067L304.662 85.1336C304.788 84.8289 304.886 84.578 304.967 84.3854C304.998 84.2975 305.038 84.2134 305.088 84.1345Z" fill="#E0E0E0"/>
<path d="M296.455 101.777C296.885 99.8949 296.859 97.9378 296.381 96.0679C295.902 94.1979 294.985 92.469 293.704 91.0247C293.05 90.2945 292.087 89.6045 291.164 89.9361C290.241 90.2676 289.946 91.4189 289.928 92.4001C289.926 94.4477 290.529 96.4502 291.663 98.1555C292.797 99.8607 294.409 101.192 296.298 101.983" fill="#EBEBEB"/>
<path d="M292.992 93.9502C293.15 94.0829 293.293 94.2332 293.418 94.3982C293.58 94.5711 293.729 94.7553 293.866 94.9492C294.031 95.1777 294.237 95.4196 294.421 95.7243C294.634 96.0453 294.83 96.3773 295.008 96.7188C295.221 97.1062 295.411 97.5056 295.577 97.915C295.959 98.8574 296.233 99.8404 296.392 100.845C296.536 101.851 296.563 102.87 296.473 103.882C296.432 104.324 296.365 104.762 296.271 105.195C296.197 105.574 296.1 105.948 295.98 106.315C295.89 106.619 295.784 106.918 295.662 107.211C295.579 107.436 295.48 107.654 295.366 107.865C295.287 108.053 295.19 108.234 295.075 108.403C295.026 108.403 295.443 107.61 295.828 106.266C295.933 105.902 296.018 105.532 296.083 105.159C296.166 104.731 296.226 104.299 296.262 103.864C296.341 102.868 296.31 101.866 296.168 100.876C296.009 99.8912 295.746 98.9257 295.384 97.9956C295.205 97.57 295.039 97.1668 294.842 96.804C294.673 96.4631 294.486 96.1311 294.282 95.8094C293.53 94.6177 292.929 93.9816 292.992 93.9502Z" fill="#E0E0E0"/>
<path d="M29.1469 52.1205C29.1469 52.1205 25.0253 53.4645 29.0215 62.2901C33.0176 71.1157 35.8714 75.5419 35.8714 75.5419C35.8714 75.5419 36.5568 77.5803 34.8544 77.8133C33.152 78.0462 29.4784 77.2802 28.6183 79.3096C27.7223 81.4107 29.2007 83.5029 32.2695 85.4248C35.3383 87.3467 41.9104 91.7954 42.5018 92.1986C43.0931 92.6018 43.6397 93.5426 42.5018 93.901C41.3639 94.2594 32.9728 94.7253 33.4387 98.6946C33.9047 102.664 43.3395 106.624 44.352 107.072C45.3645 107.52 45.6019 107.968 45.4899 108.542C45.3779 109.115 42.5421 108.99 40.1587 109.24C37.7754 109.491 35.056 110.163 35.5175 112.43C35.9789 114.697 41.44 119.674 55.1757 121.672L61.6 122.183L65.3543 116.91C72.7104 105.141 72.4416 97.7582 71.0125 95.9394C69.5834 94.1205 67.2941 95.7512 65.5783 97.4178C63.8624 99.0843 62.1018 101.315 61.6 101.033C61.0983 100.751 60.8967 100.285 61.2103 99.2142C61.5239 98.1435 64.6195 88.3995 61.8912 85.4786C59.1629 82.5576 53.3792 88.6504 52.3757 89.2955C51.3722 89.9407 51.0093 88.8923 51.081 88.189C51.1527 87.4856 52.0039 79.5874 52.5235 76.0034C53.0432 72.4194 52.3936 69.9554 50.2208 69.2834C48.1242 68.6203 46.3232 71.9266 45.0464 73.0734C43.7696 74.2203 42.6586 72.379 42.6586 72.379C42.6586 72.379 41.1309 67.3525 36.9735 58.5896C32.816 49.8267 29.0573 52.1877 29.0573 52.1877" fill="#EBEBEB"/>
<path d="M61.8689 123.702C58.8404 117.251 53.6526 105.701 49.1457 95.8093C44.6388 85.9174 40.5531 76.9664 37.5559 70.5062L34.0033 62.8544L33.0401 60.7757L32.7937 60.2291C32.7599 60.1653 32.73 60.0994 32.7041 60.032C32.7041 60.032 32.7399 60.0902 32.8027 60.2112L33.067 60.7488C33.2955 61.2281 33.6315 61.9225 34.066 62.8141C34.9307 64.6061 36.1627 67.2089 37.6769 70.4301C40.7054 76.8768 44.8135 85.8189 49.3249 95.7107C53.8363 105.603 59.0017 117.179 61.9988 123.648" fill="#E0E0E0"/>
<path d="M33.7344 80.5864C33.8881 80.6213 34.0381 80.6708 34.1824 80.7343C34.4601 80.8373 34.8633 81.0031 35.3561 81.2091C36.3417 81.6258 37.6902 82.2351 39.1686 82.9339L42.9408 84.7259L44.0877 85.2635C44.2316 85.3218 44.3697 85.3938 44.4998 85.4786C44.3451 85.4498 44.1945 85.4016 44.0518 85.3352C43.7696 85.2322 43.3709 85.0664 42.8781 84.8559C41.8925 84.4079 40.5529 83.8031 39.079 83.1042L35.2934 81.3122L34.1465 80.7791C34.0023 80.7306 33.8641 80.666 33.7344 80.5864Z" fill="#E0E0E0"/>
<path d="M44.9522 85.1201C44.903 85.1201 46.0364 82.2618 47.4834 78.7898C48.9305 75.3178 50.1714 72.5178 50.1983 72.5178C50.2252 72.5178 49.1186 75.3761 47.6671 78.8525C46.2156 82.329 45.006 85.1201 44.9522 85.1201Z" fill="#E0E0E0"/>
<path d="M51.1885 100.599C51.2688 100.462 51.3634 100.334 51.4707 100.218C51.6858 99.9444 51.959 99.6084 52.2816 99.2097C52.9626 98.3585 53.9034 97.1758 54.8934 95.8363C55.8835 94.4968 56.7392 93.2603 57.353 92.3553L58.0787 91.2846C58.1609 91.1493 58.2554 91.0218 58.361 90.9038C58.3071 91.0534 58.2332 91.1951 58.1414 91.3249C57.9891 91.5937 57.7606 91.9701 57.4694 92.4315C56.887 93.3589 56.0493 94.6177 55.0502 95.9572C54.0512 97.2968 53.1014 98.4705 52.3891 99.2993C52.0307 99.7115 51.7395 100.043 51.529 100.267C51.4294 100.391 51.3151 100.502 51.1885 100.599Z" fill="#E0E0E0"/>
<path d="M40.1409 98.7573C40.2907 98.7474 40.4413 98.7565 40.5889 98.7842L41.7761 98.932C42.7751 99.0709 44.1549 99.2725 45.6781 99.5054C47.2013 99.7384 48.5767 99.9534 49.5713 100.133L50.7495 100.348C50.8951 100.364 51.038 100.399 51.1751 100.451C51.0252 100.461 50.8747 100.452 50.7271 100.424L49.5444 100.276C48.5409 100.137 47.161 99.9355 45.6378 99.7026C44.1146 99.4696 42.7393 99.2546 41.7447 99.0754L40.5709 98.8603C40.4242 98.8421 40.28 98.8075 40.1409 98.7573Z" fill="#E0E0E0"/>
<path d="M43.9041 113.143C44.0916 113.138 44.2791 113.151 44.4641 113.183L45.9873 113.371C47.2685 113.537 49.0381 113.779 50.9914 114.061C52.9447 114.343 54.7143 114.607 55.9911 114.814L57.5053 115.06C57.692 115.085 57.8762 115.126 58.0564 115.181C57.8674 115.186 57.6783 115.172 57.4919 115.141L55.9732 114.952C54.6919 114.787 52.9178 114.54 50.9645 114.258C49.0113 113.976 47.2417 113.711 45.9649 113.51L44.4551 113.259C44.2682 113.237 44.0837 113.198 43.9041 113.143Z" fill="#E0E0E0"/>
<path d="M57.7339 115.038C57.8339 114.862 57.9494 114.696 58.0788 114.54C58.3297 114.2 58.6612 113.761 59.06 113.228C59.8888 112.117 61.0267 110.58 62.2363 108.846C63.4459 107.112 64.5032 105.518 65.2558 104.366L66.1518 102.991C66.2533 102.818 66.3686 102.653 66.4968 102.498C66.4185 102.684 66.324 102.862 66.2145 103.031C66.0219 103.367 65.7352 103.851 65.3723 104.438C64.6465 105.621 63.6072 107.233 62.3931 108.967C61.179 110.701 60.0277 112.233 59.1675 113.322C58.7195 113.864 58.3835 114.303 58.1326 114.599C58.0142 114.757 57.8807 114.904 57.7339 115.038Z" fill="#E0E0E0"/>
<path d="M162.387 105.123C150.909 99.3485 146.59 86.1684 145.246 73.9559C145.022 71.9175 144.489 69.8119 145.197 67.8945C145.905 65.977 147.979 64.4314 149.919 65.0273C151.527 65.5156 152.437 67.1732 153.503 68.4993C154.908 70.2709 156.785 71.6083 158.919 72.3565C160.308 72.8404 161.965 73.0196 163.139 72.1325C164.748 70.914 164.604 68.4679 164.3 66.4519C163.732 62.6917 163.165 58.9345 162.597 55.1802C162.293 53.1642 161.992 51.1079 162.342 49.1009C162.691 47.0938 163.82 45.1182 165.661 44.3028C167.503 43.4874 170.038 44.249 170.728 46.1665C171.015 46.9639 170.97 47.842 171.149 48.6708C171.329 49.4996 171.848 50.3687 172.677 50.4897C173.506 50.6106 174.245 49.9207 174.76 49.2398C176.552 46.9057 177.583 44.0743 178.528 41.2743C179.473 38.4743 180.365 35.6161 181.933 33.1207C183.501 30.6254 185.862 28.4884 188.725 27.906C191.587 27.3236 194.929 28.6631 196.067 31.3959C197.205 34.1287 195.969 37.2602 194.495 39.8228C192.319 43.629 189.602 47.0997 186.431 50.1268C185.857 50.6689 185.239 51.2558 185.087 52.0398C184.845 53.4465 186.31 54.5978 187.703 54.8487C189.28 55.131 190.888 54.7412 192.488 54.6964C194.087 54.6516 195.893 55.1041 196.703 56.4884C197.828 58.4327 196.417 60.843 194.911 62.505C191.924 65.8317 188.385 68.6187 184.451 70.7438C183.044 71.5009 181.552 72.2042 180.504 73.4318C179.455 74.6593 178.998 76.5677 179.926 77.8804C180.853 79.193 182.775 79.3857 184.289 78.8705C185.804 78.3553 187.071 77.3114 188.474 76.5409C191.094 75.0938 194.701 74.7489 196.824 76.9038C198.218 78.3105 198.639 80.4878 198.321 82.4545C198.003 84.4212 197.039 86.2042 195.982 87.8798C192.291 93.7351 187.21 98.7572 181.1 101.916C174.989 105.074 169.12 106.539 162.391 105.128" fill="#F5F5F5"/>
<path d="M164.416 97.0503C165.479 90.1392 166.935 83.2945 168.78 76.5498L170.204 71.232C170.675 69.4893 171.141 67.76 171.701 66.0979C172.782 62.9065 174.04 59.7776 175.468 56.7258C176.812 53.8048 178.188 51.081 179.5 48.5408C180.813 46.0007 182.09 43.6621 183.335 41.5789C185.289 38.2817 187.502 35.1448 189.952 32.1978C190.817 31.1539 191.516 30.3655 191.995 29.8413L192.541 29.2455C192.601 29.174 192.667 29.108 192.739 29.0483C192.692 29.1275 192.636 29.2011 192.573 29.2679L192.049 29.8906C191.601 30.4327 190.911 31.2346 190.064 32.2919C187.664 35.2614 185.49 38.4061 183.559 41.6999C182.327 43.7875 181.073 46.1306 179.773 48.6707C178.474 51.2109 177.108 53.9392 175.777 56.8557C174.359 59.9059 173.108 63.0317 172.032 66.2189C171.476 67.8765 171.015 69.5879 170.545 71.3351C170.074 73.0823 169.608 74.8563 169.129 76.6483C167.286 83.3796 165.822 90.2089 164.743 97.104" fill="#E0E0E0"/>
<path d="M171.803 66.0711C171.666 65.8059 171.558 65.5265 171.481 65.2378C171.297 64.6957 171.033 63.8938 170.764 62.9216C170.191 60.9504 169.487 58.2087 168.726 55.1802C167.964 52.1517 167.22 49.4234 166.62 47.4701C166.32 46.4935 166.069 45.705 165.89 45.1629C165.779 44.8855 165.698 44.5972 165.648 44.3027C165.804 44.5562 165.93 44.8268 166.024 45.1091C166.248 45.6378 166.535 46.4173 166.871 47.3895C167.539 49.3248 168.323 52.0531 169.089 55.0861L171.019 62.8499C171.255 63.7818 171.457 64.5643 171.624 65.1975C171.717 65.4809 171.777 65.774 171.803 66.0711Z" fill="#E0E0E0"/>
<path d="M197.039 57.4739C196.71 57.5967 196.369 57.6882 196.022 57.7472C195.368 57.904 194.414 58.1235 193.249 58.4326C190.911 59.0329 187.707 59.9737 184.222 61.1654C180.737 62.3571 177.627 63.5891 175.405 64.5344C174.29 64.9824 173.398 65.4035 172.78 65.6768C172.468 65.8391 172.141 65.9711 171.803 66.071C172.085 65.8672 172.385 65.6902 172.699 65.5424C173.3 65.2288 174.178 64.7897 175.28 64.288C177.484 63.2755 180.589 62.0121 184.083 60.807C187.064 59.7731 190.097 58.8938 193.169 58.1728C194.347 57.895 195.31 57.7248 195.978 57.6038C196.326 57.5262 196.682 57.4827 197.039 57.4739Z" fill="#E0E0E0"/>
<path d="M164.671 96.5261C164.584 96.4411 164.509 96.3447 164.447 96.2394C164.291 96.002 164.102 95.7108 163.869 95.3434C163.368 94.5818 162.673 93.4618 161.835 92.0685C160.155 89.2775 157.956 85.3485 155.586 80.9805C153.216 76.6125 151.052 72.688 149.43 69.888L147.504 66.5549L146.984 65.6589C146.916 65.5559 146.862 65.4444 146.823 65.3274C146.911 65.4133 146.987 65.5114 147.047 65.6186L147.625 66.5146C148.127 67.2762 148.821 68.3962 149.659 69.7939C151.339 72.585 153.543 76.5139 155.931 80.8819C158.319 85.2499 160.46 89.1879 162.082 92.0103L164.008 95.3479C164.219 95.7107 164.389 96.0154 164.528 96.2439C164.586 96.3321 164.635 96.4268 164.671 96.5261Z" fill="#E0E0E0"/>
<path d="M197.532 80.4385C197.433 80.5145 197.325 80.5778 197.21 80.6266L196.26 81.0881L192.743 82.8174C189.773 84.2823 185.692 86.3476 181.189 88.6414C176.687 90.9351 172.579 92.9601 169.577 94.3623C168.076 95.0612 166.858 95.6167 165.993 95.9841L165.012 96.3962C164.901 96.4547 164.781 96.4955 164.658 96.5172C164.758 96.4425 164.866 96.3794 164.981 96.329L165.93 95.8497L169.452 94.1204C172.422 92.6599 176.499 90.5946 181.005 88.2964C185.512 85.9982 189.612 83.9777 192.613 82.5754C194.114 81.8766 195.333 81.321 196.197 80.9537L197.178 80.5415C197.29 80.4893 197.41 80.4545 197.532 80.4385Z" fill="#E0E0E0"/>
<path d="M254.562 50.0194C254.562 42.708 246.884 38.0802 239.053 41.7403C237.283 42.5703 235.835 43.9586 234.931 45.6917C232.964 49.5087 233.834 53.8632 235.621 57.4831L241.714 72.9256C241.906 73.4182 242.242 73.8413 242.678 74.1397C243.115 74.438 243.631 74.5976 244.16 74.5976C244.689 74.5976 245.205 74.438 245.641 74.1397C246.078 73.8413 246.414 73.4182 246.606 72.9256L252.582 57.3979C254.648 52.6536 254.562 50.0194 254.562 50.0194ZM247.206 56.381C241.942 59.4408 236.607 53.7826 239.492 48.2005C239.868 47.4558 240.45 46.8341 241.167 46.4085C246.431 43.3487 251.763 49.0069 248.877 54.589C248.503 55.3334 247.923 55.9551 247.206 56.381Z" fill="#F5F5F5"/>
<path d="M318.08 198.948C318.08 199.015 250.88 199.064 168.027 199.064C85.1737 199.064 17.9468 199.015 17.9468 198.948C17.9468 198.881 85.1199 198.831 168.027 198.831C250.934 198.831 318.08 198.885 318.08 198.948Z" fill="#263238"/>
<path d="M145.224 198.948L85.6756 198.675C82.2377 198.653 78.9483 197.27 76.5283 194.828C74.1082 192.386 72.7547 189.085 72.7642 185.647L73.3959 36.3598C73.416 32.9203 74.7993 29.6291 77.2423 27.208C79.6853 24.7868 82.9887 23.4332 86.4282 23.4439L145.976 23.7172C149.413 23.7385 152.701 25.1204 155.12 27.5604C157.54 30.0004 158.895 33.2997 158.888 36.7361L158.256 186.023C158.238 189.464 156.856 192.758 154.413 195.181C151.97 197.604 148.665 198.959 145.224 198.948Z" fill="#455A64"/>
<path d="M145.891 28.8691L134.346 28.8153C133.586 28.8295 132.863 29.1444 132.335 29.6911C131.806 30.2378 131.516 30.9717 131.528 31.7318V33.8285C131.534 34.2048 131.466 34.5786 131.327 34.9285C131.189 35.2783 130.982 35.5974 130.72 35.8675C130.458 36.1375 130.145 36.3533 129.8 36.5023C129.454 36.6513 129.082 36.7307 128.706 36.736L106.198 36.6329C105.439 36.6107 104.719 36.2886 104.196 35.737C103.673 35.1855 103.389 34.4494 103.407 33.6896V31.5929C103.421 30.8381 103.136 30.1084 102.616 29.5617C102.095 29.0151 101.38 28.6954 100.625 28.672H96.5665L86.4641 28.5958C84.0552 28.5839 81.7402 29.5291 80.0281 31.2236C78.316 32.9181 77.3469 35.2231 77.3338 37.632L76.7201 183.348C76.7093 185.757 77.6557 188.072 79.351 189.783C81.0463 191.494 83.3519 192.462 85.7607 192.474L145.192 192.747C146.385 192.753 147.568 192.523 148.672 192.071C149.777 191.62 150.781 190.955 151.629 190.115C152.476 189.275 153.15 188.276 153.611 187.176C154.073 186.076 154.313 184.895 154.318 183.702L154.932 37.9904C154.937 36.7978 154.708 35.6159 154.256 34.5122C153.805 33.4084 153.14 32.4043 152.301 31.5573C151.461 30.7103 150.463 30.037 149.363 29.5757C148.264 29.1145 147.084 28.8744 145.891 28.8691Z" fill="#FAFAFA"/>
<path d="M77.2622 55.1265H87.0017L95.6929 63.8221L86.6568 72.8583L77.3652 63.5623L77.2622 55.1265Z" fill="#EBEBEB"/>
<path d="M97.6774 60.0052L92.7942 55.1265H103.779L97.6774 60.0052Z" fill="#EBEBEB"/>
<path d="M101.947 63.9925L110.499 55.4402H140.381C140.381 55.4402 144.955 75.869 126.941 88.9864L101.947 63.9925Z" fill="#EBEBEB"/>
<path d="M98.2868 66.7163L89.1387 75.869L114.455 101.185L123.603 91.7281L98.2868 66.7163Z" fill="#EBEBEB"/>
<path d="M77.1501 81.0567L82.8845 75.1073L77.2621 69.4849L77.1501 81.0567Z" fill="#EBEBEB"/>
<path d="M86.3162 78.615L77.5085 87.4227V99.662L95.6929 118.267L111.1 103.931L86.3162 78.615Z" fill="#EBEBEB"/>
<path d="M130.368 91.5535C130.368 91.5535 149.238 77.7192 143.136 55.4402H154.869L154.726 118.321L130.368 91.5535Z" fill="#EBEBEB"/>
<path d="M126.82 95.1821L117.698 104.707L145.672 132.684L154.228 123.617L126.82 95.1821Z" fill="#EBEBEB"/>
<path d="M113.886 107.314L99.5457 121.551L128.227 150.031L142.54 136.192L113.886 107.314Z" fill="#EBEBEB"/>
<path d="M106.369 178.649L128.294 155.927L149.148 177.184L106.369 178.649Z" fill="#EBEBEB"/>
<path d="M131.712 152.992L154.56 130.368C154.56 131.372 154.363 177.278 154.363 177.278L131.712 152.992Z" fill="#EBEBEB"/>
<path d="M112.166 140.287L125.118 153.239L99.5457 179.626L87.7319 165.456L112.166 140.287Z" fill="#EBEBEB"/>
<path d="M77.1726 167.292C78.3956 167.171 109.715 137.841 109.715 137.841L77.1726 104.12V167.292Z" fill="#EBEBEB"/>
<path d="M76.72 173.976L84.2598 167.292L94.7027 179.626H76.72V174.908" fill="#EBEBEB"/>
<path d="M86.4641 46.2471C85.6673 45.6592 84.9183 45.009 84.2241 44.3028C84.2241 43.9623 84.2241 44.2087 84.2241 44.1326L84.2555 44.1057L84.3092 44.0564L84.4212 43.9534L84.6363 43.7518L85.044 43.3754L85.7473 42.7482C85.9603 42.5306 86.2014 42.3423 86.4641 42.1882C86.3043 42.4318 86.1113 42.652 85.8907 42.8423L85.2187 43.5054L84.82 43.8906L84.6049 44.0967L84.4974 44.1998L84.4392 44.249L84.4123 44.2759V44.1057C85.1509 44.765 85.8369 45.481 86.4641 46.2471Z" fill="#263238"/>
<path d="M148.4 42.8288C148.401 42.9258 148.373 43.0208 148.32 43.1018C148.266 43.1828 148.19 43.2461 148.101 43.2836C148.011 43.3211 147.913 43.3311 147.817 43.3124C147.722 43.2937 147.635 43.2471 147.566 43.1786C147.498 43.11 147.451 43.0226 147.433 42.9275C147.414 42.8323 147.424 42.7338 147.461 42.6444C147.499 42.555 147.562 42.4787 147.643 42.4254C147.724 42.3721 147.819 42.3441 147.916 42.345C148.044 42.345 148.168 42.396 148.258 42.4867C148.349 42.5774 148.4 42.7005 148.4 42.8288Z" fill="#263238"/>
<path d="M148.261 44.1594C148.33 44.2277 148.376 44.3147 148.395 44.4094C148.414 44.5042 148.404 44.6024 148.368 44.6917C148.331 44.781 148.268 44.8573 148.188 44.911C148.107 44.9647 148.013 44.9934 147.916 44.9934C147.82 44.9934 147.725 44.9647 147.645 44.911C147.565 44.8573 147.502 44.781 147.465 44.6917C147.428 44.6024 147.419 44.5042 147.437 44.4094C147.456 44.3147 147.503 44.2277 147.571 44.1594C147.663 44.0691 147.787 44.0186 147.916 44.0186C148.045 44.0186 148.169 44.0691 148.261 44.1594Z" fill="#263238"/>
<path d="M148.4 46.1754C148.388 46.2963 148.332 46.4085 148.242 46.4901C148.152 46.5718 148.035 46.617 147.914 46.617C147.792 46.617 147.675 46.5718 147.585 46.4901C147.496 46.4085 147.439 46.2963 147.428 46.1754C147.421 46.1077 147.429 46.0393 147.45 45.9747C147.472 45.9101 147.507 45.8507 147.552 45.8003C147.598 45.75 147.654 45.7097 147.716 45.6822C147.778 45.6546 147.846 45.6404 147.914 45.6404C147.982 45.6404 148.049 45.6546 148.111 45.6822C148.174 45.7097 148.23 45.75 148.275 45.8003C148.321 45.8507 148.356 45.9101 148.377 45.9747C148.399 46.0393 148.406 46.1077 148.4 46.1754Z" fill="#263238"/>
<path d="M127.407 44.8135H106.449V46.5607H127.407V44.8135Z" fill="#263238"/>
<path d="M125.126 76.16C125.126 67.9975 116.552 62.8276 107.807 66.9178C105.828 67.8421 104.209 69.3931 103.201 71.3306C101.002 75.5911 101.974 80.4564 103.967 84.4973L110.777 101.75C110.992 102.3 111.368 102.772 111.855 103.104C112.343 103.437 112.919 103.615 113.51 103.615C114.1 103.615 114.677 103.437 115.164 103.104C115.652 102.772 116.028 102.3 116.243 101.75L122.913 84.4077C125.225 79.1213 125.126 76.16 125.126 76.16ZM116.928 83.2832C111.05 86.7015 105.092 80.3847 108.313 74.1485C108.737 73.3261 109.385 72.6399 110.181 72.1684C116.063 68.7501 122.022 75.0669 118.796 81.3031C118.374 82.1267 117.726 82.8134 116.928 83.2832Z" fill="#FF725E"/>
<path d="M303.327 138.486H54.7681V174.958H303.327V138.486Z" fill="#FF725E"/>
<g opacity="0.5">
<path d="M303.327 138.486H54.7681V174.958H303.327V138.486Z" fill="black"/>
</g>
<path d="M89.7807 198.623C102.988 197.734 112.974 186.307 112.085 173.1C111.197 159.893 99.7694 149.907 86.5621 150.795C73.3548 151.684 63.3687 163.111 64.2575 176.319C65.1463 189.526 76.5735 199.512 89.7807 198.623Z" fill="#263238"/>
<path d="M64.2076 174.303C64.2076 174.326 64.2076 174.348 64.2076 174.366C64.162 177.514 64.7368 180.639 65.8992 183.565C67.0616 186.49 68.7887 189.158 70.9821 191.416C73.1755 193.674 75.7922 195.477 78.6827 196.724C81.5731 197.971 84.6809 198.636 87.8284 198.681C90.9759 198.727 94.1016 198.152 97.027 196.99C99.9524 195.827 102.62 194.1 104.878 191.907C107.136 189.713 108.94 187.097 110.186 184.206C111.433 181.316 112.098 178.208 112.144 175.061C112.144 175.038 112.144 175.016 112.144 174.998L64.2076 174.303Z" fill="#263238"/>
<path d="M71.3441 174.469C71.2948 177.797 72.2337 181.065 74.0419 183.86C75.8501 186.654 78.4465 188.85 81.5026 190.168C84.5587 191.487 87.9372 191.87 91.2108 191.268C94.4845 190.667 97.5061 189.108 99.8936 186.788C102.281 184.469 103.927 181.494 104.624 178.239C105.32 174.984 105.036 171.596 103.806 168.503C102.577 165.41 100.458 162.751 97.7167 160.862C94.9759 158.974 91.7366 157.941 88.4084 157.893C83.9478 157.83 79.6446 159.54 76.4447 162.649C73.2448 165.757 71.4102 170.009 71.3441 174.469Z" fill="#FAFAFA"/>
<path d="M88.4086 157.889C83.9476 157.824 79.6437 159.534 76.4435 162.643C73.2434 165.751 71.4091 170.004 71.3442 174.465L104.994 174.953C105.057 170.491 103.345 166.186 100.235 162.986C97.1248 159.786 92.8707 157.952 88.4086 157.889Z" fill="#E0E0E0"/>
<path d="M77.9208 174.563C77.8909 176.591 78.4629 178.581 79.5645 180.284C80.6661 181.986 82.2478 183.323 84.1095 184.126C85.9713 184.93 88.0294 185.163 90.0235 184.796C92.0177 184.429 93.8583 183.479 95.3126 182.066C96.7669 180.654 97.7694 178.841 98.1935 176.858C98.6175 174.876 98.444 172.812 97.6949 170.928C96.9458 169.043 95.6547 167.424 93.9849 166.274C92.3152 165.123 90.3418 164.494 88.3144 164.465C86.9689 164.446 85.6327 164.692 84.3821 165.188C83.1315 165.685 81.9911 166.424 81.0259 167.361C80.0608 168.299 79.2898 169.418 78.757 170.654C78.2242 171.889 77.9401 173.218 77.9208 174.563Z" fill="#263238"/>
<path d="M272.844 198.615C286.059 197.848 296.15 186.514 295.383 173.299C294.617 160.084 283.283 149.993 270.068 150.759C256.853 151.526 246.761 162.86 247.528 176.075C248.295 189.29 259.629 199.382 272.844 198.615Z" fill="#263238"/>
<path d="M247.484 174.303C247.484 174.326 247.484 174.348 247.484 174.366C247.439 177.514 248.013 180.639 249.176 183.565C250.338 186.49 252.065 189.158 254.259 191.416C256.452 193.674 259.069 195.477 261.959 196.724C264.85 197.971 267.957 198.636 271.105 198.681C274.253 198.727 277.378 198.152 280.304 196.99C283.229 195.827 285.897 194.1 288.155 191.907C290.413 189.713 292.216 187.097 293.463 184.206C294.71 181.316 295.375 178.208 295.42 175.061C295.42 175.038 295.42 175.016 295.42 174.998L247.484 174.303Z" fill="#263238"/>
<path d="M254.621 174.469C254.572 177.797 255.511 181.065 257.319 183.86C259.127 186.654 261.723 188.85 264.779 190.168C267.836 191.487 271.214 191.87 274.488 191.268C277.761 190.667 280.783 189.108 283.17 186.788C285.558 184.469 287.204 181.494 287.9 178.239C288.597 174.984 288.312 171.596 287.083 168.503C285.854 165.41 283.734 162.751 280.994 160.862C278.253 158.974 275.013 157.941 271.685 157.893C267.225 157.83 262.921 159.54 259.722 162.649C256.522 165.757 254.687 170.009 254.621 174.469Z" fill="#FAFAFA"/>
<path d="M271.685 157.889C267.224 157.824 262.92 159.534 259.72 162.643C256.52 165.751 254.686 170.004 254.621 174.465L288.27 174.953C288.334 170.491 286.622 166.186 283.512 162.986C280.401 159.786 276.147 157.952 271.685 157.889Z" fill="#E0E0E0"/>
<path d="M261.184 174.563C261.154 176.591 261.726 178.581 262.828 180.284C263.93 181.986 265.511 183.323 267.373 184.126C269.235 184.93 271.293 185.163 273.287 184.796C275.281 184.429 277.122 183.479 278.576 182.066C280.03 180.654 281.033 178.841 281.457 176.858C281.881 174.876 281.707 172.812 280.958 170.928C280.209 169.043 278.918 167.424 277.248 166.274C275.579 165.123 273.605 164.494 271.578 164.465C270.232 164.446 268.896 164.692 267.646 165.188C266.395 165.685 265.255 166.424 264.289 167.361C263.324 168.299 262.553 169.418 262.02 170.654C261.488 171.889 261.203 173.218 261.184 174.563Z" fill="#263238"/>
<path d="M119.585 117.967C119.585 117.967 84.2913 120.57 71.2007 123.505C61.9809 125.57 44.2043 129.141 44.4193 140.323L45.8305 148.342C45.8305 148.342 39.2404 151.352 39.2404 159.04C39.2404 166.728 37.6321 178.645 53.0254 179.124C55.5611 179.2 60.3771 179.124 60.3771 179.124C60.3771 179.124 57.4247 146.339 87.5393 145.381C118.178 144.404 116.144 178.824 116.144 178.824H244.017C244.017 178.824 238.766 145.291 271.748 145.224C304.73 145.157 299.712 179.043 299.712 179.043C299.712 179.043 311.844 180.092 317.489 169.895C323.134 159.699 321.669 152.423 321.669 152.423L321.48 145.976C321.445 144.918 321.008 143.914 320.26 143.165C319.511 142.416 318.506 141.98 317.448 141.944C317.448 141.944 319.653 125.718 316.27 122.909C312.888 120.1 294.354 103.152 294.354 103.152L295.25 102.601C295.582 102.391 295.848 102.091 296.017 101.736C296.185 101.381 296.25 100.986 296.203 100.596C296.156 100.206 296 99.8369 295.752 99.5321C295.504 99.2273 295.174 98.999 294.802 98.8737C287.764 96.4545 273.849 91.6654 270.579 90.523C270.089 90.3489 269.578 90.2404 269.06 90.2004C267.107 90.0526 261.578 89.7031 251.431 89.5956C239.071 89.4612 189.997 89.5956 189.997 89.5956C189.997 89.5956 173.107 90.9844 163.699 95.1239C153.834 99.4785 119.585 117.967 119.585 117.967Z" fill="#FF725E"/>
<g opacity="0.4">
<path d="M48.1915 158.144C46.9102 157.884 44.948 157.862 43.9713 158.727C43.2456 159.372 43.0529 160.415 42.9454 161.379C42.7396 162.698 42.77 164.044 43.035 165.352C43.1701 166.006 43.4389 166.625 43.8243 167.17C44.2098 167.715 44.7037 168.175 45.275 168.52C46.4488 169.156 48.0526 169.053 48.962 168.072C49.7953 167.176 49.8894 165.832 49.858 164.636C49.8267 162.906 49.9656 161.441 49.6475 159.743C49.5773 159.383 49.4239 159.044 49.1995 158.753C49.0879 158.579 48.9377 158.434 48.7605 158.327C48.5833 158.221 48.384 158.157 48.178 158.14" fill="black"/>
</g>
<path d="M45.8394 148.342C49.5847 148.342 53.218 148.136 56.9588 147.894C57.3663 147.912 57.7677 147.79 58.0967 147.549C58.2472 147.362 58.3591 147.146 58.426 146.916C58.4929 146.685 58.5135 146.444 58.4865 146.205C58.4865 144.198 58.4058 141.913 56.8826 140.605C55.9508 139.807 54.674 139.557 53.4509 139.445C50.4138 139.116 47.3415 139.421 44.4282 140.341L45.8394 148.342Z" fill="#FAFAFA"/>
<path d="M123.648 177.798C123.648 177.798 123.648 177.69 123.621 177.475C123.594 177.26 123.585 176.942 123.559 176.534C123.514 175.701 123.447 174.487 123.361 172.919C123.276 171.351 123.169 169.429 122.945 167.207C122.713 164.691 122.271 162.199 121.623 159.757C120.805 156.807 119.592 153.981 118.017 151.357C116.232 148.326 113.861 145.682 111.041 143.58C104.998 139.279 96.8309 136.86 88.2875 136.743C79.7442 136.627 71.5727 139.328 65.677 143.857C62.8509 145.948 60.3754 148.475 58.3432 151.343C56.5688 153.834 55.1261 156.545 54.0514 159.407C53.1649 161.774 52.556 164.235 52.237 166.741C51.9871 168.631 51.9136 170.541 52.0175 172.444C52.091 173.647 52.2406 174.844 52.4655 176.028C52.5371 176.427 52.5954 176.736 52.6312 176.951C52.6671 177.166 52.6805 177.269 52.6805 177.269C52.6805 177.269 52.6536 177.166 52.6088 176.96L52.4162 176.064C52.1723 174.882 52.0107 173.684 51.9323 172.48C51.8105 170.57 51.8705 168.653 52.1115 166.755C52.4203 164.235 53.0217 161.761 53.9035 159.381C54.9745 156.495 56.4173 153.762 58.1954 151.249C60.2322 148.358 62.7187 145.811 65.5605 143.705C71.483 139.153 79.6725 136.425 88.283 136.537C96.8936 136.649 105.074 139.091 111.167 143.432C114.003 145.555 116.387 148.224 118.178 151.281C119.752 153.925 120.958 156.773 121.762 159.743C122.407 162.196 122.84 164.699 123.057 167.225C123.267 169.465 123.361 171.373 123.433 172.941C123.505 174.509 123.554 175.728 123.59 176.561C123.59 176.969 123.617 177.283 123.626 177.502C123.635 177.722 123.648 177.798 123.648 177.798Z" fill="white"/>
<path d="M124.992 178.353V178.084L124.965 177.292C124.943 176.584 124.912 175.549 124.867 174.196C124.791 171.476 124.679 167.503 124.535 162.445C124.392 157.387 124.226 151.245 124.033 144.211C123.984 142.451 123.939 140.627 123.886 138.768C123.854 137.818 123.896 136.867 124.011 135.923L124.213 134.481L124.508 133.034C124.972 131.057 125.64 129.133 126.502 127.295C127.389 125.367 128.486 123.543 129.772 121.856L151.917 107.905L157.898 104.142C159.914 102.803 162.03 101.621 164.228 100.607C166.476 99.5489 168.782 98.62 171.136 97.8253C172.31 97.4131 173.515 97.0771 174.72 96.7187C175.925 96.3603 177.153 96.0646 178.398 95.8227C183.094 94.8181 187.868 94.2185 192.667 94.0307C197.272 93.8101 201.885 93.825 206.488 94.0755H206.618L206.586 94.2054L200.637 120.821C199.538 122.626 198.637 124.544 197.949 126.542C197.272 128.437 196.968 130.445 197.053 132.456C197.205 134.422 197.259 136.349 197.308 138.217C197.358 140.085 197.38 141.895 197.416 143.656C197.519 150.689 197.546 156.822 197.564 161.876C197.582 166.929 197.564 170.903 197.564 173.618C197.564 174.962 197.564 176.006 197.564 176.714C197.564 177.059 197.564 177.323 197.564 177.507C197.564 177.69 197.564 177.775 197.564 177.775C197.564 177.775 197.564 177.681 197.564 177.507C197.564 177.332 197.564 177.059 197.564 176.714C197.564 176.006 197.564 174.971 197.564 173.618C197.564 170.903 197.523 166.929 197.492 161.88C197.461 156.831 197.416 150.68 197.295 143.656C197.259 141.9 197.22 140.088 197.178 138.221C197.125 136.353 197.071 134.436 196.914 132.469C196.823 130.433 197.127 128.399 197.81 126.479C198.493 124.465 199.394 122.532 200.498 120.714V120.745C202.321 112.551 204.315 103.609 206.425 94.1248L206.528 94.2592C201.935 94.0117 197.333 93.9998 192.739 94.2234C187.952 94.4087 183.189 95.0082 178.506 96.0154C177.265 96.2618 176.055 96.6067 174.841 96.9114C173.627 97.216 172.44 97.6058 171.257 98.0134C168.903 98.8094 166.596 99.7398 164.349 100.8C162.162 101.807 160.056 102.981 158.05 104.312L152.065 108.076L129.92 121.995V121.972C128.636 123.649 127.542 125.462 126.659 127.38C125.798 129.205 125.131 131.115 124.67 133.078C123.662 136.918 124.168 140.694 124.177 144.211L124.625 162.445C124.746 167.498 124.84 171.476 124.903 174.191C124.934 175.535 124.952 176.584 124.97 177.292C124.97 177.635 124.97 177.899 124.97 178.084C124.992 178.264 124.992 178.353 124.992 178.353Z" fill="#263238"/>
<path d="M206.326 94.8148H206.537L207.151 94.7924L209.53 94.7342L218.351 94.5639L248.089 94.0532H248.147L248.183 94.098L252.349 99.2007C256.57 104.384 260.593 109.312 264.248 113.792L265.592 115.45C266.027 116.005 266.401 116.606 266.708 117.242C267.263 118.42 267.564 119.703 267.593 121.005C267.622 122.308 267.376 123.602 266.874 124.804L265.53 127.94L261.417 137.455L260.288 140.036L259.988 140.708C259.921 140.856 259.88 140.932 259.88 140.932C259.88 140.932 259.907 140.851 259.965 140.699C260.024 140.547 260.127 140.309 260.243 140.018C260.499 139.418 260.861 138.54 261.332 137.42L265.364 127.877C266.134 125.852 267.492 123.72 267.398 121.121C267.378 119.801 267.072 118.5 266.502 117.309C266.201 116.69 265.835 116.106 265.409 115.566L264.065 113.909L252.152 99.3307L247.99 94.2279L248.08 94.2727L218.337 94.7207L209.516 94.8238H207.137H206.528L206.326 94.8148Z" fill="#263238"/>
<path d="M191.296 134.364C191.296 134.364 191.422 134.364 191.65 134.311C191.986 134.251 192.306 134.123 192.591 133.934C193.042 133.64 193.38 133.201 193.55 132.689C193.652 132.371 193.695 132.037 193.675 131.703C193.664 131.331 193.569 130.967 193.397 130.637C193.197 130.262 192.9 129.947 192.537 129.725C192.173 129.504 191.757 129.384 191.332 129.378H188.312H181.391C180.806 129.379 180.243 129.6 179.814 129.996C179.395 130.378 179.127 130.898 179.061 131.461C178.993 132.005 179.093 132.557 179.348 133.043C179.608 133.499 180.011 133.856 180.495 134.06C180.974 134.224 181.482 134.286 181.987 134.243H183.452H186.086L189.898 134.279L190.933 134.302C191.055 134.299 191.176 134.308 191.296 134.328C191.176 134.343 191.055 134.35 190.933 134.351H189.898L186.086 134.387H183.452H181.987C181.731 134.387 181.485 134.387 181.212 134.387C180.938 134.37 180.668 134.308 180.414 134.203C179.883 133.985 179.44 133.595 179.155 133.096C178.871 132.572 178.76 131.972 178.837 131.381C178.908 130.752 179.207 130.171 179.678 129.749C180.149 129.327 180.758 129.093 181.391 129.091H188.312H191.336C191.794 129.101 192.24 129.234 192.628 129.476C193.016 129.718 193.331 130.06 193.541 130.467C193.72 130.82 193.817 131.209 193.823 131.605C193.837 131.954 193.787 132.304 193.675 132.635C193.486 133.167 193.121 133.619 192.64 133.916C192.344 134.105 192.008 134.223 191.659 134.261C191.543 134.31 191.421 134.344 191.296 134.364Z" fill="#263238"/>
<path d="M257.6 134.364C257.6 134.364 257.726 134.364 257.954 134.311C258.29 134.251 258.61 134.123 258.895 133.934C259.346 133.64 259.684 133.201 259.854 132.689C259.956 132.371 259.999 132.037 259.979 131.703C259.968 131.331 259.873 130.967 259.701 130.637C259.501 130.262 259.204 129.947 258.841 129.725C258.477 129.504 258.061 129.384 257.636 129.378H254.616H247.695C247.11 129.379 246.547 129.6 246.118 129.996C245.699 130.378 245.431 130.898 245.365 131.461C245.297 132.005 245.397 132.557 245.652 133.043C245.912 133.499 246.315 133.856 246.799 134.06C247.278 134.224 247.786 134.286 248.291 134.243H249.756H252.39L256.202 134.279L257.237 134.302C257.359 134.299 257.48 134.308 257.6 134.328C257.48 134.343 257.358 134.35 257.237 134.351H256.202L252.39 134.387H249.756H248.291C248.035 134.387 247.789 134.387 247.516 134.387C247.241 134.37 246.972 134.308 246.718 134.203C246.187 133.985 245.744 133.595 245.459 133.096C245.175 132.572 245.064 131.972 245.141 131.381C245.212 130.752 245.511 130.171 245.982 129.749C246.453 129.327 247.062 129.093 247.695 129.091H254.616H257.64C258.098 129.101 258.544 129.234 258.932 129.476C259.32 129.718 259.635 130.06 259.845 130.467C260.024 130.82 260.121 131.209 260.127 131.605C260.141 131.954 260.091 132.304 259.979 132.635C259.79 133.167 259.425 133.619 258.944 133.916C258.648 134.105 258.312 134.223 257.963 134.261C257.847 134.31 257.725 134.344 257.6 134.364Z" fill="#263238"/>
<path d="M315.701 123.55H302.441C301.549 123.549 300.674 123.792 299.911 124.253C299.148 124.713 298.524 125.373 298.108 126.161C297.767 126.814 297.576 127.535 297.551 128.271C297.527 129.007 297.668 129.739 297.965 130.413L303.162 142.227L316.441 142.097C316.441 142.097 319.267 127.12 315.701 123.55Z" fill="#FAFAFA"/>
<path d="M131.533 121.878L199.956 120.615L244.487 119.8L259.173 111.319C259.452 111.156 259.693 110.936 259.881 110.674C260.069 110.411 260.198 110.111 260.262 109.794C260.325 109.477 260.32 109.15 260.247 108.836C260.174 108.521 260.036 108.225 259.84 107.968L250.696 95.9571C250.227 95.3387 249.621 94.8362 248.927 94.4883C248.233 94.1404 247.468 93.9563 246.691 93.9501L196.883 93.5469C196.883 93.5469 178.129 92.4538 163.35 100.715C147.809 109.437 131.533 121.878 131.533 121.878Z" fill="#263238"/>
<path d="M162.888 94.7878C162.888 94.7878 166.32 96.3514 164.089 97.7984C161.858 99.2454 127.192 121.094 127.192 121.094L119.222 117.488C133.338 109.635 147.594 101.996 162.888 94.7878Z" fill="#455A64"/>
<path d="M128.312 121.65L128.097 121.704L127.465 121.843L125.032 122.344C122.918 122.765 119.853 123.357 116.072 124.011C108.456 125.319 97.9194 126.842 86.1952 127.855C83.2608 128.11 80.3712 128.303 77.6295 128.5C74.8877 128.697 72.1908 128.854 69.6551 129.082C64.5792 129.53 60.0365 130.265 56.345 131.363C53.4108 132.178 50.587 133.349 47.936 134.848C46.9818 135.35 46.3008 135.843 45.8215 136.138L45.2749 136.483L45.0823 136.595C45.1398 136.549 45.1996 136.505 45.2615 136.465L45.7946 136.098C46.2695 135.789 46.9415 135.283 47.8912 134.754C50.5262 133.214 53.3436 132.01 56.2778 131.17C59.9783 130.045 64.5344 129.288 69.6148 128.836C72.1549 128.594 74.825 128.424 77.5936 128.24C80.3623 128.056 83.225 127.841 86.1549 127.586C97.8746 126.573 108.425 125.077 116.028 123.809C119.831 123.178 122.895 122.613 125.014 122.219L127.456 121.771L128.092 121.654L128.312 121.65Z" fill="#263238"/>
<path d="M321.001 152.289C321.001 152.356 316.441 152.405 310.818 152.405C305.196 152.405 300.631 152.356 300.631 152.289C300.631 152.222 305.191 152.172 310.818 152.172C316.445 152.172 321.001 152.226 321.001 152.289Z" fill="#263238"/>
<path d="M237.57 163.928C237.57 163.995 211.828 164.044 180.078 164.044C148.328 164.044 122.582 163.995 122.582 163.928C122.582 163.861 148.319 163.811 180.078 163.811C211.837 163.811 237.57 163.865 237.57 163.928Z" fill="#263238"/>
<path d="M57.3442 152.674C57.3442 152.741 53.7019 152.791 49.213 152.791C44.724 152.791 41.0818 152.741 41.0818 152.674C41.0818 152.607 44.724 152.558 49.213 152.558C53.7019 152.558 57.3442 152.611 57.3442 152.674Z" fill="#263238"/>
<path d="M294.009 102.686C294.009 102.686 290.954 106.105 292.154 108.613C293.355 111.122 305.769 119.912 305.769 119.912L314.778 121.601L294.009 102.686Z" fill="#455A64"/>
<path d="M208.351 96.562L206.326 118.442L242.579 117.407L257.188 108.913L247.731 96.562H208.351Z" fill="#455A64"/>
<path d="M140.117 119.562C140.117 119.562 161.988 103.766 170.617 100.625C178.945 97.5969 183.286 96.8353 191.108 96.5934C198.585 96.3783 203.141 96.5934 203.141 96.5934L197.362 118.837L140.117 119.562Z" fill="#455A64"/>
<path d="M136.918 119.616C136.918 118.936 137.099 118.268 137.443 117.681C137.786 117.094 138.279 116.608 138.871 116.274L143.898 113.452C145.33 112.646 146.945 112.223 148.588 112.224C149.6 112.225 150.605 112.386 151.568 112.699C152.615 113.061 153.527 113.734 154.182 114.629C154.836 115.523 155.203 116.595 155.232 117.703C155.261 118.447 155.138 119.189 154.873 119.885C154.608 120.581 154.205 121.216 153.688 121.752C153.171 122.289 152.552 122.715 151.867 123.006C151.181 123.297 150.444 123.447 149.699 123.447H140.739C139.725 123.444 138.753 123.04 138.037 122.321C137.32 121.603 136.918 120.63 136.918 119.616Z" fill="#FF725E"/>
<path d="M136.918 119.616C136.918 119.616 136.918 119.786 136.976 120.1C137.044 120.561 137.196 121.006 137.424 121.413C137.786 122.053 138.32 122.579 138.965 122.931C139.368 123.142 139.805 123.279 140.256 123.335C140.77 123.373 141.286 123.383 141.801 123.366L149.466 123.339C150.193 123.358 150.917 123.24 151.599 122.99C152.319 122.72 152.974 122.302 153.52 121.761C154.067 121.221 154.493 120.57 154.771 119.854C155.053 119.097 155.168 118.289 155.107 117.484C155.047 116.69 154.813 115.92 154.422 115.227C154.031 114.534 153.492 113.936 152.844 113.474C152.219 113.042 151.514 112.737 150.77 112.578C148.727 112.095 146.582 112.301 144.668 113.165C144.09 113.425 143.562 113.752 143.038 114.034L141.541 114.867L138.965 116.292C138.317 116.641 137.782 117.168 137.424 117.811C137.198 118.218 137.046 118.663 136.976 119.123C136.931 119.437 136.936 119.607 136.922 119.607C136.906 119.443 136.906 119.278 136.922 119.114C136.973 118.644 137.113 118.188 137.335 117.77C137.687 117.101 138.227 116.55 138.889 116.184L141.447 114.728L142.935 113.882C143.454 113.595 143.983 113.263 144.574 112.986C146.524 112.088 148.717 111.868 150.806 112.359C151.576 112.512 152.309 112.816 152.961 113.255C153.638 113.734 154.201 114.358 154.61 115.08C155.019 115.803 155.264 116.607 155.326 117.434C155.392 118.274 155.273 119.118 154.977 119.907C154.688 120.656 154.242 121.335 153.671 121.899C153.099 122.463 152.414 122.899 151.662 123.178C150.954 123.433 150.205 123.553 149.453 123.532L141.788 123.509C141.266 123.52 140.744 123.504 140.224 123.46C139.752 123.394 139.297 123.243 138.88 123.012C138.22 122.643 137.679 122.092 137.321 121.426C137.102 121.008 136.964 120.552 136.913 120.082C136.903 119.927 136.904 119.771 136.918 119.616Z" fill="#263238"/>
<path d="M305.42 177.999C305.42 177.999 305.42 177.896 305.42 177.69C305.42 177.484 305.456 177.175 305.482 176.794C305.509 176.414 305.554 175.898 305.581 175.316C305.608 174.734 305.626 174.053 305.648 173.295C305.671 172.538 305.648 171.687 305.648 170.764C305.648 169.841 305.581 168.833 305.456 167.758C305.252 165.321 304.819 162.909 304.161 160.554C303.773 159.18 303.296 157.834 302.732 156.522C302.133 155.106 301.41 153.745 300.572 152.454C298.705 149.61 296.33 147.135 293.566 145.152C290.523 142.943 287.126 141.267 283.521 140.197C279.785 139.055 275.717 138.638 271.578 138.607C267.54 138.57 263.521 139.155 259.661 140.341C257.834 140.918 256.059 141.651 254.357 142.531C252.734 143.394 251.192 144.401 249.751 145.542C247.072 147.64 244.686 150.087 242.655 152.817C241.762 154.07 240.974 155.395 240.298 156.778C239.683 158.059 239.138 159.374 238.668 160.716C237.236 164.759 236.365 168.98 236.078 173.26C236.007 174.778 236.016 175.948 236.056 176.763C236.078 177.157 236.096 177.457 236.105 177.659C236.114 177.861 236.105 177.968 236.105 177.968C236.105 177.968 236.105 177.865 236.069 177.659C236.033 177.453 236.025 177.144 235.993 176.763C235.934 175.594 235.934 174.424 235.993 173.255C236.241 168.951 237.09 164.703 238.515 160.635C238.986 159.287 239.527 157.965 240.137 156.675C240.818 155.282 241.609 153.946 242.503 152.678C244.54 149.93 246.934 147.466 249.621 145.349C251.071 144.2 252.622 143.183 254.254 142.312C255.967 141.424 257.754 140.685 259.594 140.103C263.475 138.903 267.52 138.312 271.582 138.351C275.74 138.383 279.826 138.799 283.593 139.955C287.222 141.035 290.64 142.726 293.7 144.955C295.117 145.998 296.442 147.161 297.66 148.431C298.817 149.623 299.849 150.931 300.738 152.334C301.578 153.635 302.302 155.009 302.902 156.437C303.465 157.748 303.94 159.095 304.322 160.469C304.976 162.836 305.4 165.261 305.59 167.709C305.711 168.784 305.711 169.792 305.76 170.719C305.81 171.647 305.76 172.511 305.76 173.255C305.76 173.999 305.693 174.693 305.666 175.28C305.639 175.867 305.581 176.355 305.545 176.758C305.509 177.162 305.482 177.453 305.465 177.654C305.447 177.856 305.42 177.999 305.42 177.999Z" fill="white"/>
<path d="M196.3 121.878H195.996L194.826 121.905L190.53 121.981C186.901 122.049 181.893 122.183 176.355 122.335C170.818 122.488 165.805 122.591 162.176 122.618C160.362 122.618 158.892 122.618 157.875 122.618H156.706H156.406C156.37 122.624 156.334 122.624 156.298 122.618C156.334 122.612 156.37 122.612 156.406 122.618H156.706L157.875 122.591L162.172 122.515C165.8 122.447 170.814 122.313 176.351 122.165C181.888 122.017 186.901 121.905 190.53 121.878C192.322 121.878 193.814 121.878 194.826 121.878H195.996H196.3Z" fill="white"/>
<path d="M190.463 128.612C189.158 128.73 187.848 128.769 186.538 128.728C185.229 128.769 183.918 128.73 182.614 128.612C183.919 128.497 185.229 128.458 186.538 128.495C187.848 128.458 189.158 128.497 190.463 128.612Z" fill="white"/>
<path d="M191.905 104.639C191.928 104.698 187.058 106.727 181.023 109.169C174.989 111.61 170.079 113.546 170.052 113.483C170.025 113.42 174.899 111.395 180.934 108.954C186.968 106.512 191.878 104.581 191.905 104.639Z" fill="white"/>
<path d="M182.031 106.176C182.058 106.239 177.417 108.282 171.669 110.741C165.921 113.201 161.244 115.149 161.217 115.091C161.191 115.033 165.832 112.99 171.58 110.526C177.327 108.062 182.005 106.109 182.031 106.176Z" fill="white"/>
<path d="M244.644 103.793C244.671 103.851 239.797 105.88 233.762 108.322C227.728 110.764 222.818 112.695 222.791 112.636C222.764 112.578 227.638 110.549 233.677 108.107C239.716 105.665 244.608 103.73 244.644 103.793Z" fill="white"/>
<path d="M234.752 105.32C234.779 105.383 230.138 107.426 224.394 109.886C218.651 112.345 213.965 114.294 213.938 114.236C213.911 114.177 218.553 112.135 224.3 109.671C230.048 107.207 234.752 105.28 234.752 105.32Z" fill="white"/>
<path d="M245.598 121.856C245.598 121.919 235.908 122.031 223.955 122.103C212.003 122.174 202.312 122.179 202.312 122.103C202.312 122.026 211.998 121.928 223.955 121.861C235.912 121.793 245.598 121.807 245.598 121.856Z" fill="white"/>
<path d="M256.328 128.24C256.328 128.303 253.613 128.379 250.257 128.41C246.902 128.442 244.187 128.41 244.187 128.352C244.187 128.294 246.902 128.209 250.257 128.177C253.613 128.146 256.328 128.173 256.328 128.24Z" fill="white"/>
<path d="M70.7842 124.925C70.6986 124.954 70.6098 124.972 70.5198 124.979L69.7627 125.077C69.4312 125.113 69.028 125.162 68.5621 125.243C68.0961 125.324 67.563 125.382 66.9806 125.498C65.8113 125.704 64.427 126.009 62.9128 126.394C61.2725 126.847 59.6561 127.382 58.0699 127.998C56.3854 128.666 54.8219 129.396 53.4242 130.117C52.0264 130.838 50.8168 131.564 49.8402 132.214C49.3339 132.523 48.8949 132.836 48.4962 133.11C48.0974 133.383 47.7704 133.607 47.5016 133.804L46.8789 134.252C46.8075 134.307 46.731 134.355 46.6504 134.396C46.7098 134.329 46.7758 134.269 46.8475 134.216L47.4478 133.737C47.7077 133.531 48.0302 133.289 48.42 133.007C48.8098 132.724 49.2354 132.411 49.764 132.111C50.7496 131.443 51.9682 130.713 53.348 129.965C56.3688 128.35 59.5684 127.094 62.8814 126.224C64.4046 125.83 65.7979 125.539 66.9762 125.355C67.563 125.247 68.0962 125.194 68.5666 125.131C69.037 125.068 69.4626 125.028 69.7717 125.005L70.5378 124.947C70.6193 124.934 70.7016 124.926 70.7842 124.925Z" fill="white"/>
<path d="M150.788 114.357C150.788 114.357 150.658 114.182 150.34 113.94C149.91 113.611 149.399 113.405 148.861 113.344C148.055 113.277 147.243 113.363 146.469 113.599C143.741 114.286 141.208 115.591 139.064 117.412C137.997 118.308 137.433 118.966 137.402 118.935C137.51 118.764 137.636 118.605 137.778 118.46C138.148 118.049 138.54 117.657 138.952 117.286C140.32 116.067 141.875 115.075 143.557 114.348C144.48 113.943 145.439 113.624 146.42 113.393C147.219 113.161 148.056 113.088 148.884 113.178C149.446 113.255 149.973 113.497 150.398 113.873C150.511 113.974 150.612 114.088 150.698 114.213C150.77 114.303 150.797 114.352 150.788 114.357Z" fill="white"/>
<path d="M295.026 102.525C294.401 102.676 293.76 102.742 293.117 102.722C292.364 102.699 291.614 102.606 290.877 102.444C289.906 102.216 288.952 101.916 288.024 101.548C286.989 101.158 285.887 100.652 284.695 100.155L282.836 99.4068C282.195 99.1514 281.519 98.9319 280.838 98.681C277.847 97.6684 274.798 96.8381 271.708 96.1946C266.088 95.0249 260.383 94.3177 254.648 94.0801C253.546 94.0218 252.551 94.0219 251.673 93.9995H249.433L248.017 94.0308H247.52C247.561 94.0229 247.604 94.0229 247.645 94.0308L248.013 94.0039L249.433 93.9278L251.673 93.8875C252.569 93.8875 253.546 93.8874 254.648 93.9412C260.398 94.1289 266.122 94.8185 271.752 96.002C274.85 96.6383 277.904 97.4703 280.896 98.4929C281.577 98.7438 282.24 98.9678 282.899 99.2276L284.758 99.9937C285.949 100.509 287.047 101.011 288.073 101.409C288.988 101.778 289.93 102.078 290.891 102.305C291.617 102.479 292.358 102.584 293.104 102.619C293.575 102.635 294.047 102.619 294.515 102.57L294.878 102.525H295.026Z" fill="#263238"/>
<path d="M79.4799 103.143C77.6879 93.3409 76.4828 91.8356 75.4703 88.4622C74.4578 85.0887 72.8495 82.898 70.847 82.123C69.503 81.6033 62.7516 79.1707 60.4041 79.9771C58.1073 80.7937 55.9208 81.8922 53.8946 83.2475C52.3223 84.2904 51.1307 85.8152 50.4988 87.5931L46.9148 97.7044L53.2226 103.976L56.3855 97.2564L59.8172 105.32L59.311 113.452L78.9916 118.747C80.7657 115.88 80.4969 108.703 79.4799 103.143Z" fill="#FF725E"/>
<g opacity="0.2">
<path d="M74.368 92.4495C73.4989 97.5522 73.36 98.2735 72.4909 103.358C72.1907 105.11 71.3171 107.838 70.0717 109.111C69.1488 110.047 68.2438 110.947 66.9581 111.252C65.7664 111.534 63.952 111.566 62.832 111.073C61.712 110.58 60.7533 108.385 61.2147 107.26C62.8858 107.619 63.401 108.156 64.839 107.26C66.0934 106.463 67.8765 104.698 68.5574 103.376C71.4291 97.821 72.2221 97.6239 74.3814 92.4495" fill="black"/>
</g>
<path d="M60.1082 102.337C59.7899 101.908 59.4995 101.459 59.239 100.993L57.2141 97.664L55.1354 94.3891C54.8255 93.9485 54.5456 93.4875 54.2976 93.0093C54.4054 93.1073 54.5003 93.2187 54.5798 93.3408C54.7501 93.5603 54.9875 93.8874 55.2698 94.295C55.8432 95.1104 56.6138 96.2528 57.4112 97.5386C58.2086 98.8243 58.9031 100.016 59.3824 100.89C59.6243 101.338 59.8304 101.678 59.9379 101.929C60.0156 102.055 60.073 102.193 60.1082 102.337Z" fill="#263238"/>
<path d="M73.8439 111.489C73.7013 111.564 73.5511 111.622 73.3959 111.664C73.2123 111.726 73.0253 111.776 72.8359 111.816C72.5883 111.884 72.337 111.936 72.0832 111.973C71.4265 112.09 70.7611 112.152 70.0941 112.157C69.2757 112.158 68.4587 112.088 67.6525 111.946C66.8472 111.795 66.0571 111.571 65.2916 111.279C64.6722 111.037 64.073 110.746 63.4996 110.41C63.2487 110.271 63.0516 110.119 62.8544 109.998C62.6913 109.891 62.5343 109.776 62.384 109.653C62.2475 109.559 62.1226 109.449 62.0122 109.326C62.0391 109.29 62.5946 109.724 63.5802 110.266C64.158 110.578 64.7568 110.849 65.3722 111.077C66.8846 111.641 68.4846 111.934 70.0986 111.942C70.7563 111.943 71.4134 111.899 72.0653 111.812C73.1584 111.655 73.8304 111.445 73.8439 111.489Z" fill="#263238"/>
<path d="M65.9458 96.2169C65.9099 96.3916 63.7954 100.603 63.7954 100.603L53.8139 95.3433L52.797 91.0425C52.6291 90.3519 52.1946 89.7558 51.5884 89.3847C50.9823 89.0137 50.2538 88.8977 49.5624 89.0624L46.619 90.2675C46.4977 90.3149 46.3899 90.3917 46.3055 90.491C46.2211 90.5903 46.1625 90.709 46.1352 90.8364C46.0949 91.0515 46.1352 91.2844 46.525 91.2352C47.2552 91.1769 48.765 91.0156 48.765 91.0156L48.0706 93.4662C47.8873 94.1084 47.9578 94.7965 48.2677 95.3881L48.7157 96.2348L49.6878 97.8073H49.6654C49.6654 97.8073 59.3691 107.775 64.8168 108.425C68.0917 108.815 71.8011 99.6352 71.8011 99.6352L65.9458 96.2169Z" fill="#B78876"/>
<path d="M48.6934 91.1815C48.6934 91.1815 48.7695 91.0784 48.9353 90.9664C49.1572 90.8119 49.4219 90.7304 49.6924 90.7335C49.8336 90.7414 49.9701 90.7872 50.0875 90.866C50.205 90.9448 50.2991 91.0538 50.3599 91.1815C50.454 91.3831 50.3913 91.5175 50.3599 91.5085C50.3286 91.4996 50.3599 91.3831 50.2524 91.2308C50.1863 91.134 50.0992 91.0536 49.9975 90.9954C49.8959 90.9372 49.7824 90.9028 49.6655 90.8948C49.4231 90.8982 49.185 90.9596 48.9711 91.074C48.8322 91.1412 48.7068 91.1994 48.6934 91.1815Z" fill="#AA6550"/>
<path d="M49.9522 92.7091C49.9522 92.7091 49.885 92.6285 49.7909 92.5075C49.6707 92.3531 49.5112 92.2339 49.3292 92.1622C49.1472 92.0905 48.9492 92.0689 48.756 92.0998C48.6037 92.0998 48.5096 92.1536 48.5007 92.1357C48.4917 92.1177 48.5724 92.0505 48.7336 91.9968C48.9468 91.9345 49.1746 91.9447 49.3813 92.0258C49.588 92.1069 49.762 92.2542 49.876 92.4448C49.9567 92.5971 49.9656 92.7046 49.9522 92.7091Z" fill="#AA6550"/>
<path d="M68.0154 82.9248L65.3274 95.7331L72.4954 100.038L75.2461 92.167C75.2461 92.167 74.0903 82.6067 68.0154 82.9248Z" fill="#FF725E"/>
<path d="M71.8772 83.1489C71.8772 83.1489 71.819 83.1982 71.6936 83.2654C71.5681 83.3326 71.3889 83.4312 71.1515 83.5521C70.6766 83.794 69.9777 84.1345 69.1041 84.5243C66.833 85.5625 64.4418 86.3149 61.9854 86.7643C59.5135 87.206 56.9762 87.1205 54.5396 86.5134C53.8104 86.3218 53.0997 86.0654 52.4161 85.7473C52.1697 85.6443 51.9681 85.5323 51.8651 85.4696C51.8008 85.4375 51.7394 85.4 51.6814 85.3576C51.9438 85.4463 52.201 85.5495 52.452 85.6667C53.1482 85.9479 53.8639 86.1785 54.5934 86.3566C57.0115 86.9102 59.5163 86.9711 61.9585 86.5358C64.3985 86.0866 66.7793 85.3607 69.0548 84.372C69.9508 84.0046 70.6363 83.6865 71.1246 83.476C71.368 83.3504 71.6194 83.2412 71.8772 83.1489Z" fill="#EBEBEB"/>
<path d="M73.7634 84.5645C73.702 84.6199 73.6344 84.668 73.5618 84.7078L72.9704 85.0886C72.6578 85.2933 72.3349 85.4818 72.0028 85.6531C71.6175 85.8547 71.1874 86.1011 70.6812 86.3251L69.9016 86.6835C69.6284 86.8089 69.3327 86.912 69.0325 87.0329C68.4367 87.2793 67.7736 87.4809 67.0837 87.7049C64.0588 88.6173 60.8973 88.9918 57.7429 88.8115C57.0172 88.7533 56.3272 88.7129 55.6911 88.6099C55.3685 88.5606 55.0594 88.5293 54.7637 88.4755L53.917 88.3053C53.3794 88.2112 52.9 88.0678 52.4789 87.9603C52.1168 87.8728 51.7594 87.7667 51.4082 87.6422L50.7407 87.4093C50.6608 87.388 50.5839 87.3563 50.5122 87.3152C50.5948 87.3197 50.6763 87.3363 50.7541 87.3645L51.4351 87.5526C51.7263 87.6422 52.0847 87.7453 52.5103 87.8349C52.9359 87.9245 53.4063 88.0633 53.9528 88.144L54.7951 88.2963C55.0863 88.3501 55.3954 88.3769 55.6911 88.4173C56.3272 88.5113 57.0351 88.5472 57.7295 88.5965C60.8604 88.7556 63.9958 88.3845 67.0031 87.4989C67.6885 87.2838 68.3471 87.0912 68.9429 86.8493C69.2386 86.7328 69.5343 86.6342 69.8076 86.5177L70.5916 86.1728C71.0978 85.9667 71.5279 85.7248 71.9356 85.5366C72.3433 85.3485 72.6568 85.1648 72.9167 85.0125L73.5349 84.672C73.6059 84.6261 73.6828 84.5899 73.7634 84.5645Z" fill="#EBEBEB"/>
<path d="M72.4776 100.039C72.2768 99.9537 72.0821 99.8549 71.8952 99.7429L70.3182 98.8469L64.9422 95.7422L64.875 95.7019V95.6258C65.0676 94.6715 65.2737 93.6411 65.4888 92.5838C65.8113 90.989 66.1249 89.4747 66.3848 88.1038C66.5326 87.4139 66.6536 86.7598 66.788 86.1371C66.9095 85.5615 67.1021 85.0032 67.3614 84.475C67.737 83.6906 68.4017 83.0821 69.2161 82.7771C69.4366 82.7012 69.6684 82.6633 69.9016 82.6651C69.9817 82.6596 70.0621 82.6687 70.139 82.692C69.8334 82.7023 69.5311 82.7597 69.243 82.8622C68.4735 83.1868 67.8533 83.7878 67.5048 84.5467C67.2625 85.0686 67.0836 85.6176 66.9716 86.1819C66.8507 86.7957 66.7252 87.4542 66.5908 88.1397C66.3131 89.5285 66.0084 91.0427 65.6948 92.6197C65.4798 93.6814 65.2692 94.7074 65.0766 95.6616L65.0228 95.5451L70.3675 98.7214L71.9131 99.6622C72.1114 99.7717 72.3002 99.8976 72.4776 100.039Z" fill="#263238"/>
<path d="M74.6684 91.7864C74.7078 92.185 74.6958 92.587 74.6325 92.9825C74.5387 93.94 74.3679 94.8883 74.1218 95.8184C73.8759 96.7494 73.5584 97.6601 73.1721 98.5422C73.0319 98.9174 72.8436 99.2728 72.6121 99.5995C72.7217 99.2171 72.8579 98.8429 73.0197 98.4795C73.6998 96.697 74.1864 94.8466 74.4713 92.9601C74.512 92.5651 74.5779 92.1731 74.6684 91.7864Z" fill="#263238"/>
<path d="M35.8043 163.032L35.7236 169.868C35.7236 169.868 28.7438 172.086 28.6094 173.349L41.8612 173.976L42.4257 163.327L35.8043 163.032Z" fill="#455A64"/>
<path d="M39.8721 169.487C39.9978 169.532 40.1026 169.622 40.1662 169.74C40.2299 169.857 40.248 169.994 40.217 170.124C40.1775 170.251 40.0903 170.359 39.9735 170.424C39.8566 170.489 39.7192 170.507 39.5898 170.473C39.457 170.424 39.3467 170.328 39.2798 170.204C39.2129 170.079 39.1941 169.934 39.2269 169.797C39.2832 169.668 39.387 169.567 39.5164 169.513C39.6459 169.46 39.791 169.459 39.9213 169.51" fill="#E0E0E0"/>
<path d="M41.8612 173.977V172.901L29.147 172.7C29.147 172.7 28.5422 172.928 28.5915 173.349L41.8612 173.977Z" fill="#E0E0E0"/>
<path d="M35.513 169.792C35.513 169.855 35.8356 169.9 36.1402 170.124C36.4449 170.348 36.5882 170.625 36.6689 170.603C36.7495 170.581 36.6689 170.204 36.2702 169.94C35.8714 169.676 35.4996 169.729 35.513 169.792Z" fill="#263238"/>
<path d="M34.093 170.298C34.093 170.361 34.3529 170.486 34.541 170.769C34.7292 171.051 34.7964 171.347 34.8636 171.347C34.9308 171.347 34.9845 170.984 34.7202 170.634C34.4559 170.285 34.0975 170.24 34.093 170.298Z" fill="#263238"/>
<path d="M33.2237 171.925C33.282 171.925 33.3895 171.624 33.2237 171.262C33.058 170.899 32.7757 170.746 32.7489 170.814C32.722 170.881 32.8967 171.064 33.0132 171.365C33.1297 171.665 33.1521 171.916 33.2237 171.925Z" fill="#263238"/>
<path d="M35.7013 168.233C35.7282 168.296 36.0284 168.233 36.3957 168.26C36.7631 168.287 37.0364 168.435 37.0722 168.381C37.108 168.327 36.8482 168.081 36.4181 168.036C35.988 167.991 35.6744 168.184 35.7013 168.233Z" fill="#263238"/>
<g opacity="0.3">
<path d="M35.7909 164.385L35.7729 165.603L42.2914 165.854L42.3496 164.757L35.7909 164.385Z" fill="black"/>
</g>
<path d="M35.7461 166.853C35.96 166.924 36.1894 166.935 36.4091 166.885C36.6504 166.853 36.8868 166.792 37.1125 166.701C37.2474 166.651 37.3777 166.589 37.5023 166.517C37.5797 166.481 37.6508 166.433 37.7128 166.374C37.7577 166.33 37.7866 166.272 37.7947 166.209C37.8028 166.147 37.7897 166.083 37.7576 166.029C37.7268 165.983 37.6857 165.944 37.6375 165.916C37.5894 165.888 37.5354 165.871 37.4799 165.868C37.3956 165.863 37.3111 165.871 37.229 165.89C37.0867 165.918 36.9472 165.958 36.8123 166.011C36.5843 166.103 36.3714 166.228 36.1807 166.383C35.8581 166.656 35.7327 166.894 35.764 166.907C35.7954 166.92 35.9522 166.732 36.2747 166.513C36.4644 166.386 36.6691 166.284 36.884 166.208C37.0097 166.165 37.1385 166.132 37.2693 166.11C37.4127 166.078 37.5336 166.083 37.565 166.145C37.5963 166.208 37.565 166.181 37.565 166.222C37.5186 166.263 37.4675 166.299 37.4127 166.329C37.2917 166.396 37.1707 166.459 37.0543 166.513C36.8432 166.604 36.6242 166.676 36.4002 166.728C36.1797 166.755 35.9612 166.797 35.7461 166.853Z" fill="#263238"/>
<path d="M35.8402 166.952C35.9734 166.768 36.0441 166.547 36.0418 166.32C36.0667 166.075 36.0485 165.828 35.988 165.59C35.9519 165.447 35.9009 165.309 35.8357 165.178C35.8042 165.088 35.7501 165.009 35.6786 164.947C35.6072 164.885 35.5208 164.842 35.428 164.824C35.3695 164.821 35.3116 164.836 35.2615 164.867C35.2113 164.897 35.1711 164.941 35.1458 164.994C35.1062 165.07 35.079 165.151 35.0652 165.236C35.0427 165.384 35.0427 165.535 35.0652 165.684C35.0897 165.934 35.1759 166.174 35.316 166.383C35.558 166.741 35.8268 166.831 35.8312 166.808C35.8357 166.786 35.6341 166.643 35.4504 166.302C35.3454 166.107 35.2842 165.892 35.2712 165.67C35.264 165.541 35.2746 165.412 35.3026 165.285C35.3295 165.146 35.3877 165.034 35.4415 165.052C35.4952 165.07 35.6117 165.164 35.661 165.281C35.7217 165.398 35.7712 165.521 35.8088 165.648C35.8732 165.865 35.9064 166.089 35.9074 166.316C35.8716 166.701 35.7909 166.938 35.8402 166.952Z" fill="#263238"/>
<path d="M62.8187 113.523C62.8187 113.523 42.1121 104.832 35.7057 104.469C31.6737 104.236 28.6452 106.817 29.1918 110.974C29.4651 113.057 35.186 137.406 35.186 137.406L43.9041 133.428L39.7108 116.588L56.7348 124.858L62.8187 113.523Z" fill="#263238"/>
<path d="M37.1078 112.327C37.0406 112.385 37.7261 113.268 38.4518 114.437C39.1776 115.607 39.6614 116.615 39.7421 116.583C39.8227 116.552 39.4509 115.472 38.7117 114.28C37.9725 113.089 37.184 112.273 37.1078 112.327Z" fill="#455A64"/>
<path d="M35.4145 113.295C35.3697 113.371 36.4135 114.034 37.6545 114.939C38.8954 115.844 39.8273 116.637 39.8945 116.574C39.9617 116.512 39.0657 115.584 37.8202 114.688C36.5748 113.792 35.4503 113.223 35.4145 113.295Z" fill="#455A64"/>
<path d="M78.9691 118.747C78.9691 118.747 76.3662 122.102 73.8843 123.021C70.7483 124.172 47.6942 135.054 47.6942 135.054C47.6942 135.054 43.5099 166.141 43.8414 164.842L34.187 164.609L35.2353 135.977C35.3608 132.312 38.2997 128.101 41.4581 126.228L62.8187 113.523L78.9691 118.747Z" fill="#263238"/>
<path d="M35.0517 141.219C35.0824 141.089 35.0959 140.957 35.092 140.824C35.092 140.538 35.1279 140.166 35.1503 139.7C35.2051 138.322 35.3337 136.947 35.5356 135.583C35.8184 133.566 36.5336 131.635 37.6322 129.92C38.312 128.934 39.1507 128.068 40.1141 127.357C41.1596 126.596 42.2535 125.903 43.389 125.283C48.0348 122.622 52.0444 119.907 55.0101 118.048C56.4885 117.107 57.6981 116.359 58.5224 115.848L59.4812 115.257C59.5971 115.193 59.7066 115.118 59.8082 115.033C59.6848 115.078 59.5662 115.135 59.4543 115.203C59.2258 115.324 58.8898 115.503 58.4642 115.745C57.6085 116.225 56.39 116.95 54.8802 117.864C51.8831 119.683 47.8511 122.367 43.2322 125.032C42.0851 125.659 40.9806 126.361 39.926 127.133C38.9384 127.866 38.0812 128.76 37.3903 129.777C36.2851 131.536 35.5801 133.516 35.325 135.578C35.1405 136.952 35.0447 138.336 35.0383 139.722C35.0383 140.17 35.0383 140.56 35.0383 140.851C35.0318 140.974 35.0363 141.097 35.0517 141.219Z" fill="#455A64"/>
<path d="M70.4481 122.022C70.2692 121.744 70.0716 121.479 69.8567 121.229C69.4117 120.582 69.1028 119.851 68.9488 119.081C68.7947 118.311 68.7988 117.517 68.9607 116.749C69.0602 116.433 69.1381 116.112 69.1937 115.786C68.9762 116.045 68.8227 116.352 68.7457 116.682C68.5162 117.477 68.4824 118.316 68.6471 119.128C68.8079 119.939 69.1647 120.699 69.6865 121.341C70.0942 121.856 70.4302 122.049 70.4481 122.022Z" fill="#455A64"/>
<path d="M37.7352 164.609C37.751 164.558 37.7601 164.505 37.7621 164.452C37.7621 164.326 37.7979 164.174 37.8203 163.981C37.8696 163.533 37.9323 162.942 38.013 162.189C38.1698 160.595 38.3938 158.323 38.6715 155.528C38.8014 154.121 38.9493 152.58 39.1195 150.927C39.2898 149.274 39.4466 147.504 39.5675 145.64C39.6885 143.777 39.8856 141.828 40.2261 139.816C40.5586 137.753 41.1611 135.742 42.0181 133.835C42.913 131.952 44.0949 130.218 45.5214 128.697C46.8581 127.282 48.3218 125.992 49.8939 124.844C52.5884 122.947 55.3867 121.201 58.276 119.616C60.7266 118.209 62.6798 117.009 63.9746 116.104C64.6286 115.656 65.1214 115.293 65.453 115.037L65.8248 114.746C65.9084 114.68 65.9487 114.645 65.9458 114.639C65.8959 114.659 65.8491 114.686 65.8069 114.719L65.4171 114.988C65.0766 115.226 64.5704 115.575 63.9118 116.01C62.5947 116.879 60.6325 118.048 58.1685 119.432C55.2556 120.994 52.4373 122.727 49.7282 124.62C48.135 125.771 46.6532 127.068 45.3019 128.495C43.8499 130.037 42.6481 131.797 41.7403 133.71C40.8797 135.64 40.2772 137.675 39.9483 139.763C39.6123 141.779 39.4421 143.736 39.3032 145.587C39.1643 147.437 39.0254 149.22 38.8552 150.873C38.685 152.526 38.5774 154.067 38.4565 155.478C38.219 158.278 38.0085 160.55 37.8965 162.149C37.8367 162.92 37.7919 163.517 37.7621 163.941C37.7621 164.134 37.7397 164.291 37.7307 164.411C37.7218 164.532 37.7262 164.609 37.7352 164.609Z" fill="#455A64"/>
<path d="M60.48 64.2164C60.1549 63.3791 59.542 62.6851 58.7513 62.259C57.9606 61.8329 57.0439 61.7025 56.1658 61.8913C55.7794 62.0326 55.3754 62.12 54.9652 62.1511C54.4679 62.0659 53.9792 61.937 53.5047 61.7658C52.9669 61.6787 52.416 61.7946 51.959 62.091C51.5019 62.3874 51.1714 62.8432 51.0317 63.3697C50.6109 63.2674 50.1728 63.2581 49.7481 63.3425C49.3233 63.4268 48.922 63.6027 48.5722 63.858C48.2291 64.1236 47.9856 64.4971 47.8807 64.9181C47.7759 65.3391 47.8159 65.7831 47.9943 66.1786C48.169 66.5057 48.4423 66.7655 48.617 67.1015C48.8813 67.6526 48.7604 68.3156 48.944 68.8935C49.1164 69.3138 49.4037 69.677 49.7729 69.9416C50.1421 70.2062 50.5783 70.3616 51.0317 70.3898C51.9439 70.4367 52.8565 70.3074 53.7197 70.009" fill="#263238"/>
<path d="M56.3092 81.9349C56.1972 81.0658 56.1255 80.4565 56.1255 80.4565C56.1255 80.4565 53.2359 80.4565 52.0935 76.8725C51.5156 75.0805 51.1303 72.0878 50.8973 69.6149C50.8464 69.0881 50.9027 68.5564 51.0628 68.052C51.2228 67.5475 51.4834 67.0807 51.8288 66.6796C52.1741 66.2786 52.5971 65.9517 53.0723 65.7185C53.5474 65.4854 54.0648 65.3508 54.5933 65.323L62.2631 64.9243L62.4289 66.1115L64.4493 80.8597C64.5224 81.3944 64.489 81.9383 64.3512 82.46C64.2133 82.9818 63.9736 83.4712 63.646 83.9C63.3183 84.3288 62.9091 84.6887 62.4419 84.9588C61.9747 85.2289 61.4587 85.4041 60.9236 85.4741C60.3881 85.5458 59.8436 85.5111 59.3215 85.3719C58.7995 85.2327 58.31 84.9918 57.8813 84.6629C57.4525 84.3341 57.093 83.9238 56.8232 83.4557C56.5534 82.9875 56.3787 82.4707 56.3092 81.9349Z" fill="#B78876"/>
<path d="M51.9682 71.7249C51.9871 71.8474 52.0527 71.9579 52.1512 72.0331C52.2498 72.1082 52.3737 72.1423 52.4968 72.1281C52.5578 72.1243 52.6173 72.1081 52.6718 72.0804C52.7262 72.0527 52.7745 72.0142 52.8135 71.9672C52.8525 71.9202 52.8815 71.8657 52.8987 71.8071C52.9159 71.7485 52.9209 71.687 52.9135 71.6264C52.8968 71.5028 52.8317 71.391 52.7326 71.3154C52.6335 71.2398 52.5084 71.2066 52.3848 71.2232C52.3239 71.227 52.2643 71.2432 52.2099 71.2709C52.1554 71.2986 52.1072 71.3371 52.0682 71.3841C52.0292 71.4311 52.0002 71.4856 51.983 71.5442C51.9658 71.6028 51.9607 71.6643 51.9682 71.7249Z" fill="#263238"/>
<path d="M51.7709 71.062C51.8381 71.1112 52.1517 70.7932 52.6669 70.7125C53.1821 70.6319 53.5629 70.829 53.6301 70.7573C53.6973 70.6856 53.5764 70.6229 53.3972 70.5333C53.1542 70.4141 52.8798 70.3749 52.6132 70.4213C52.3494 70.4607 52.1056 70.585 51.9188 70.7752C51.7709 70.9186 51.7351 71.0396 51.7709 71.062Z" fill="#263238"/>
<path d="M56.7706 70.9095C56.7895 71.0317 56.8553 71.1417 56.954 71.2161C57.0527 71.2906 57.1766 71.3236 57.2993 71.3082C57.3602 71.3049 57.4198 71.2892 57.4745 71.2621C57.5291 71.2349 57.5776 71.1969 57.6171 71.1503C57.6565 71.1038 57.686 71.0497 57.7038 70.9913C57.7215 70.9329 57.7272 70.8715 57.7204 70.8109C57.7015 70.6884 57.6359 70.5779 57.5373 70.5028C57.4388 70.4276 57.3149 70.3935 57.1918 70.4077C57.1304 70.4109 57.0704 70.4267 57.0154 70.4542C56.9604 70.4816 56.9117 70.52 56.8722 70.5671C56.8327 70.6141 56.8033 70.6688 56.7858 70.7277C56.7684 70.7866 56.7632 70.8485 56.7706 70.9095Z" fill="#263238"/>
<path d="M56.7618 70.363C56.829 70.4168 57.1426 70.0942 57.6578 70.0181C58.173 69.9419 58.5538 70.1301 58.621 70.0584C58.6882 69.9867 58.5672 69.9285 58.388 69.8344C58.1439 69.7191 57.8707 69.6801 57.604 69.7224C57.3412 69.7648 57.0983 69.8886 56.9096 70.0763C56.7618 70.2197 56.7304 70.3361 56.7618 70.363Z" fill="#263238"/>
<path d="M55.5207 74.4129C55.2397 74.375 54.9549 74.375 54.6739 74.4129C54.544 74.4129 54.4186 74.4129 54.3827 74.3278C54.3415 74.1981 54.3415 74.0588 54.3827 73.929C54.4544 73.5975 54.5306 73.2481 54.6112 72.8852C54.8299 71.9946 54.9797 71.0884 55.0592 70.1748C54.7657 71.0517 54.5425 71.9505 54.3917 72.8628C54.32 73.2302 54.2483 73.5796 54.1856 73.9156C54.123 74.0816 54.123 74.2648 54.1856 74.4308C54.2118 74.4733 54.2471 74.5093 54.2889 74.5365C54.3308 74.5636 54.3781 74.5811 54.4275 74.5876C54.5019 74.597 54.5772 74.597 54.6515 74.5876C54.9475 74.5664 55.2395 74.5076 55.5207 74.4129Z" fill="#263238"/>
<path d="M56.1255 80.4564C57.8569 80.2079 59.4854 79.4836 60.8295 78.3643C60.8295 78.3643 60.0321 81.0881 56.3092 81.3166L56.1255 80.4564Z" fill="#AA6550"/>
<path d="M57.0663 74.5249C56.9812 74.5249 57.0663 75.0804 56.6631 75.5463C56.2599 76.0122 55.6596 76.0436 55.6641 76.1197C55.6686 76.1959 55.8119 76.2093 56.0628 76.1735C56.3857 76.1301 56.6818 75.9709 56.8961 75.7255C57.1059 75.493 57.2154 75.1871 57.2007 74.8743C57.1873 74.6413 57.1022 74.5159 57.0663 74.5249Z" fill="#263238"/>
<path d="M56.3138 68.4006C56.3855 68.5306 56.8828 68.4006 57.4876 68.3603C58.0924 68.32 58.5986 68.423 58.6568 68.2886C58.7151 68.1542 58.5807 68.1094 58.3656 68.0064C58.0805 67.882 57.7705 67.8249 57.4597 67.8397C57.1489 67.8544 56.8457 67.9406 56.5736 68.0915C56.3765 68.2125 56.2824 68.3379 56.3138 68.4006Z" fill="#263238"/>
<path d="M51.7218 69.5656C51.8293 69.6642 52.1698 69.4895 52.5775 69.4178C52.9852 69.3461 53.366 69.373 53.4287 69.2386C53.4556 69.1759 53.3794 69.0684 53.2092 68.9877C52.98 68.8858 52.7248 68.8576 52.4789 68.9071C52.2336 68.9503 52.008 69.0694 51.8338 69.2476C51.7039 69.3909 51.6725 69.5164 51.7218 69.5656Z" fill="#263238"/>
<path d="M50.4942 67.9975C50.4942 67.9975 52.5237 68.6829 54.8533 67.1239C56.3809 66.1025 58.2357 65.4618 58.6971 65.7396C59.1585 66.0173 59.4587 67.6839 61.1387 67.9796C61.1387 67.9796 61.4344 71.2052 62.7022 70.9274C63.5982 70.7303 63.0785 67.1732 62.7022 65.1437C62.6236 64.7514 62.4159 64.3966 62.1123 64.136C61.8086 63.8754 61.4264 63.7239 61.0267 63.7056L58.6657 63.6116L55.7179 64.4359L52.555 65.296L50.1448 66.304L50.4942 67.9975Z" fill="#263238"/>
<path d="M62.4199 69.6147C62.4647 69.5834 64.4225 68.553 64.7854 70.6899C65.1482 72.8269 62.9306 72.7462 62.9127 72.688C62.8948 72.6298 62.4199 69.6147 62.4199 69.6147Z" fill="#B78876"/>
<path d="M63.4279 71.7652C63.4279 71.7652 63.4727 71.7876 63.5399 71.8055C63.6342 71.8279 63.7336 71.8135 63.8177 71.7652C63.9395 71.6539 64.0301 71.5126 64.0804 71.3554C64.1307 71.1982 64.139 71.0306 64.1044 70.8692C64.0785 70.6855 64.0128 70.5096 63.9117 70.354C63.8792 70.291 63.8322 70.2366 63.7746 70.1954C63.7169 70.1541 63.6503 70.1271 63.5802 70.1165C63.5357 70.1127 63.4913 70.1245 63.4545 70.1499C63.4178 70.1752 63.3909 70.2125 63.3786 70.2554C63.3786 70.3182 63.3786 70.3585 63.3786 70.3674C63.3786 70.3764 63.3293 70.3361 63.3293 70.2465C63.3332 70.1916 63.3552 70.1395 63.3921 70.0986C63.4438 70.0445 63.5144 70.0125 63.5892 70.009C63.6803 70.0107 63.7695 70.036 63.8479 70.0823C63.9264 70.1286 63.9916 70.1944 64.0372 70.2734C64.1598 70.4426 64.2383 70.6396 64.2657 70.8468C64.3101 71.0354 64.2972 71.233 64.2285 71.4142C64.1599 71.5954 64.0386 71.7519 63.8804 71.8638C63.8258 71.8897 63.7661 71.9031 63.7057 71.9031C63.6452 71.9031 63.5855 71.8897 63.5309 71.8638C63.4413 71.819 63.4234 71.7742 63.4279 71.7652Z" fill="#AA6550"/>
<path d="M51.52 62.5812C51.52 62.5812 51.5917 62.6977 51.744 62.8679C51.9622 63.1094 52.2404 63.2887 52.5504 63.3876C53.011 63.5364 53.5032 63.5581 53.9751 63.4503C54.5618 63.3077 55.1381 63.1251 55.6999 62.9038C56.2815 62.6747 56.9028 62.5636 57.5277 62.5767C58.0562 62.5958 58.5563 62.8209 58.921 63.2039C59.1694 63.4539 59.3203 63.7844 59.3466 64.1358C59.3652 64.2632 59.3433 64.3933 59.2839 64.5076C59.2615 64.5076 59.2839 64.3732 59.257 64.1447C59.2011 63.8273 59.0439 63.5366 58.809 63.3159C58.4638 62.9851 58.0058 62.7978 57.5277 62.7918C56.9312 62.7923 56.34 62.9047 55.785 63.1233C55.2138 63.3505 54.625 63.5303 54.0243 63.6609C53.5172 63.7658 52.9908 63.7254 52.5056 63.5444C52.1762 63.4235 51.8896 63.2085 51.6813 62.9262C51.52 62.7201 51.52 62.5857 51.52 62.5812Z" fill="#455A64"/>
<path d="M58.7373 64.6285C58.7373 64.6285 58.6298 64.5165 58.4058 64.3597C58.0863 64.1642 57.7186 64.0618 57.344 64.064C56.7761 64.0619 56.2162 64.1988 55.7133 64.4627C55.0848 64.8022 54.4354 65.1015 53.769 65.3587C53.1367 65.555 52.4709 65.6193 51.8128 65.5476C51.1547 65.4759 50.5183 65.2698 49.9431 64.9421C49.5951 64.7463 49.2768 64.5019 48.9978 64.2163C48.8892 64.1193 48.7982 64.0041 48.729 63.8759C49.1257 64.2264 49.5581 64.5343 50.0192 64.7943C51.1521 65.3888 52.4737 65.5128 53.6973 65.1392C54.3543 64.8735 54.9972 64.5744 55.6237 64.2432C56.1585 63.9726 56.7545 63.846 57.353 63.8759C57.7598 63.8915 58.1514 64.034 58.473 64.2835C58.5905 64.3727 58.6819 64.4918 58.7373 64.6285Z" fill="#455A64"/>
<path d="M52.1026 101.033L41.7 92.167L38.2683 92.942C38.2683 92.942 41.8837 100.459 44.5 103.215C44.5 103.215 47.085 106.673 51.3499 105.177C55.6149 103.681 52.1026 101.033 52.1026 101.033Z" fill="#B78876"/>
<path d="M40.9116 82.4006H36.4898C36.3229 82.4097 36.1602 82.4558 36.0134 82.5357C35.8666 82.6155 35.7395 82.7271 35.6412 82.8623C35.543 82.9974 35.4761 83.1528 35.4454 83.317C35.4147 83.4813 35.421 83.6503 35.4639 83.8118L39.9125 92.4717C39.9969 92.6366 40.1252 92.775 40.2834 92.8714C40.4415 92.9679 40.6233 93.0187 40.8085 93.0182H46.1845C46.3109 93.0041 46.4318 92.959 46.5365 92.8868C46.6412 92.8146 46.7264 92.7177 46.7845 92.6045C46.8426 92.4914 46.8719 92.3657 46.8696 92.2385C46.8673 92.1114 46.8335 91.9868 46.7714 91.8758L42.484 83.3952C42.3381 83.1014 42.1143 82.8532 41.837 82.6778C41.5597 82.5025 41.2396 82.4066 40.9116 82.4006Z" fill="#455A64"/>
<path d="M40.6158 82.9248H36.194C36.0671 82.924 35.9421 82.9559 35.8311 83.0174C35.7201 83.0789 35.6268 83.168 35.5602 83.276C35.4936 83.384 35.4559 83.5074 35.4508 83.6342C35.4457 83.761 35.4733 83.887 35.531 84L39.8721 92.4717C39.9572 92.636 40.0858 92.7738 40.2438 92.8701C40.4017 92.9665 40.5831 93.0177 40.7681 93.0183H46.0993C46.1725 93.0152 46.2438 92.9942 46.307 92.9572C46.3702 92.9202 46.4234 92.8682 46.4619 92.8059C46.5004 92.7435 46.5229 92.6727 46.5277 92.5996C46.5324 92.5265 46.5192 92.4534 46.4891 92.3866L42.1972 83.9104C42.0522 83.6146 41.8271 83.3655 41.5476 83.1912C41.268 83.017 40.9452 82.9247 40.6158 82.9248Z" fill="#263238"/>
<path d="M40.2395 86.4641L37.5515 87.5393L36.978 89.7076L38.2727 92.9332L43.0081 93.6321L41.6193 92.212L41.794 90.971C41.794 90.971 43.138 90.5543 43.138 90.3527C43.138 90.1511 42.9723 89.4568 42.7707 89.4344C42.2403 89.5555 41.7205 89.7187 41.2161 89.9227C41.2161 89.9227 42.8603 88.619 42.8155 88.4084C42.7707 88.1979 42.5915 87.6647 42.2644 87.602C41.9374 87.5393 39.2763 88.7982 39.2763 88.7982L38.8283 89.7793L38.4519 88.2068C38.4519 88.2068 40.8219 87.5438 40.2395 86.4641Z" fill="#B78876"/>
<path d="M40.5801 91.5534C40.5801 91.5534 40.5129 91.4638 40.486 91.2846C40.4577 91.0564 40.4835 90.8248 40.5613 90.6084C40.6392 90.392 40.7668 90.197 40.934 90.0391C41.0684 89.9227 41.1714 89.8823 41.1804 89.8958C40.9759 90.1222 40.8082 90.3791 40.6831 90.6574C40.6034 90.9491 40.5686 91.2512 40.5801 91.5534Z" fill="#AA6550"/>
<path d="M39.2986 91.083C39.3511 90.8514 39.387 90.6163 39.4061 90.3796C39.417 90.1151 39.4622 89.853 39.5405 89.6001C39.5917 89.4377 39.681 89.2899 39.8011 89.1691C39.9211 89.0482 40.0683 88.9579 40.2304 88.9057C40.8711 88.6728 41.4535 88.4846 41.8746 88.3457C42.0997 88.2606 42.3322 88.1961 42.569 88.1531C42.3604 88.2721 42.1396 88.3682 41.9104 88.4398C41.4938 88.6011 40.9114 88.8072 40.2797 89.0356C40.1322 89.0865 39.9976 89.169 39.8855 89.2776C39.786 89.383 39.7097 89.5082 39.6615 89.6449C39.5794 89.8871 39.5268 90.1383 39.5047 90.3931C39.496 90.6369 39.425 90.8744 39.2986 91.083Z" fill="#AA6550"/>
<path d="M38.6805 90.599C38.6381 90.4238 38.6381 90.2411 38.6805 90.0659C38.7298 89.7792 38.797 89.5552 38.8373 89.5596C38.8793 89.7349 38.8793 89.9175 38.8373 90.0928C38.788 90.3795 38.7208 90.6035 38.6805 90.599Z" fill="#AA6550"/>
<path d="M38.6087 84.5601C38.6087 84.6717 38.6418 84.7809 38.7038 84.8737C38.7658 84.9665 38.854 85.0389 38.9571 85.0816C39.0603 85.1243 39.1738 85.1355 39.2833 85.1137C39.3928 85.092 39.4933 85.0382 39.5723 84.9593C39.6512 84.8803 39.705 84.7797 39.7268 84.6702C39.7486 84.5607 39.7374 84.4472 39.6947 84.3441C39.6519 84.2409 39.5796 84.1528 39.4868 84.0908C39.3939 84.0287 39.2848 83.9956 39.1731 83.9956C39.0988 83.995 39.0252 84.0092 38.9564 84.0374C38.8877 84.0655 38.8252 84.1071 38.7727 84.1596C38.7201 84.2122 38.6786 84.2746 38.6504 84.3434C38.6223 84.4121 38.6081 84.4858 38.6087 84.5601Z" fill="#FAFAFA"/>
<path d="M23.1168 169.953C23.8185 170.171 24.4691 170.528 25.0295 171.003C25.5899 171.478 26.0487 172.061 26.3783 172.717C27.0314 174.037 27.3731 175.488 27.3773 176.96C27.4669 179.791 26.2931 182.838 24.9088 185.315C22.2611 183.613 21.2039 180.096 20.7738 178.304C20.1018 175.446 20.617 169.873 23.1168 169.949" fill="#FF725E"/>
<path d="M28.3091 189.526C28.0331 188.752 27.9664 187.919 28.1159 187.111C28.2654 186.303 28.6257 185.549 29.1603 184.925C29.7058 184.311 30.3684 183.813 31.1092 183.458C31.85 183.103 32.6542 182.9 33.4745 182.86C34.2271 182.806 35.0694 182.905 35.5846 183.46C35.811 183.734 35.9603 184.063 36.017 184.413C36.0737 184.764 36.0358 185.123 35.9071 185.454C35.6394 186.113 35.2019 186.69 34.6393 187.125C32.7891 188.702 30.7103 189.885 28.3091 189.526Z" fill="#FF725E"/>
<path d="M26.5438 198.518C26.5235 198.324 26.5235 198.129 26.5438 197.935C26.5438 197.519 26.5797 196.986 26.6021 196.345C26.6196 194.58 26.9222 192.83 27.4981 191.162C28.1003 189.49 29.1362 188.009 30.4997 186.87C30.9134 186.535 31.3644 186.25 31.8437 186.019C32.0139 185.933 32.1573 185.893 32.2469 185.853C32.3365 185.812 32.3902 185.804 32.3947 185.813C31.2894 186.359 30.3037 187.12 29.4946 188.05C28.6856 188.981 28.0694 190.063 27.6817 191.233C27.1211 192.885 26.8086 194.611 26.7544 196.354C26.7096 197.021 26.6693 197.564 26.6334 197.94C26.6195 198.135 26.5896 198.328 26.5438 198.518Z" fill="#263238"/>
<path d="M23.0989 174.232C23.1257 174.312 23.1466 174.395 23.1616 174.478C23.2004 174.663 23.2497 174.901 23.3094 175.19C23.4349 175.809 23.6051 176.709 23.8022 177.82C24.2009 180.06 24.6982 183.129 25.1865 186.543C25.6749 189.956 26.0377 193.057 26.2707 195.306C26.3872 196.43 26.4723 197.34 26.5261 197.971C26.547 198.27 26.5649 198.512 26.5798 198.697C26.5927 198.78 26.5927 198.865 26.5798 198.948C26.5575 198.866 26.5425 198.782 26.535 198.697C26.5126 198.513 26.4813 198.276 26.4409 197.976C26.3603 197.326 26.2528 196.426 26.1184 195.324C25.8496 193.084 25.4598 189.983 24.9805 186.57C24.5011 183.156 24.0173 180.096 23.6589 177.856C23.4797 176.758 23.3363 175.862 23.2109 175.213C23.1661 174.917 23.1302 174.68 23.0989 174.496C23.0872 174.408 23.0872 174.319 23.0989 174.232Z" fill="#263238"/>
<path d="M24.4921 191.816C23.965 190.169 23.0534 188.671 21.8327 187.446C20.6119 186.222 19.1171 185.305 17.4719 184.773C16.6297 184.509 15.5724 184.415 15.0079 185.091C14.4434 185.768 14.7481 186.798 15.1826 187.564C16.1173 189.147 17.5 190.417 19.1562 191.214C20.8123 192.012 22.6675 192.3 24.4876 192.044" fill="#FF725E"/>
<path d="M18.22 187.363C18.4002 187.394 18.5772 187.442 18.7487 187.506C18.9546 187.566 19.1566 187.64 19.3535 187.725C19.5864 187.828 19.8597 187.918 20.1375 188.07C20.4445 188.221 20.7436 188.387 21.0335 188.568C21.3747 188.773 21.7052 188.996 22.0236 189.235C23.4896 190.336 24.6646 191.779 25.4463 193.437C25.6161 193.798 25.7657 194.167 25.8943 194.544C26.0121 194.869 26.1093 195.201 26.1855 195.539C26.2551 195.816 26.3089 196.097 26.3468 196.381C26.3857 196.593 26.4111 196.806 26.4229 197.021C26.4415 197.203 26.4444 197.386 26.4319 197.568C26.3826 197.568 26.3512 196.784 26.0332 195.57C25.9484 195.241 25.8467 194.916 25.7285 194.598C25.6 194.228 25.4504 193.866 25.2805 193.514C24.8832 192.717 24.4011 191.966 23.8424 191.274C23.2679 190.583 22.6222 189.956 21.916 189.401C21.6066 189.162 21.2852 188.939 20.9528 188.733C20.6637 188.546 20.3646 188.374 20.0568 188.218C18.9592 187.622 18.2021 187.403 18.22 187.363Z" fill="#263238"/>
</svg>
