<svg width="410" height="329" viewBox="0 0 390 329" fill="none" xmlns="http://www.w3.org/2000/svg">
<g clip-path="url(#clip0_17_185)">
<rect width="416" height="338" transform="translate(-14 -9)" fill="#C0E2E2"/>
<path d="M376.509 328.752V123.747L395.898 138.051V332.291L386.206 335.652L376.509 328.752Z" fill="#2F2E41"/>
<path d="M-7.89282 124.227L43.2663 112.912L83.6333 130.013V332.618L-7.89282 461.701V124.227Z" fill="#CCCCCC"/>
<path opacity="0.2" d="M43.2664 112.912V289.5L83.6334 294V130.013L43.2664 112.912Z" fill="black"/>
<g opacity="0.1">
<path d="M43.2453 122.459L-7.91504 132.74L-7.85063 133.08L43.3097 122.799L43.2453 122.459Z" fill="black"/>
</g>
<g opacity="0.2">
<path d="M7.37873 130.3H6.67334V326H7.37873V130.3Z" fill="black"/>
</g>
<g opacity="0.2">
<path d="M19.5659 127.83H18.9053V316H19.5659V127.83Z" fill="black"/>
</g>
<g opacity="0.2">
<path d="M32.0307 125.469H31.4362V299H32.0307V125.469Z" fill="black"/>
</g>
<path d="M376.5 159.587H74.7488V298.5H376.5V159.587Z" fill="#CCCCCC"/>
<path opacity="0.1" d="M94.3245 159.587H74.7488V317H94.3245V159.587Z" fill="black"/>
<g opacity="0.1">
<path d="M277.377 172.436H94.3197V172.782H277.377V172.436Z" stroke="black" stroke-miterlimit="10"/>
</g>
<g opacity="0.1">
<path d="M112.371 172.609H112.036V223.174H112.371V172.609Z" stroke="black" stroke-miterlimit="10"/>
</g>
<g opacity="0.1">
<path d="M132.177 172.609H131.842V223.174H132.177V172.609Z" stroke="black" stroke-miterlimit="10"/>
</g>
<g opacity="0.1">
<path d="M152.171 172.609H151.836V223.174H152.171V172.609Z" stroke="black" stroke-miterlimit="10"/>
</g>
<g opacity="0.1">
<path d="M172.169 172.609H171.834V223.174H172.169V172.609Z" stroke="black" stroke-miterlimit="10"/>
</g>
<g opacity="0.1">
<path d="M192.168 172.609H191.833V223.174H192.168V172.609Z" stroke="black" stroke-miterlimit="10"/>
</g>
<g opacity="0.1">
<path d="M211.782 172.609H211.447V223.174H211.782V172.609Z" stroke="black" stroke-miterlimit="10"/>
</g>
<path opacity="0.2" d="M268.339 196.773H224.69V223.174H268.339V196.773Z" fill="black"/>
<path d="M258.339 204.697H236.995V223.174H258.339V204.697Z" fill="#CCCCCC"/>
<path opacity="0.1" d="M104.319 164.096H97.3949V168.046H104.319V164.096Z" stroke="black" stroke-miterlimit="10"/>
<path opacity="0.1" d="M114.895 164.096H107.971V168.046H114.895V164.096Z" stroke="black" stroke-miterlimit="10"/>
<path opacity="0.1" d="M125.471 164.096H118.547V168.046H125.471V164.096Z" stroke="black" stroke-miterlimit="10"/>
<path opacity="0.1" d="M135.806 164.096H128.882V168.046H135.806V164.096Z" stroke="black" stroke-miterlimit="10"/>
<path opacity="0.1" d="M146.19 164.096H139.266V168.046H146.19V164.096Z" stroke="black" stroke-miterlimit="10"/>
<path opacity="0.1" d="M156.766 164.096H149.842V168.046H156.766V164.096Z" stroke="black" stroke-miterlimit="10"/>
<path opacity="0.1" d="M167.342 164.096H160.418V168.046H167.342V164.096Z" stroke="black" stroke-miterlimit="10"/>
<path opacity="0.1" d="M177.149 164.096H170.225V168.046H177.149V164.096Z" stroke="black" stroke-miterlimit="10"/>
<path opacity="0.1" d="M187.917 164.096H180.993V168.046H187.917V164.096Z" stroke="black" stroke-miterlimit="10"/>
<path opacity="0.1" d="M198.252 164.096H191.328V168.046H198.252V164.096Z" stroke="black" stroke-miterlimit="10"/>
<path opacity="0.1" d="M209.02 164.096H202.096V168.046H209.02V164.096Z" stroke="black" stroke-miterlimit="10"/>
<path opacity="0.1" d="M219.212 164.096H212.288V168.046H219.212V164.096Z" stroke="black" stroke-miterlimit="10"/>
<path opacity="0.1" d="M229.98 164.096H223.056V168.046H229.98V164.096Z" stroke="black" stroke-miterlimit="10"/>
<path opacity="0.1" d="M240.455 164.096H233.531V168.046H240.455V164.096Z" stroke="black" stroke-miterlimit="10"/>
<path opacity="0.1" d="M250.983 164.096H244.059V168.046H250.983V164.096Z" stroke="black" stroke-miterlimit="10"/>
<path opacity="0.1" d="M260.79 164.096H253.866V168.046H260.79V164.096Z" stroke="black" stroke-miterlimit="10"/>
<path opacity="0.1" d="M271.798 164.096H264.874V168.046H271.798V164.096Z" stroke="black" stroke-miterlimit="10"/>
<path d="M165.271 140.13H94.3197V159.592H165.271V140.13Z" fill="#CCCCCC"/>
<path opacity="0.2" d="M115.856 140.13H94.3197V159.592H115.856V140.13Z" fill="black"/>
<path opacity="0.1" d="M160.418 145.08H122.011V152.014H160.418V145.08Z" stroke="black" stroke-miterlimit="10"/>
<path d="M67.6182 123.227V74.9642H102.013V9.40741L152.773 16.3368V140.13H94.3197V159.587H83.6333V130.013L67.6182 123.227Z" fill="#CCCCCC"/>
<g opacity="0.1">
<path d="M119.152 140.13L118.989 11.7238L119.325 11.7683L119.488 140.13H119.152Z" fill="black"/>
</g>
<g opacity="0.1">
<path d="M138.353 140.13L138.19 14.347L138.526 14.3916L138.689 140.13H138.353Z" fill="black"/>
</g>
<path d="M73.7831 74.9642V26.0627L102.013 9.40741V74.9642H73.7831Z" fill="#CCCCCC"/>
<path opacity="0.1" d="M73.7831 74.9642V26.0627L102.013 9.40741V74.9642H73.7831Z" fill="white"/>
<path d="M53.2848 117.154V83.4577L67.6182 74.9642V123.227L53.2848 117.154Z" fill="#CCCCCC"/>
<path opacity="0.1" d="M53.2848 117.154V83.4577L67.6182 74.9642V123.227L53.2848 117.154Z" fill="white"/>
<path opacity="0.1" d="M84.2243 83.8289H76.7477V95.589H84.2243V83.8289Z" fill="black"/>
<path opacity="0.1" d="M114.366 52.3101H107.61V64.0703H114.366V52.3101Z" fill="black"/>
<path opacity="0.1" d="M132.217 24.6817H125.461V36.4418H132.217V24.6817Z" fill="black"/>
<path opacity="0.1" d="M132.217 62.4121H125.461V74.1722H132.217V62.4121Z" fill="black"/>
<path opacity="0.1" d="M113.573 83.8289H106.818V95.589H113.573V83.8289Z" fill="black"/>
<path opacity="0.1" d="M150.418 56.5321H142.774V68.2922H150.418V56.5321Z" fill="black"/>
<path opacity="0.1" d="M132.217 100.148H125.615V111.908H132.217V100.148Z" fill="black"/>
<path opacity="0.1" d="M98.6154 96.2819H92.0133V108.042H98.6154V96.2819Z" fill="black"/>
<path opacity="0.1" d="M98.6154 121.901H92.0133V131.958H98.6154V121.901Z" fill="black"/>
<path opacity="0.1" d="M114.799 115.343H107.687V125.4H114.799V115.343Z" fill="black"/>
<path opacity="0.1" d="M148.977 123.574H142.437V134.78H148.977V123.574Z" fill="black"/>
<path opacity="0.1" d="M83.7872 108.042H77.1851V119.802H83.7872V108.042Z" fill="black"/>
<path d="M189.06 159.587L189.358 37.1348L233.694 9.40741H316.711V152.704V296H277.377V159.587H189.06Z" fill="#CCCCCC"/>
<path opacity="0.2" d="M233.531 159.587L233.694 9.40741L189.358 37.1348L189.06 159.587H233.531Z" fill="black"/>
<path d="M200.336 40.0055H200.001V159.587H200.336V40.0055Z" fill="#CCCCCC"/>
<path d="M211.542 34.363H211.207V159.592H211.542V34.363Z" fill="#CCCCCC"/>
<path d="M222.982 27.0922H222.648V159.587H222.982V27.0922Z" fill="#CCCCCC"/>
<path d="M240.282 18.5938H310.618" stroke="#3F3D56" stroke-miterlimit="10"/>
<path opacity="0.1" d="M249.075 25.9488H241.272V45.4748H249.075V25.9488Z" fill="white"/>
<g opacity="0.1">
<path d="M269.276 45.653H261.136V25.7756H269.276V45.653ZM261.472 45.3065H268.939V26.1418H261.472V45.3065Z" stroke="black" stroke-miterlimit="10"/>
</g>
<path opacity="0.2" d="M288.866 25.9488H281.062V45.4748H288.866V25.9488Z" fill="black"/>
<g opacity="0.1">
<path d="M308.787 45.653H300.648V25.7756H308.787V45.653ZM300.984 45.3065H308.451V26.1418H300.984V45.3065Z" stroke="black" stroke-miterlimit="10"/>
</g>
<g opacity="0.1">
<path d="M249.243 78.4834H241.104V58.606H249.243V78.4834ZM241.44 78.1121H248.907V58.9524H241.44V78.1121Z" stroke="black" stroke-miterlimit="10"/>
</g>
<path opacity="0.3" d="M269.107 58.7792H261.304V78.3052H269.107V58.7792Z" fill="white"/>
<g opacity="0.1">
<path d="M289.029 78.4834H280.889V58.606H289.029V78.4834ZM281.23 78.1121H288.717V58.9524H281.23V78.1121Z" stroke="black" stroke-miterlimit="10"/>
</g>
<path opacity="0.2" d="M308.619 58.7792H300.816V78.3052H308.619V58.7792Z" fill="black"/>
<path opacity="0.2" d="M249.075 91.1344H241.272V110.66H249.075V91.1344Z" fill="black"/>
<path opacity="0.3" d="M249.075 123.485H241.272V143.011H249.075V123.485Z" fill="white"/>
<g opacity="0.1">
<path d="M269.276 143.189H261.136V123.311H269.276V143.189ZM261.472 142.842H268.939V123.648H261.472V142.842Z" stroke="black" stroke-miterlimit="10"/>
</g>
<path opacity="0.2" d="M289.202 123.747H281.399V143.273H289.202V123.747Z" fill="black"/>
<g opacity="0.1">
<path d="M308.787 143.189H300.648V123.311H308.787V143.189ZM300.984 142.842H308.451V123.648H300.984V142.842Z" stroke="black" stroke-miterlimit="10"/>
</g>
<path opacity="0.3" d="M289.202 156.226H281.399V175.752H289.202V156.226Z" fill="white"/>
<g opacity="0.1">
<path d="M289.365 208.414H281.23V188.537H289.365V208.414ZM281.567 208.068H289.029V188.883H281.567V208.068Z" stroke="black" stroke-miterlimit="10"/>
</g>
<path opacity="0.2" d="M249.075 156.226H241.272V159.587H249.075V156.226Z" fill="black"/>
<g opacity="0.1">
<path d="M268.944 159.78H260.804V156.152H268.944V159.78ZM261.141 159.433H268.608V156.498H261.141V159.433Z" stroke="black" stroke-miterlimit="10"/>
</g>
<path opacity="0.1" d="M308.619 189.121H300.816V208.647H308.619V189.121Z" fill="white"/>
<g opacity="0.1">
<path d="M309.378 176.004H301.21V156.132H309.378V176.004ZM301.575 175.658H309.042V156.478H301.56L301.575 175.658Z" stroke="black" stroke-miterlimit="10"/>
</g>
<path opacity="0.1" d="M269.107 91.6096H261.304V111.136H269.107V91.6096Z" fill="white"/>
<g opacity="0.1">
<path d="M289.365 110.962H281.23V91.0898H289.365V110.962ZM281.567 110.616H289.029V91.4363H281.567V110.616Z" stroke="black" stroke-miterlimit="10"/>
</g>
<path opacity="0.3" d="M308.619 91.2631H300.816V110.789H308.619V91.2631Z" fill="white"/>
<path d="M316.711 105.473L351.72 98.0538L376.509 108.309V223.174H316.711V105.473Z" fill="#CCCCCC"/>
<path opacity="0.1" d="M316.711 105.473L351.72 98.0538L376.509 108.309L376.509 333H316.711L316.711 105.473Z" fill="white"/>
<path opacity="0.2" d="M351.763 322L351.763 98.0538L376.509 108.309V322H351.763Z" fill="black"/>
<path d="M357.912 111.136H357.578V223.174H357.912V111.136Z" fill="#CCCCCC"/>
<path d="M365.413 114.11H365.078V312.5L365.413 223.174V114.11Z" fill="#CCCCCC"/>
<path d="M373.106 118.08H372.771V223.174H373.106V118.08Z" fill="#CCCCCC"/>
<path opacity="0.3" d="M339.674 114.803V131.216L345.824 129.434V113.11L339.674 114.803Z" fill="white"/>
<path opacity="0.3" d="M322.751 133.854V149.237L328.906 147.851V132.602L322.751 133.854Z" fill="white"/>
<path opacity="0.3" d="M337.901 162.626V177.435L343.614 176.098V161.418L337.901 162.626Z" fill="white"/>
<path opacity="0.3" d="M322.299 178.568V194.991L328.012 193.511V177.227L322.299 178.568Z" fill="white"/>
<path opacity="0.3" d="M338.122 199.5V212.106L342.941 210.973V198.475L338.122 199.5Z" fill="white"/>
<path d="M344.671 47.4348V99.7961L351.763 98.0539L376.509 108.309V123.747L395.898 138.051V48.6227L357.746 41.7874L344.671 47.4348Z" fill="#CCCCCC"/>
<g opacity="0.2">
<path d="M395.869 51.3697L357.573 44.2473L344.739 49.771L344.609 49.4542L357.534 43.886L357.587 43.8959L395.926 51.0282L395.869 51.3697Z" fill="black"/>
</g>
<g opacity="0.2">
<path d="M357.912 41.7874H357.578V100.534H357.912V41.7874Z" fill="black"/>
</g>
<g opacity="0.2">
<path d="M357.746 54.2366L357.693 54.5787L395.845 60.8665L395.898 60.5243L357.746 54.2366Z" fill="black"/>
</g>
<g opacity="0.2">
<path d="M357.741 66.1164L357.688 66.4585L395.839 72.7462L395.893 72.4041L357.741 66.1164Z" fill="black"/>
</g>
<g opacity="0.2">
<path d="M357.744 77.6501L357.691 77.9922L395.843 84.28L395.896 83.9379L357.744 77.6501Z" fill="black"/>
</g>
<g opacity="0.2">
<path d="M357.801 88.8699L357.746 89.2116L395.898 95.774L395.953 95.4323L357.801 88.8699Z" fill="black"/>
</g>
<g opacity="0.2">
<path d="M361.096 100.472L361.042 100.815L397.257 106.844L397.311 106.501L361.096 100.472Z" fill="black"/>
</g>
<g opacity="0.2">
<path d="M375.617 113.363L375.563 113.706L394.705 116.892L394.759 116.549L375.617 113.363Z" fill="black"/>
</g>
<g opacity="0.2">
<path d="M382.63 128.138L382.583 128.481L395.874 130.417L395.921 130.074L382.63 128.138Z" fill="black"/>
</g>
<path d="M326.243 266.154C320.957 271.223 319.401 269.406 318.949 268.065C318.826 267.689 318.764 267.294 318.766 266.897C318.68 259.002 315.975 259.022 315.975 259.022C309.396 258.527 305.625 266.535 304.442 269.515C304.22 270.101 304.046 270.705 303.924 271.322C303.121 275.093 300.291 274.474 300.291 274.474C289.624 272.198 291.065 286.215 291.065 286.215H326.233L326.243 266.154Z" fill="white"/>
<path d="M299.147 286.215C296.36 276.37 300.397 278.434 300.397 278.434C300.397 278.434 304.904 281.008 305.879 277.444C305.879 277.444 308.089 269.03 312.707 270.02C312.707 270.02 314.629 270.084 314.245 275.153C314.245 275.153 313.476 279.429 318.089 277.35C318.089 277.35 323.725 273.885 326.257 274.38V286.22L299.147 286.215Z" fill="#CCCCCC"/>
<g opacity="0.1">
<path d="M73.7831 35.9073V35.5163L102.013 20.3113V20.7023L73.7831 35.9073Z" fill="black"/>
</g>
<g opacity="0.1">
<path d="M73.7831 45.9648V45.5737L102.013 30.3638V30.7548L73.7831 45.9648Z" fill="black"/>
</g>
<g opacity="0.1">
<path d="M73.7831 57.5913V57.2003L102.013 41.9903V42.3813L73.7831 57.5913Z" fill="black"/>
</g>
<g opacity="0.1">
<path d="M73.7831 69.3069V68.9158L102.013 53.7059V54.0969L73.7831 69.3069Z" fill="black"/>
</g>
<g opacity="0.1">
<path d="M53.2848 90.4068V90.0208L67.6182 82.8934V83.2795L53.2848 90.4068Z" fill="black"/>
</g>
<g opacity="0.1">
<path d="M53.2848 97.0293V96.6432L67.6182 89.5159V89.897L53.2848 97.0293Z" fill="black"/>
</g>
<g opacity="0.1">
<path d="M53.2848 103.904V103.518L67.6182 96.3859V96.7719L53.2848 103.904Z" fill="black"/>
</g>
<g opacity="0.1">
<path d="M53.2848 111.032V110.65L67.6182 103.518V103.904L53.2848 111.032Z" fill="black"/>
</g>
<g opacity="0.1">
<path d="M54.5485 117.694L54.1305 117.516L67.6182 110.804V111.19L54.5485 117.694Z" fill="black"/>
</g>
<path d="M30.0558 283.828C30.0558 283.828 29.0948 275.552 35.1491 276.839C35.1491 276.839 36.7876 277.73 37.5516 275.057C37.5516 275.057 40.3386 266.44 44.4709 267.034C44.4709 267.034 46.6572 266.227 46.8734 272.503C46.8746 272.775 46.9484 273.042 47.0866 273.273C47.2248 273.505 47.4222 273.693 47.6573 273.818C47.8923 273.942 48.1559 273.997 48.4193 273.977C48.6827 273.957 48.9358 273.864 49.151 273.706L49.199 273.671C49.9497 272.728 50.8477 271.92 51.8562 271.28C52.6674 270.793 53.6268 270.638 54.5438 270.846C55.4608 271.055 56.2682 271.611 56.8054 272.404C57.3824 273.276 57.8415 274.225 58.17 275.225C58.2811 275.566 58.4563 275.88 58.6856 276.151C58.9148 276.421 59.1937 276.643 59.5061 276.802C59.8185 276.962 60.1583 277.056 60.5062 277.081C60.8541 277.105 61.2032 277.058 61.5335 276.943H61.596C61.596 276.943 65.9205 273.775 69.8078 276.745V283.833L30.0558 283.828Z" fill="white"/>
<path d="M69.7933 283.828C66.6557 275.666 59.6595 280.6 59.6595 280.6C56.6756 281.991 56.1951 280.798 56.1951 280.798C55.4768 279.578 54.5971 278.467 53.5812 277.497C53.4232 277.333 53.2512 277.184 53.067 277.052C50.6645 275.354 47.5365 277.443 46.6427 278.126C46.3639 278.341 46.0644 278.527 45.749 278.68C44.1585 279.432 44.0816 278.324 44.0816 278.324C44.4661 275.057 43.4089 274.265 43.4089 274.265C40.7902 273.572 39.6899 276.532 39.3247 277.883C39.1697 278.473 38.8323 278.994 38.3637 279.368C38.0601 279.655 37.6658 279.818 37.254 279.828C36.8422 279.838 36.4409 279.694 36.1245 279.422C35.883 279.216 35.578 279.106 35.2644 279.111C33.2751 279.195 34.6446 283.818 34.6446 283.818L69.7933 283.828Z" fill="#CCCCCC"/>
<path d="M376.452 113.274L351.288 103.686L316.744 111.304L316.677 110.967L351.312 103.33L351.355 103.345L376.572 112.947L376.452 113.274Z" fill="#CCCCCC"/>
<path d="M73.5908 289.092C70.5298 287.422 67.9711 284.92 66.1923 281.858C64.4135 278.797 63.4825 275.292 63.5002 271.724C63.5002 262.513 69.5401 254.806 77.6558 252.757C76.0597 252.377 74.4265 252.188 72.7883 252.193C61.5157 252.193 52.3766 260.929 52.3766 271.714C52.3766 280.341 58.2435 287.661 66.3736 290.235C66.3736 290.235 73.5812 294.195 84.3012 291.067C84.3156 291.067 78.1652 291.354 73.5908 289.092Z" fill="#3F3D56"/>
<path d="M376.284 267.576H366.092L350.932 244.14L325.254 247.837L325.369 237.671L341.116 232.944L364.333 237.156L376.284 267.576Z" fill="#2F2E41"/>
<path opacity="0.4" d="M376.284 267.576H366.092L350.932 244.14L325.254 247.837L325.369 237.671L341.116 232.944L364.333 237.156L376.284 267.576Z" fill="black"/>
<path d="M181.267 268.927H176.447L156.252 240.72L132.154 246.219L130.189 233.295L140.52 228.192L173.257 230.479L181.267 268.927Z" fill="#2F2E41"/>
<path opacity="0.4" d="M181.267 268.927H176.447L156.252 240.72L132.154 246.219L130.189 233.295L140.52 228.192L173.257 230.479L181.267 268.927Z" fill="black"/>
<path d="M326.965 245.407C326.965 245.407 332.471 240.903 336.325 240.819L349.779 241.235C349.779 241.235 335.162 240.665 331.938 261.646C331.938 261.646 329.8 275.763 339.991 285.439C339.991 285.439 343.403 288.448 347.492 289.082C347.492 289.082 341.428 290.072 336.315 289.607C334.227 289.413 332.214 288.708 330.444 287.552C326.974 285.291 321.429 280.232 320.199 270.506C320.199 270.506 322.996 269.066 323.63 261.221C323.62 261.206 325.658 247.798 326.965 245.407Z" fill="#3F3D56"/>
<path d="M349.769 289.265C359.737 289.265 367.817 278.509 367.817 265.24C367.817 251.971 359.737 241.215 349.769 241.215C339.802 241.215 331.722 251.971 331.722 265.24C331.722 278.509 339.802 289.265 349.769 289.265Z" fill="#2F2E41"/>
<path d="M272.461 289.072C260.074 286.597 257.532 271.051 257.532 271.051H246.48C247.532 274.146 248.809 277.156 250.3 280.054C251.644 282.766 253.616 285.096 256.042 286.835C257.854 288.09 259.876 288.99 262.006 289.488C262.006 289.488 270.616 292.349 278.064 288.919C276.217 289.288 274.324 289.34 272.461 289.072Z" fill="#3F3D56"/>
<path d="M257.532 271.051C257.532 271.051 259.709 285.37 270.582 288.641C273.015 289.344 275.575 289.438 278.05 288.916C280.525 288.393 282.842 287.269 284.81 285.637C288.025 283.004 291.537 278.5 292.537 271.051H257.532Z" fill="#2F2E41"/>
<path opacity="0.2" d="M257.532 271.051C257.532 271.051 259.709 285.37 270.582 288.641C273.015 289.344 275.575 289.438 278.05 288.916C280.525 288.393 282.842 287.269 284.81 285.637C288.025 283.004 291.537 278.5 292.537 271.051H257.532Z" fill="black"/>
<path d="M275.08 279.257C279.607 279.257 283.277 276.048 283.277 272.09C283.277 268.132 279.607 264.923 275.08 264.923C270.553 264.923 266.883 268.132 266.883 272.09C266.883 276.048 270.553 279.257 275.08 279.257Z" fill="#3F3D56"/>
<path d="M120.286 209.538V204.86C120.285 204.451 120.368 204.047 120.529 203.673C120.69 203.3 120.925 202.965 121.219 202.691C121.514 202.417 121.861 202.21 122.238 202.083C122.616 201.956 123.015 201.913 123.409 201.955L128.479 202.494C127.244 203.702 125.898 204.969 124.433 206.207C122.967 207.444 121.622 208.533 120.286 209.538Z" fill="#2F2E41"/>
<path d="M100.422 271.724C100.422 282.494 92.1575 291.22 81.9756 291.22C80.5062 291.223 79.0422 291.036 77.6175 290.666C69.5258 288.607 63.5195 280.91 63.5195 271.724C63.5195 262.537 69.5594 254.811 77.6751 252.757C79.0899 252.396 80.5422 252.215 81.9997 252.218C92.1575 252.218 100.422 260.954 100.422 271.724Z" fill="#2F2E41"/>
<path d="M82.0718 279.252C87.6738 279.252 92.2152 274.882 92.2152 269.492C92.2152 264.101 87.6738 259.731 82.0718 259.731C76.4697 259.731 71.9283 264.101 71.9283 269.492C71.9283 274.882 76.4697 279.252 82.0718 279.252Z" fill="#3F3D56"/>
<path d="M176.193 270.115C176.193 270.115 180.238 255.192 169.466 243.308C169.466 243.308 164.219 236.151 153.431 237.572C153.431 237.572 146.387 236.706 143.389 237.384C143.389 237.384 136.412 237.75 132.558 245.239L126.485 270.115C126.485 270.115 128.498 289.201 145.104 291.225L159.37 290.7C159.37 290.7 173.478 288.275 176.193 270.115Z" fill="#3F3D56"/>
<path d="M156.857 290.7C167.944 290.7 176.933 278.781 176.933 264.077C176.933 249.373 167.944 237.453 156.857 237.453C145.77 237.453 136.782 249.373 136.782 264.077C136.782 278.781 145.77 290.7 156.857 290.7Z" fill="#2F2E41"/>
<path opacity="0.2" d="M171.282 264.562C171.282 275.223 164.862 283.865 156.953 283.865C155.735 283.866 154.526 283.658 153.373 283.251C153.349 283.251 153.34 283.251 153.325 283.251C147.175 281.078 142.644 273.535 142.644 264.562C142.644 253.896 149.059 245.259 156.968 245.259C157.692 245.256 158.416 245.333 159.125 245.486H159.149C166.011 246.892 171.282 254.9 171.282 264.562Z" fill="black"/>
<path d="M169.879 264.171C169.879 274.847 163.464 283.474 155.555 283.474C154.822 283.478 154.091 283.403 153.373 283.251C153.349 283.251 153.34 283.251 153.325 283.251C147.175 281.078 142.644 273.535 142.644 264.562C142.644 253.896 149.059 245.259 156.968 245.259C157.692 245.256 158.416 245.333 159.125 245.486H159.149C165.324 247.615 169.879 255.172 169.879 264.171Z" fill="#3F3D56"/>
<path d="M150.952 256.024C150.952 256.024 154.344 259.384 151.701 262.597C151.701 262.597 148.381 266.284 145.556 264.037C145.294 263.814 145.079 263.538 144.924 263.226C144.769 262.915 144.676 262.575 144.652 262.226C144.508 260.741 144.46 257.989 145.733 255.89C146.039 255.416 146.483 255.054 147.001 254.857C147.519 254.659 148.085 254.637 148.616 254.791C149.484 254.99 150.288 255.414 150.952 256.024Z" fill="#2F2E41"/>
<path d="M154.311 251.614C154.311 251.614 152.917 247.654 155.786 247.159C155.786 247.159 162.099 246.06 162.513 250.03C162.513 250.03 162.287 253.495 160.408 255.257C160.022 255.588 159.554 255.804 159.057 255.88C158.559 255.956 158.051 255.889 157.588 255.687C156.43 255.197 154.93 254.113 154.311 251.614Z" fill="#2F2E41"/>
<path d="M163.354 260.914C163.059 260.616 162.833 260.255 162.691 259.856C162.549 259.457 162.495 259.031 162.532 258.607C162.638 256.895 163.152 253.846 165.463 254.153C165.463 254.153 167.673 254.648 168.346 258.464C168.346 258.464 169.249 261.929 166.707 262.008C165.493 262.116 164.287 261.722 163.354 260.914Z" fill="#2F2E41"/>
<path d="M163.575 272.813C163.575 272.813 161.172 268.091 165.497 265.636C165.497 265.636 168.221 264.032 168.476 265.636C168.476 265.636 169.389 270.09 166.434 273.491C166.443 273.491 164.968 275.104 163.575 272.813Z" fill="#2F2E41"/>
<path d="M146.632 274.738C145.881 273.896 145.436 272.811 145.373 271.669C145.33 270.467 145.685 268.972 147.507 268.338C147.507 268.338 152.014 266.566 153.244 269.482C153.244 269.482 154.008 271.956 153.09 274.035C151.956 276.574 148.689 276.951 146.805 274.936L146.632 274.738Z" fill="#2F2E41"/>
<path d="M156.857 273.59C156.065 274.22 155.405 275.009 154.917 275.909C154.429 276.809 154.123 277.801 154.017 278.826C153.957 279.295 154.038 279.772 154.248 280.192C154.666 280.979 155.69 281.979 158.241 281.677C158.241 281.677 162.085 281.677 162.902 278.554C163.181 278.618 162.489 274.886 160.221 273.362C159.706 273.036 159.106 272.883 158.504 272.924C157.901 272.964 157.326 273.197 156.857 273.59Z" fill="#2F2E41"/>
<path d="M158.452 270.368C160.912 270.368 162.907 267.702 162.907 264.413C162.907 261.125 160.912 258.459 158.452 258.459C155.992 258.459 153.998 261.125 153.998 264.413C153.998 267.702 155.992 270.368 158.452 270.368Z" fill="#2F2E41"/>
<path d="M158.645 268.927C160.462 268.927 161.936 266.869 161.936 264.329C161.936 261.79 160.462 259.731 158.645 259.731C156.827 259.731 155.353 261.79 155.353 264.329C155.353 266.869 156.827 268.927 158.645 268.927Z" fill="#3F3D56"/>
<path d="M29.0194 248.164L36.9573 229.158C36.9573 229.158 38.1442 225.069 44.4964 224.456L120.286 209.538C120.286 209.538 126.052 205.043 129.416 201.569C129.416 201.569 149.654 181.949 156.992 171.936C156.992 171.936 159.572 167.437 164.733 167.64C164.733 167.64 304.006 165.19 318.69 168.05C318.69 168.05 322.261 168.253 324.048 171.322L346.108 202.687C346.992 203.945 347.809 205.246 348.611 206.558C349.272 207.656 350.179 208.574 351.256 209.235C352.333 209.895 353.549 210.279 354.8 210.354L378.042 214.116C379.164 214.283 380.232 214.719 381.161 215.388C381.947 215.963 382.604 216.705 383.087 217.564C383.57 218.423 383.869 219.379 383.962 220.367C383.962 220.367 386.542 231.608 386.542 235.082C386.542 235.082 386.345 239.171 388.724 241.215C388.724 241.215 392.496 246.12 389.718 251.841L383.76 264.101C383.76 264.101 383.361 269.006 375.428 267.566C375.428 267.566 369.278 249.382 366.698 246.313C366.698 246.313 360.931 236.711 354.594 237.319H341.572C338.23 237.297 334.94 238.165 332.02 239.839C329.439 241.324 326.994 243.615 326.633 246.927C325.181 252.198 324.25 257.607 323.856 263.072C323.856 263.072 323.462 270.635 318.301 271.041H186.533C186.533 271.041 180.738 271.209 179.522 265.497L174.357 244.353C174.357 244.353 172.392 234.978 161.446 232.825H146.07C146.07 232.825 137.358 233.078 132.553 245.239C132.553 245.239 135.134 246.001 134.274 248.025L127.513 269.056C127.318 269.443 127.027 269.769 126.67 270.003C126.313 270.237 125.903 270.369 125.48 270.387H43.4633C42.603 270.434 41.7453 270.256 40.9704 269.868C40.1955 269.48 39.5289 268.896 39.0331 268.17L29.0338 253.643C28.5693 252.98 28.1716 252.271 27.847 251.525C27.1935 249.995 26.6938 247.882 29.0194 248.164Z" fill="#2F2E41"/>
<path opacity="0.2" d="M30.6868 256.024H131.693L134.264 248.025C134.264 248.025 135.316 245.887 132.544 245.239H30.2399L29.0194 248.164C29.0194 248.164 26.1364 247.446 27.871 251.574L30.6868 256.024Z" fill="black"/>
<path d="M40.1334 228.578H49.3687L44.0303 241.799H31.6814L36.0588 231.34C36.4016 230.52 36.9702 229.821 37.6944 229.331C38.4186 228.84 39.2665 228.578 40.1334 228.578Z" fill="white"/>
<path d="M49.3687 228.564L48.8162 229.935L96.2946 229.252L96.607 228.564H49.3687Z" fill="#CCCCCC"/>
<path d="M47.264 233.776L94.4542 233.29L95.4873 231.029L48.1097 231.672L47.264 233.776Z" fill="#CCCCCC"/>
<path d="M45.7313 237.572L46.4761 235.731L93.9065 234.498L93.1137 236.245L45.7313 237.572Z" fill="#CCCCCC"/>
<path d="M45.0249 239.324L92.2151 238.21L91.2204 240.403L44.0303 241.784L45.0249 239.324Z" fill="#CCCCCC"/>
<path d="M43.4729 243.209L90.3988 242.259L89.5531 244.358H43.0212L43.4729 243.209Z" fill="#CCCCCC"/>
<path opacity="0.2" d="M362.676 265.24C362.676 274.847 356.91 282.642 349.769 282.642C348.672 282.642 347.583 282.455 346.545 282.088C346.545 282.088 346.512 282.088 346.502 282.088C340.962 280.108 336.892 273.332 336.892 265.26C336.892 255.658 342.658 247.857 349.793 247.857C350.447 247.854 351.099 247.922 351.739 248.06C357.909 249.322 362.676 256.539 362.676 265.24Z" fill="black"/>
<path d="M361.412 264.888C361.412 274.505 355.646 282.291 348.51 282.291C347.85 282.294 347.192 282.226 346.545 282.088C346.545 282.088 346.512 282.088 346.502 282.088C340.962 280.108 336.892 273.332 336.892 265.26C336.892 255.658 342.658 247.857 349.793 247.857C350.447 247.854 351.099 247.922 351.739 248.06C357.308 249.98 361.412 256.791 361.412 264.888Z" fill="#3F3D56"/>
<path d="M344.364 257.553C344.364 257.553 347.42 260.582 345.041 263.493C345.041 263.493 342.053 266.814 339.506 264.789C339.27 264.589 339.076 264.34 338.936 264.059C338.796 263.778 338.714 263.471 338.694 263.156C338.559 261.825 338.516 259.34 339.655 257.449C339.932 257.02 340.335 256.693 340.805 256.515C341.275 256.337 341.787 256.317 342.269 256.459C343.046 256.634 343.767 257.011 344.364 257.553Z" fill="#2F2E41"/>
<path d="M347.391 253.584C347.391 253.584 346.132 250.005 348.717 249.55C348.717 249.55 354.406 248.56 354.776 252.138C354.776 252.138 354.57 255.276 352.854 256.84C352.507 257.141 352.085 257.336 351.637 257.405C351.188 257.474 350.73 257.414 350.312 257.232C349.571 256.919 348.916 256.422 348.406 255.786C347.897 255.149 347.548 254.393 347.391 253.584Z" fill="#2F2E41"/>
<path d="M355.535 261.958C355.27 261.691 355.066 261.366 354.938 261.007C354.81 260.649 354.762 260.265 354.795 259.884C354.892 258.335 355.353 255.588 357.433 255.865C357.433 255.865 359.428 256.321 360.019 259.746C360.019 259.746 360.831 262.864 358.543 262.938C357.455 263.032 356.374 262.68 355.535 261.958Z" fill="#2F2E41"/>
<path d="M355.732 272.679C355.732 272.679 353.551 268.422 357.472 266.21C357.472 266.21 359.927 264.765 360.158 266.21C360.158 266.21 360.979 270.244 358.317 273.283C358.317 273.283 356.991 274.728 355.732 272.679Z" fill="#2F2E41"/>
<path d="M340.472 274.411C339.796 273.651 339.397 272.674 339.342 271.645C339.268 270.991 339.42 270.332 339.771 269.783C340.123 269.234 340.652 268.831 341.264 268.645C341.264 268.645 345.325 267.051 346.435 269.675C346.435 269.675 347.122 271.917 346.295 273.778C345.272 276.065 342.331 276.401 340.635 274.59L340.472 274.411Z" fill="#2F2E41"/>
<path d="M349.683 273.377C348.969 273.944 348.374 274.654 347.934 275.465C347.495 276.276 347.22 277.17 347.127 278.094C347.071 278.515 347.143 278.944 347.333 279.321C347.708 280.034 348.635 280.93 350.927 280.663C350.927 280.663 354.377 280.663 355.127 277.851C355.377 277.911 354.757 274.55 352.724 273.174C352.26 272.877 351.717 272.737 351.172 272.774C350.627 272.81 350.106 273.021 349.683 273.377Z" fill="#2F2E41"/>
<path d="M351.12 270.472C353.335 270.472 355.132 268.069 355.132 265.106C355.132 262.143 353.335 259.741 351.12 259.741C348.904 259.741 347.107 262.143 347.107 265.106C347.107 268.069 348.904 270.472 351.12 270.472Z" fill="#2F2E41"/>
<path d="M351.293 269.175C352.93 269.175 354.257 267.32 354.257 265.032C354.257 262.744 352.93 260.889 351.293 260.889C349.655 260.889 348.328 262.744 348.328 265.032C348.328 267.32 349.655 269.175 351.293 269.175Z" fill="#3F3D56"/>
<g opacity="0.4">
<path d="M206.229 271.056L203.447 222.664C203.326 220.089 203.746 217.517 204.68 215.125C205.614 212.733 207.039 210.577 208.857 208.805L208.972 208.934C207.173 210.685 205.763 212.817 204.838 215.183C203.913 217.548 203.496 220.092 203.615 222.639L206.397 271.041L206.229 271.056Z" fill="black"/>
</g>
<path d="M207.656 212.497H213.388V216.017H207.656C207.466 216.017 207.284 215.939 207.15 215.801C207.015 215.662 206.94 215.475 206.94 215.279V213.235C206.94 213.138 206.958 213.042 206.994 212.953C207.03 212.863 207.083 212.782 207.15 212.713C207.216 212.645 207.295 212.591 207.382 212.554C207.469 212.517 207.562 212.497 207.656 212.497Z" fill="#2F2E41"/>
<path opacity="0.2" d="M207.656 212.497H213.388V216.017H207.656C207.466 216.017 207.284 215.939 207.15 215.801C207.015 215.662 206.94 215.475 206.94 215.279V213.235C206.94 213.138 206.958 213.042 206.994 212.953C207.03 212.863 207.083 212.782 207.15 212.713C207.216 212.645 207.295 212.591 207.382 212.554C207.469 212.517 207.562 212.497 207.656 212.497Z" fill="black"/>
<path d="M234.17 171.965C234.17 171.965 206.988 208.716 209.016 210.607C209.016 210.607 209.919 212.092 215.743 211.923L336.882 210.607C336.882 210.607 340.87 210.542 339.636 206.855L318.777 173.93C318.353 173.311 317.78 172.814 317.114 172.49C316.39 172.129 315.593 171.949 314.789 171.965H234.17Z" fill="#3F3D56"/>
<path opacity="0.2" d="M280.068 174.173L289.087 201.955H334.182L315.836 175.024C315.656 174.761 315.417 174.546 315.139 174.398C314.862 174.25 314.554 174.173 314.241 174.173H280.068Z" fill="white"/>
<path opacity="0.2" d="M218.799 202.346L220.346 195.689L236.443 173.416L272.082 174.173L284.003 209.186L237.755 209.82V203.831C237.755 203.437 237.603 203.059 237.332 202.781C237.062 202.502 236.695 202.346 236.313 202.346H218.799Z" fill="white"/>
<path d="M291.677 209.186L289.101 201.955H334.196C334.196 201.955 339.386 207.706 335.383 209.186H291.677Z" fill="#2F2E41"/>
<path d="M224.161 202.356L226.453 187.25L220.346 195.699L218.799 202.356H224.161Z" fill="#2F2E41"/>
<path d="M268.656 174.173L280.082 201.346H273.566L270.592 209.369L284.003 209.186L272.082 174.173H268.656Z" fill="#2F2E41"/>
<g opacity="0.4">
<path d="M286.89 211.151H286.723V245.239H286.89V211.151Z" fill="black"/>
</g>
<g opacity="0.4">
<path d="M284.81 271.234L284.647 271.209L286.723 255.885L286.891 255.91L284.81 271.234Z" fill="black"/>
</g>
<g opacity="0.4">
<path d="M324.005 245.278L323.856 245.199C323.981 244.957 326.95 239.26 330.463 238.522C330.535 238.522 338.795 235.488 338.54 230.365C338.54 230.222 339.314 217.051 337.464 210.567L337.627 210.518C339.487 217.051 338.718 230.256 338.708 230.385C338.968 235.627 330.592 238.681 330.511 238.71C327.061 239.423 324.038 245.224 324.005 245.278Z" fill="black"/>
</g>
<path opacity="0.4" d="M336.666 218.491H324.135C324.023 218.491 323.933 218.584 323.933 218.699V221.407C323.933 221.521 324.023 221.614 324.135 221.614H336.666C336.778 221.614 336.868 221.521 336.868 221.407V218.699C336.868 218.584 336.778 218.491 336.666 218.491Z" fill="black"/>
<path opacity="0.4" d="M334.48 224.678C334.888 224.678 335.22 224.337 335.22 223.916C335.22 223.495 334.888 223.154 334.48 223.154C334.071 223.154 333.74 223.495 333.74 223.916C333.74 224.337 334.071 224.678 334.48 224.678Z" fill="black"/>
<path opacity="0.4" d="M282.946 220.065H270.414C270.303 220.065 270.213 220.158 270.213 220.273V222.981C270.213 223.095 270.303 223.188 270.414 223.188H282.946C283.057 223.188 283.148 223.095 283.148 222.981V220.273C283.148 220.158 283.057 220.065 282.946 220.065Z" fill="black"/>
<path opacity="0.4" d="M280.759 226.247C281.168 226.247 281.499 225.906 281.499 225.485C281.499 225.064 281.168 224.723 280.759 224.723C280.351 224.723 280.02 225.064 280.02 225.485C280.02 225.906 280.351 226.247 280.759 226.247Z" fill="black"/>
<path d="M121.064 228.579C121.064 228.579 186.922 218.744 226.448 218.506C226.448 218.506 321.487 214.294 347.107 216.031L345.945 212.517C345.945 212.517 223.248 212.883 198.007 217.496C198.007 217.496 140.789 222.693 120.003 227.707C120.404 227.931 120.763 228.226 121.064 228.579Z" fill="#3F3D56"/>
<path opacity="0.2" d="M318.287 271.051C318.287 271.051 320.531 266.413 320.757 255.9C320.757 255.9 320.454 235.28 331.361 234.152L349.769 233.216C349.769 233.216 362.435 233.389 366.107 245.392C366.107 245.392 360.931 236.384 354.608 237.329H341.572C338.168 237.298 334.818 238.207 331.871 239.962C329.824 241.21 327.873 242.962 326.965 245.372C325.515 250.875 324.501 256.49 323.933 262.161C323.933 262.161 323.933 270.472 318.287 271.051Z" fill="white"/>
<path opacity="0.2" d="M101.321 228.579L193.539 214.269C193.539 214.269 196.941 213.809 199.497 209.815L226.463 171.961C226.463 171.961 228.836 167.753 237.769 166.759L164.733 167.635C164.733 167.635 159.668 167.244 156.992 171.931C156.992 171.931 134.716 198.787 120.291 209.547L45.1499 224.327C45.1499 224.327 38.2787 224.129 36.5249 230.187C36.5249 230.187 38.1106 228.564 40.1335 228.564L101.321 228.579Z" fill="black"/>
<path d="M130.189 245.239C130.189 245.239 131.804 230.796 142.259 230.479H162.21C164.974 230.437 167.684 231.274 169.97 232.875C172.594 234.775 175.006 238.077 174.174 243.694C173.075 240.592 171.105 237.895 168.514 235.948C165.679 233.869 162.274 232.775 158.794 232.825H146.07C146.07 232.825 137.142 233.078 132.544 245.239H130.189Z" fill="#3F3D56"/>
<g opacity="0.4">
<path d="M319.584 270.759L319.469 270.65C322.77 266.591 321.674 256.019 321.665 255.91H321.828C321.828 255.994 322.928 266.641 319.584 270.759Z" fill="black"/>
</g>
<path d="M366.078 245.407L390.468 245.254C390.468 245.254 391.309 248.54 389.392 252.49L387.508 256.37H371.363C371.363 256.37 368.48 248.03 366.078 245.407Z" fill="#3F3D56"/>
<path d="M383.957 220.367H377.446C377.284 220.368 377.124 220.403 376.977 220.471C376.829 220.539 376.696 220.637 376.587 220.761C376.478 220.884 376.396 221.029 376.344 221.187C376.293 221.345 376.274 221.513 376.288 221.679L377.384 234.122C377.412 234.424 377.548 234.704 377.767 234.907C377.986 235.109 378.271 235.22 378.566 235.216L386.537 235.082C386.537 234.523 386.48 233.681 386.369 232.662C386.259 231.642 386.1 230.88 385.74 229.024C385.259 226.44 385.365 227 385.077 225.559C384.788 224.119 384.418 222.382 383.957 220.367Z" fill="white"/>
<path d="M377.081 230.672H386.033C386.315 232.126 386.484 233.601 386.537 235.082L378.566 235.216C378.258 235.214 377.962 235.089 377.741 234.867C377.52 234.646 377.39 234.345 377.379 234.028L377.081 230.672Z" fill="#2F2E41"/>
<path d="M256.778 186.334L262.289 205.736L266.133 206.954H267.959C268.951 206.955 269.912 206.6 270.677 205.949C271.442 205.299 271.962 204.394 272.149 203.39L273.874 194.189C275.839 186.572 270.208 186.334 270.208 186.334H257.234" fill="#2F2E41"/>
<path d="M246.264 209.82C246.264 209.82 246.951 204.657 252.03 203.88C252.03 203.88 252.804 205.266 255.841 205.538L263.471 205.731C263.471 205.731 268.089 205.905 269.016 209.389L246.264 209.82Z" fill="#2F2E41"/>
<path d="M213.066 202.346H237.091C237.262 202.346 237.426 202.416 237.547 202.54C237.667 202.665 237.735 202.833 237.735 203.009V215.338C237.735 215.514 237.667 215.683 237.547 215.807C237.426 215.932 237.262 216.002 237.091 216.002H212.422V203.019C212.421 202.931 212.437 202.844 212.469 202.762C212.5 202.681 212.548 202.606 212.608 202.544C212.668 202.481 212.739 202.431 212.818 202.397C212.896 202.363 212.981 202.346 213.066 202.346Z" fill="#2F2E41"/>
<path opacity="0.2" d="M213.066 202.346H237.091C237.262 202.346 237.426 202.416 237.547 202.54C237.667 202.665 237.735 202.833 237.735 203.009V215.338C237.735 215.514 237.667 215.683 237.547 215.807C237.426 215.932 237.262 216.002 237.091 216.002H212.422V203.019C212.421 202.931 212.437 202.844 212.469 202.762C212.5 202.681 212.548 202.606 212.608 202.544C212.668 202.481 212.739 202.431 212.818 202.397C212.896 202.363 212.981 202.346 213.066 202.346Z" fill="black"/>
<path d="M259.55 205.736H262.289C263.76 205.737 265.179 205.179 266.275 204.169C267.37 203.159 268.066 201.768 268.228 200.262L268.987 193.16C269.08 192.3 268.995 191.43 268.739 190.607C268.483 189.783 268.062 189.024 267.502 188.38C266.941 187.736 266.256 187.221 265.489 186.868C264.723 186.516 263.893 186.334 263.053 186.334H257.263C256.015 186.333 254.811 186.804 253.877 187.657C252.944 188.51 252.347 189.686 252.199 190.962L251.089 200.534C251.022 201.137 251.076 201.747 251.247 202.327C251.417 202.908 251.701 203.446 252.081 203.909C252.46 204.373 252.928 204.751 253.455 205.022C253.981 205.293 254.556 205.45 255.144 205.484L259.55 205.736Z" fill="#3F3D56"/>
<path opacity="0.2" d="M174.573 245.239L326.965 245.392L324.682 255.885L177.288 256.355L174.573 245.239Z" fill="black"/>
<path opacity="0.2" d="M175.347 248.396H204.216V250.797H176.087L175.347 248.396Z" fill="white"/>
<path opacity="0.2" d="M286.804 248.396H205.34V250.797H286.804V248.396Z" fill="white"/>
<path opacity="0.2" d="M287.89 248.397V250.797H321.425L320.757 255.9H324.682L326.965 245.392H322.092L321.746 248.397H287.89Z" fill="white"/>
<path d="M130.54 206.583L159.188 173.421C159.58 172.967 160.061 172.604 160.599 172.355C161.138 172.106 161.721 171.977 162.311 171.975H216.3C216.644 171.977 216.981 172.076 217.273 172.262C217.566 172.448 217.803 172.713 217.958 173.029C218.113 173.345 218.18 173.699 218.152 174.052C218.124 174.405 218.002 174.743 217.799 175.029L194.255 208.008C193.669 208.832 192.9 209.499 192.012 209.953C191.124 210.406 190.143 210.634 189.152 210.617L131.972 209.627C131.634 209.622 131.304 209.522 131.018 209.337C130.731 209.153 130.5 208.891 130.348 208.58C130.196 208.269 130.13 207.921 130.157 207.574C130.185 207.227 130.304 206.894 130.502 206.612L130.54 206.583Z" fill="#2F2E41"/>
<path opacity="0.2" d="M138.098 203.474L161.691 173.921C161.819 173.764 161.979 173.639 162.159 173.553C162.339 173.468 162.535 173.424 162.734 173.426H214.383C214.631 173.426 214.875 173.497 215.086 173.631C215.298 173.765 215.469 173.956 215.581 174.184C215.694 174.412 215.743 174.668 215.723 174.922C215.703 175.177 215.615 175.422 215.469 175.628L194.058 205.736H139.136C138.881 205.737 138.631 205.664 138.416 205.524C138.2 205.384 138.028 205.183 137.919 204.946C137.81 204.708 137.769 204.444 137.801 204.183C137.832 203.922 137.936 203.677 138.098 203.474Z" fill="white"/>
<path d="M174.174 180.073V174.336H182.41V173.416H188.931V174.361L195.696 174.425V180.073C195.696 180.335 195.595 180.587 195.415 180.773C195.234 180.959 194.99 181.063 194.735 181.063H175.126C174.873 181.06 174.631 180.955 174.453 180.769C174.274 180.584 174.174 180.334 174.174 180.073Z" fill="#2F2E41"/>
<path opacity="0.2" d="M199.343 173.416C199.343 173.416 191.655 190.848 189.772 205.736H194.058L205.109 190.18C205.109 190.18 206.335 177.163 208.91 173.416H199.343Z" fill="#2F2E41"/>
<path d="M178.201 205.736C178.201 205.736 181.286 199.396 190.66 200.421L191.352 197.278C191.352 197.278 178.547 195.03 175.659 205.736H178.201Z" fill="#3F3D56"/>
<path d="M96.607 228.578L90.5911 241.799H118.619L120.541 232.419C120.627 231.999 120.632 231.565 120.553 231.142C120.474 230.72 120.315 230.318 120.083 229.96C119.852 229.603 119.553 229.296 119.205 229.059C118.857 228.821 118.467 228.658 118.057 228.578H96.607Z" fill="white"/>
<path d="M114.217 228.579V227.222H118.191C118.754 227.223 119.309 227.352 119.818 227.6C120.326 227.848 120.775 228.21 121.131 228.658C121.488 229.106 121.744 229.63 121.88 230.193C122.016 230.755 122.03 231.341 121.92 231.91L119.998 241.809H118.619L120.603 232.043C120.603 232.043 120.791 229.073 118.076 228.579H114.217Z" fill="#2F2E41"/>
<path opacity="0.2" d="M114.217 228.579V227.222H118.191C118.754 227.223 119.309 227.352 119.818 227.6C120.326 227.848 120.775 228.21 121.131 228.658C121.488 229.106 121.744 229.63 121.88 230.193C122.016 230.755 122.03 231.341 121.92 231.91L119.998 241.809H118.619L120.603 232.043C120.603 232.043 120.791 229.073 118.076 228.579H114.217Z" fill="black"/>
<path d="M237.923 299.011C235.929 300.333 233.83 301.479 231.647 302.436C228.957 303.495 227.174 304.143 227.693 305.866C228.212 307.588 231.128 309.019 234.848 309.825C238.567 310.632 245.188 308.91 246.985 308.38C248.782 307.851 249.032 304.821 247.749 303.114C246.466 301.406 240.095 298.09 237.923 299.011Z" fill="#0071F2"/>
<path d="M239.076 308.89C236.001 308.89 230.907 307.702 230.907 306.524C230.907 305.346 232.162 304.416 230.658 304.015C229.154 303.614 228.145 305.772 227.895 306.277C228.721 307.801 231.47 309.083 234.872 309.806C238.639 310.598 245.217 308.89 247.014 308.36C247.338 308.244 247.629 308.048 247.863 307.789C248.097 307.531 248.265 307.217 248.354 306.875C245.379 308.03 242.25 308.71 239.076 308.89Z" fill="#2F2E41"/>
<path d="M253.64 214.492L254.404 217.081C253.927 217.477 253.542 217.977 253.277 218.546C253.012 219.114 252.873 219.736 252.871 220.367C253.156 221.818 253.924 223.121 255.043 224.05" stroke="#263238" stroke-linecap="round" stroke-linejoin="round"/>
<path d="M245.832 209.359C245.048 211.507 244.406 213.706 243.91 215.942V219.501C243.91 220.159 241.397 234.112 240.835 242.67C240.272 251.228 239.941 261.226 239.302 263.458C238.663 265.69 239.427 266.868 239.552 270.041C239.677 273.214 239.816 289.126 239.816 289.126C239.816 289.126 239.177 293.338 239.052 294.388C238.927 295.437 237.644 295.833 237.255 296.496C236.836 297.562 236.496 298.659 236.236 299.778C238.224 300.337 240.031 301.43 241.474 302.946C243.266 305.183 248.114 307.95 248.753 307.811C249.392 307.672 249.782 305.831 250.8 303.356C251.819 300.882 251.704 299.54 252.203 298.491C252.703 297.442 253.462 295.724 254.639 287.825C255.817 279.925 256.811 268.21 257.455 266.631C258.099 265.052 261.405 259.132 261.405 259.132C264.295 253.4 266.774 247.458 268.824 241.353C270.699 235.69 272.11 229.876 273.043 223.971C273.644 219.922 274.031 215.842 274.201 211.75V210.458C274.201 210.458 269.482 212.295 261.045 211.379C252.607 210.463 245.832 209.359 245.832 209.359Z" fill="#2F2E41"/>
<path opacity="0.2" d="M245.832 209.359C245.048 211.507 244.406 213.706 243.91 215.942V219.501C243.91 220.159 241.397 234.112 240.835 242.67C240.272 251.228 239.941 261.226 239.302 263.458C238.663 265.69 239.427 266.868 239.552 270.041C239.677 273.214 239.816 289.126 239.816 289.126C239.816 289.126 239.177 293.338 239.052 294.388C238.927 295.437 237.644 295.833 237.255 296.496C236.836 297.562 236.496 298.659 236.236 299.778C238.224 300.337 240.031 301.43 241.474 302.946C243.266 305.183 248.114 307.95 248.753 307.811C249.392 307.672 249.782 305.831 250.8 303.356C251.819 300.882 251.704 299.54 252.203 298.491C252.703 297.442 253.462 295.724 254.639 287.825C255.817 279.925 256.811 268.21 257.455 266.631C258.099 265.052 261.405 259.132 261.405 259.132C264.295 253.4 266.774 247.458 268.824 241.353C270.699 235.69 272.11 229.876 273.043 223.971C273.644 219.922 274.031 215.842 274.201 211.75V210.458C274.201 210.458 269.482 212.295 261.045 211.379C252.607 210.463 245.832 209.359 245.832 209.359Z" fill="white"/>
<path d="M240.018 291.294C239.974 291.288 239.933 291.265 239.906 291.229C239.878 291.193 239.865 291.147 239.869 291.101C239.869 290.963 241.613 277.386 242.382 272.268C242.783 268.037 243.683 263.872 245.063 259.865C246.077 256.598 247.115 253.504 248.205 250.228C249.445 246.516 250.728 242.68 252.093 238.275C253.376 234.112 254.293 230.405 255.029 227.425C255.745 224.54 256.259 222.476 256.715 221.649C257.619 220.046 263.183 216.982 263.418 216.848C263.458 216.827 263.505 216.823 263.548 216.837C263.591 216.851 263.627 216.881 263.649 216.922C263.669 216.963 263.673 217.01 263.659 217.054C263.646 217.098 263.616 217.134 263.577 217.155C263.519 217.19 257.864 220.308 257.003 221.822C256.571 222.585 256.042 224.654 255.355 227.509C254.62 230.479 253.702 234.206 252.41 238.398C251.05 242.808 249.767 246.649 248.527 250.362C247.432 253.633 246.399 256.727 245.38 259.993C244.01 263.98 243.114 268.123 242.713 272.333C241.945 277.455 240.22 291.027 240.205 291.141C240.203 291.164 240.196 291.186 240.185 291.206C240.174 291.226 240.16 291.244 240.143 291.258C240.125 291.272 240.105 291.283 240.084 291.289C240.062 291.295 240.04 291.297 240.018 291.294Z" fill="#2F2E41"/>
<path d="M261.434 164.205C261.434 164.205 252.746 166.442 250.137 166.971C247.528 167.501 246.183 167.506 245.813 168.679C243.02 174.057 239.769 179.169 236.097 183.953C233.156 187.25 232.906 190.417 233.8 192.11C234.694 193.803 235.722 194.62 239.566 193.56C242.033 192.792 244.22 191.278 245.841 189.215C245.841 189.215 246.75 199.114 245.467 203.039C244.184 206.964 243.67 210.151 244.563 210.795C248.429 212.991 252.762 214.169 257.177 214.225C264.206 214.482 272.24 213.824 273.514 212.502C273.947 212.142 274.287 211.678 274.506 211.151C274.724 210.624 274.814 210.049 274.768 209.478C274.768 208.558 274.263 202.381 275.796 197.505C277.329 192.63 281.673 180.122 281.797 175.381C281.922 170.639 280.14 169.986 276.69 168.54C273.24 167.095 267.738 164.581 266.469 164.323C264.795 164.169 263.113 164.13 261.434 164.205Z" fill="#0071F2"/>
<path d="M259.637 161.839C258.589 162.533 257.607 163.325 256.701 164.205C256.562 164.606 252.093 171.966 252.607 171.966C253.121 171.966 258.748 169.07 258.748 169.07C258.748 169.07 261.549 164.724 261.256 163.002C261.245 162.806 261.192 162.616 261.099 162.445C261.006 162.274 260.877 162.126 260.721 162.014C260.565 161.902 260.386 161.828 260.199 161.798C260.011 161.767 259.819 161.781 259.637 161.839Z" fill="#0071F2"/>
<path opacity="0.2" d="M259.637 161.839C258.589 162.533 257.607 163.325 256.701 164.205C256.562 164.606 252.093 171.966 252.607 171.966C253.121 171.966 258.748 169.07 258.748 169.07C258.748 169.07 261.549 164.724 261.256 163.002C261.245 162.806 261.192 162.616 261.099 162.445C261.006 162.274 260.877 162.126 260.721 162.014C260.565 161.902 260.386 161.828 260.199 161.798C260.011 161.767 259.819 161.781 259.637 161.839Z" fill="black"/>
<path d="M258.56 160.379C258.694 163.292 258.479 166.211 257.921 169.07C257.027 172.624 256.388 175.01 257.667 175.391C258.945 175.772 263.168 169.327 264.307 167.471C264.982 166.415 265.499 165.261 265.84 164.046L266.743 153.776C266.743 153.776 261.621 159.488 258.56 160.379Z" fill="#F9B499"/>
<path d="M261.434 164.205C261.434 164.205 261.184 175.92 261.948 174.549C262.712 173.178 269.103 164.556 269.103 164.556L267.575 159.938L261.434 164.205Z" fill="#0071F2"/>
<path opacity="0.2" d="M261.434 164.205C261.434 164.205 261.184 175.92 261.948 174.549C262.712 173.178 269.103 164.556 269.103 164.556L267.575 159.938L261.434 164.205Z" fill="black"/>
<path d="M272.682 177.103L268.358 191.056L276.276 201.401C276.276 201.401 276.666 202.187 277.31 201.267C277.953 200.346 278.448 200.351 279.481 195.327C280.515 190.304 281.99 178.207 281.884 175.311C281.778 172.416 281.245 170.966 279.073 170.58" fill="#0071F2"/>
<path d="M248.403 193.303C248.403 193.303 268.214 201.059 270.9 201.222C273.586 201.386 274.215 199.515 273.072 196.05C271.928 192.585 268.464 190.645 265.537 189.725C262.172 188.918 258.667 188.962 255.322 189.853C252.357 190.665 248.403 192.254 248.403 193.303Z" fill="#F9B499"/>
<path d="M264.889 189.616C264.889 189.616 269.617 200.143 269.91 201.074C270.203 202.004 275.027 202.648 276.56 202.519C278.093 202.39 277.454 200.01 275.921 196.58C274.388 193.15 271.952 190.111 270.155 189.596C268.409 189.317 266.632 189.324 264.889 189.616Z" fill="#0071F2"/>
<path opacity="0.2" d="M264.889 189.616C264.889 189.616 269.617 200.143 269.91 201.074C270.203 202.004 275.027 202.648 276.56 202.519C278.093 202.39 277.454 200.01 275.921 196.58C274.388 193.15 271.952 190.111 270.155 189.596C268.409 189.317 266.632 189.324 264.889 189.616Z" fill="black"/>
<path d="M238.437 185.928C236.78 186.074 235.148 186.435 233.579 187.002C231.782 187.789 231.407 193.328 232.325 195.303C233.243 197.278 236.025 197.283 237.947 197.139C238.489 197.121 239.021 196.983 239.506 196.733C239.991 196.484 240.418 196.129 240.758 195.694L242.166 185.953L238.437 185.928Z" fill="#0071F2"/>
<path d="M242.142 185.928C242.142 185.928 256.557 185.928 260.156 185.8C263.755 185.671 264.634 186.591 265.403 187.908C266.171 189.225 266.417 189.744 266.417 189.744C261.895 190.196 257.443 191.212 253.159 192.768C247.273 195.149 242.166 197.223 240.368 197.223C238.571 197.223 237.86 192.491 238.586 189.195C238.736 188.318 239.168 187.518 239.813 186.926C240.458 186.333 241.279 185.982 242.142 185.928Z" fill="#F9B499"/>
<path d="M238.048 185.022C238.048 185.022 244.184 184.879 244.059 186.072C243.934 187.265 242.805 196.208 242.391 196.995C241.978 197.782 238.312 198.183 236.515 198.055C234.718 197.926 235.362 191.991 236.515 189.225C237.114 187.86 237.626 186.456 238.048 185.022Z" fill="#0071F2"/>
<path opacity="0.2" d="M238.048 185.022C238.048 185.022 244.184 184.879 244.059 186.072C243.934 187.265 242.805 196.208 242.391 196.995C241.978 197.782 238.312 198.183 236.515 198.055C234.718 197.926 235.362 191.991 236.515 189.225C237.114 187.86 237.626 186.456 238.048 185.022Z" fill="black"/>
<path d="M258.56 160.379L258.594 162.581C261.217 162.274 263.775 161.53 266.167 160.379C266.296 159.305 266.354 157.815 266.484 156.746L258.56 160.379Z" fill="#F4A790"/>
<path d="M263.731 160.151C266.95 157.775 267.906 153.222 268.8 149.262C269.277 147.15 269.666 145.022 269.967 142.877C270.357 138.422 269.203 136.294 265.234 134.958C261.266 133.621 256.009 133.616 253.976 135.878C253.976 135.878 252.717 147.074 252.717 151.291C252.786 153.298 253.21 155.276 253.967 157.127C255.48 160.987 260.026 162.631 263.418 160.364C263.514 160.304 263.62 160.23 263.731 160.151Z" fill="#F9B499"/>
<path d="M251.92 134.042C251.91 134.149 251.91 134.257 251.92 134.364C252.118 135.035 252.476 135.645 252.96 136.139C253.444 136.633 254.039 136.996 254.692 137.195C257.503 138.388 264.144 136.938 266.441 137.73C268.737 138.521 267.7 140.754 266.316 141.541C264.932 142.328 264.658 142.733 265.302 143.649C265.946 144.565 267.474 145.5 266.96 146.545C266.445 147.589 266.191 148.653 267.084 148.782C267.978 148.911 268.612 148.911 269.006 148.396C269.4 147.881 271.947 142.199 271.947 138.917C271.947 135.636 270.414 134.171 266.835 132.721C263.255 131.27 255.841 130.355 253.669 131.676C253.211 131.892 252.812 132.221 252.507 132.634C252.202 133.046 252 133.53 251.92 134.042Z" fill="#2F2E41"/>
<path d="M266.743 153.499C267.069 153.831 267.494 154.041 267.95 154.095C268.406 154.149 268.866 154.043 269.256 153.796C270.659 152.88 271.303 149.584 270.41 147.856C269.516 146.129 267.724 149.43 267.724 149.43" fill="#F9B499"/>
<path opacity="0.2" d="M88.0924 247.986L90.591 241.784H120.003C120.003 241.784 119.657 245.813 116.067 247.451C115.201 247.824 114.268 248.006 113.328 247.986H88.0924Z" fill="black"/>
<path opacity="0.2" d="M31.6814 241.784L30.2399 245.239H42.6705L44.0303 241.784H31.6814Z" fill="black"/>
</g>
<defs>
<clipPath id="clip0_17_185">
<rect width="416" height="338" fill="white" transform="translate(-14 -9)"/>
</clipPath>
</defs>
</svg>
