<svg width="12" height="16" viewBox="0 0 12 16" fill="currentColor" xmlns="http://www.w3.org/2000/svg">
<path fill-rule="evenodd" clip-rule="evenodd" d="M5.63171 7.26343C6.53288 7.26343 7.26343 6.53288 7.26343 5.63171C7.26343 4.73054 6.53288 4 5.63171 4C4.73054 4 4 4.73054 4 5.63171C4 6.53288 4.73054 7.26343 5.63171 7.26343ZM5.63171 11.2634C8.74202 11.2634 11.2634 8.74202 11.2634 5.63171C11.2634 2.5214 8.74202 0 5.63171 0C2.5214 0 0 2.5214 0 5.63171C0 8.74202 2.5214 11.2634 5.63171 11.2634Z" fill="currentColor"/>
<path d="M11.2634 6.58571C10.7941 10.0578 6.57033 15.0179 5.63171 15.0179C4.69309 15.0179 0.469309 10.0578 0 6.58568C0 3.29841 2.5214 9.56178 5.63171 9.56178C8.74202 9.56178 11.2634 3.29844 11.2634 6.58571Z" fill="currentColor"/>
<path d="M11.2634 6.58571C10.7941 10.0578 6.57033 15.0179 5.63171 15.0179C4.69309 15.0179 0.469309 10.0578 0 6.58568C0 3.29841 2.5214 9.56178 5.63171 9.56178C8.74202 9.56178 11.2634 3.29844 11.2634 6.58571Z" fill="currentColor"/>
</svg>
