<?xml version="1.0" encoding="utf-8"?>
<!-- Generator: Adobe Illustrator 26.0.2, SVG Export Plug-In . SVG Version: 6.00 Build 0)  -->
<svg version="1.1" id="Layer_1" xmlns="http://www.w3.org/2000/svg" xmlns:xlink="http://www.w3.org/1999/xlink" x="0px" y="0px"
	 viewBox="0 0 1.6 15.6" style="enable-background:new 0 0 1.6 15.6;" xml:space="preserve">
<path d="M1.6,11.3c0,0.4-0.4,0.8-0.8,0.8S0,11.8,0,11.3s0.4-0.8,0.8-0.8S1.6,10.9,1.6,11.3z M1.6,14.8c0,0.4-0.4,0.8-0.8,0.8l0,0
	c-0.4,0-0.8-0.4-0.8-0.8l0,0C0,14.4,0.4,14,0.8,14S1.6,14.4,1.6,14.8z M1.6,7.8c0,0.4-0.4,0.8-0.8,0.8S0,8.3,0,7.8S0.4,7,0.8,7
	S1.6,7.4,1.6,7.8z"/>
<path d="M1.6,4.3c0,0.4-0.4,0.8-0.8,0.8S0,4.8,0,4.3s0.4-0.8,0.8-0.8S1.6,3.9,1.6,4.3z M1.6,0.8c0,0.4-0.4,0.8-0.8,0.8S0,1.3,0,0.8
	S0.4,0,0.8,0S1.6,0.4,1.6,0.8z"/>
</svg>
