<!DOCTYPE svg PUBLIC "-//W3C//DTD SVG 1.1//EN" "http://www.w3.org/Graphics/SVG/1.1/DTD/svg11.dtd">

<!-- Uploaded to: SVG Repo, www.svgrepo.com, Transformed by: SVG Repo Mixer Tools -->
<svg width="40px" height="40px" viewBox="-3.36 -3.36 30.72 30.72" fill="none" xmlns="http://www.w3.org/2000/svg" stroke="#ffffff">

<g id="SVGRepo_bgCarrier" stroke-width="0">

<rect x="-3.36" y="-3.36" width="30.72" height="30.72" rx="15.36" fill="#38a3a5" strokewidth="0"/>

</g>

<g id="SVGRepo_tracerCarrier" stroke-linecap="round" stroke-linejoin="round"/>

<g id="SVGRepo_iconCarrier">

<path fill-rule="evenodd" clip-rule="evenodd" d="m3.99 16.854-1.314 3.504a.75.75 0 0 0 .966.965l3.503-1.314a3 3 0 0 0 1.068-.687L18.36 9.175s-.354-1.061-1.414-2.122c-1.06-1.06-2.122-1.414-2.122-1.414L4.677 15.786a3 3 0 0 0-.687 1.068zm12.249-12.63 1.383-1.383c.248-.248.579-.406.925-.348.487.08 1.232.322 1.934 1.025.703.703.945 1.447 1.025 1.934.058.346-.1.677-.348.925L19.774 7.76s-.353-1.06-1.414-2.12c-1.06-1.062-2.121-1.415-2.121-1.415z" fill="#ffffff"/>

</g>

</svg>