<svg width="24" height="24" viewBox="0 0 24 24" fill="none" xmlns="http://www.w3.org/2000/svg">
<path d="M20.1332 5.49667L20.1521 5.47895L20.1697 5.4599C20.8036 4.77187 20.9636 3.8113 20.5874 2.95309C20.2138 2.10077 19.4058 1.57129 18.4788 1.57129H3.83436C2.92429 1.57129 2.12242 2.0872 1.74163 2.91763C1.35817 3.75395 1.49244 4.70594 2.092 5.4021L2.11473 5.42849L8.68452 11.6828L8.73214 18.997C8.73465 19.3838 9.04895 19.6956 9.43515 19.6956L9.43984 19.6956C9.82815 19.693 10.1409 19.3762 10.1384 18.9879L10.0869 11.0762L3.13815 4.4612C2.91489 4.18562 2.87036 3.82996 3.01993 3.50376C3.17101 3.17425 3.47549 2.97754 3.83439 2.97754H18.4788C18.8444 2.97754 19.1512 3.17948 19.2995 3.5177C19.4474 3.85499 19.3915 4.21687 19.1506 4.49029L12.0225 11.166L12.0531 21.9152C12.0542 22.3028 12.3687 22.6163 12.7561 22.6163H12.7582C13.1465 22.6152 13.4604 22.2995 13.4593 21.9112L13.4305 11.7741L20.1332 5.49667Z" fill="#727272"/>
<path d="M15.4045 13.9521C15.4045 14.3388 15.7209 14.6551 16.1076 14.6551H21.8239C22.2106 14.6551 22.527 14.3388 22.527 13.9521C22.527 13.5654 22.2106 13.249 21.8239 13.249H16.1076C15.7209 13.249 15.4045 13.5654 15.4045 13.9521ZM21.8239 17.2071H16.1076C15.7209 17.2071 15.4045 17.5235 15.4045 17.9102C15.4045 18.2969 15.7209 18.6132 16.1076 18.6132H21.8239C22.2106 18.6132 22.527 18.2969 22.527 17.9102C22.527 17.5235 22.2106 17.2071 21.8239 17.2071ZM21.8239 21.1652H16.1076C15.7209 21.1652 15.4045 21.4816 15.4045 21.8683C15.4045 22.2549 15.7209 22.5713 16.1076 22.5713H21.8239C22.2106 22.5713 22.527 22.2549 22.527 21.8683C22.527 21.4816 22.2106 21.1652 21.8239 21.1652Z" fill="#727272"/>
</svg>
