<svg viewBox="0 0 32 32" fill="none" xmlns="http://www.w3.org/2000/svg">
<path d="M15.9788 1.98816C8.26096 1.98816 2.00415 8.24462 2.00415 15.9627C2.00415 23.6807 8.26096 29.9372 15.9788 29.9372C23.6969 29.9372 29.9535 23.6807 29.9535 15.9627C29.9535 8.24462 23.6969 1.98816 15.9788 1.98816ZM23.9944 12.3377L14.9564 21.376L14.9561 21.3765C14.5395 21.7931 13.904 21.8581 13.419 21.5718C13.3291 21.5187 13.2445 21.4533 13.1673 21.3765C13.1671 21.3763 13.1671 21.3763 13.1671 21.3763L7.96331 16.1725C7.46966 15.6785 7.46966 14.8777 7.96331 14.3836C8.45731 13.8896 9.25824 13.8896 9.75224 14.3836L14.0617 18.693L22.2058 10.5489C22.6997 10.0551 23.5007 10.0551 23.9946 10.5489C24.4884 11.0431 24.4884 11.8438 23.9944 12.3377Z" fill="white"/>
</svg>
