<svg width="32" height="32" viewBox="0 0 32 32" fill="none" xmlns="http://www.w3.org/2000/svg">
  <circle cx="16" cy="16" r="14" fill="white" />
  <g clip-path="url(#clip0_895_641)">
    <path
      d="M23.8248 8.0661V7.91384C23.8248 7.41121 23.4136 7 22.911 7H9.08919C8.58656 7 8.17529 7.41121 8.17529 7.91384V8.0661C8.17529 8.56873 8.58651 8.97994 9.08919 8.97994H9.44231C9.62369 8.97994 9.60934 9.14925 9.60934 9.23579C9.60934 10.2509 10.0255 11.4243 10.3445 12.174C10.9842 13.6775 12.4406 14.911 13.6361 15.7819C13.8543 15.9409 13.802 16.0885 13.6753 16.19C12.5157 17.1189 10.9912 18.306 10.3445 19.8259C10.0306 20.5638 9.62245 21.7123 9.6097 22.7162C9.6084 22.8191 9.64965 23.02 9.40349 23.02H9.08924C8.58661 23.02 8.17534 23.4312 8.17534 23.9338V24.0862C8.17534 24.5887 8.58656 25 9.08924 25H22.9111C23.4137 25 23.8249 24.5887 23.8249 24.0862V23.9338C23.8249 23.4312 23.4137 23.02 22.9111 23.02H22.7133C22.3506 23.02 22.3855 22.7483 22.3892 22.6075C22.4145 21.6699 22.1388 20.6034 21.7354 19.8021C20.8379 18.02 19.4226 16.8865 18.5509 16.2307C18.3618 16.0885 18.3427 15.9124 18.5509 15.7692C19.4496 15.151 20.8379 13.98 21.7354 12.1978C22.1649 11.3446 22.4497 10.1906 22.3804 9.2117C22.375 9.13324 22.3695 8.97994 22.5752 8.97994H22.9111C23.4137 8.97994 23.8248 8.56878 23.8248 8.0661ZM21.0063 11.8307C20.1713 13.4889 18.8314 14.6748 17.666 15.3894C17.5959 15.4325 17.4621 15.5387 17.4621 15.8352V16.1895C17.4621 16.5039 17.6047 16.5729 17.6797 16.6189C18.8449 17.3344 20.1746 18.5175 21.0062 20.1692C21.3904 20.9324 21.5901 21.8551 21.5703 22.5895C21.5663 22.7422 21.6249 23.02 21.2276 23.02H10.7638C10.414 23.02 10.4282 22.8454 10.4291 22.7498C10.4351 22.0816 10.6655 21.1559 11.0955 20.1455C11.8419 18.3911 13.4083 17.2959 14.451 16.6435C14.4974 16.6144 14.5872 16.5623 14.5872 16.2847V15.7543C14.5872 15.4675 14.4496 15.3559 14.377 15.3102C13.3355 14.6526 11.8244 13.568 11.0955 11.8546C10.661 10.8335 10.4304 9.89918 10.429 9.22937C10.4289 9.14158 10.4399 8.98 10.6342 8.98H21.3399C21.5559 8.98 21.5538 9.14324 21.5609 9.23025C21.6222 9.98919 21.4227 11.0037 21.0063 11.8307Z"
      fill="currentColor" />
    <path
      d="M15.7862 17.1677L12.2235 21.626C12.1059 21.7733 12.1638 21.8937 12.3523 21.8937H19.6479C19.8364 21.8937 19.8944 21.7733 19.7767 21.626L16.214 17.1677C16.0964 17.0204 15.9039 17.0204 15.7862 17.1677Z"
      fill="currentColor" />
    <path
      d="M15.7573 15.0957C15.8908 15.2288 16.1092 15.2288 16.2425 15.0957L18.0344 13.3084C18.1678 13.1753 18.1228 13.0664 17.9343 13.0664H14.0655C13.877 13.0664 13.832 13.1753 13.9654 13.3084L15.7573 15.0957Z"
      fill="currentColor" />
  </g>
</svg>
  