<?xml version="1.0" encoding="utf-8"?><!-- Uploaded to: SVG Repo, www.svgrepo.com, Generator: SVG Repo Mixer Tools -->
<svg width="11.26px" height="15.02px" viewBox="0 0 24 24" fill="none" xmlns="http://www.w3.org/2000/svg">
<path fill-rule="evenodd" clip-rule="evenodd" d="M11.3856 23.789L11.3831 23.7871L11.3769 23.7822L11.355 23.765C11.3362 23.7501 11.3091 23.7287 11.2742 23.7008C11.2046 23.6451 11.1039 23.5637 10.9767 23.4587C10.7224 23.2488 10.3615 22.944 9.92939 22.5599C9.06662 21.793 7.91329 20.7041 6.75671 19.419C5.60303 18.1371 4.42693 16.639 3.53467 15.0528C2.64762 13.4758 2 11.7393 2 10C2 7.34784 3.05357 4.8043 4.92893 2.92893C6.8043 1.05357 9.34784 0 12 0C14.6522 0 17.1957 1.05357 19.0711 2.92893C20.9464 4.8043 22 7.34784 22 10C22 11.7393 21.3524 13.4758 20.4653 15.0528C19.5731 16.639 18.397 18.1371 17.2433 19.419C16.0867 20.7041 14.9334 21.793 14.0706 22.5599C13.6385 22.944 13.2776 23.2488 13.0233 23.4587C12.8961 23.5637 12.7954 23.6451 12.7258 23.7008C12.6909 23.7287 12.6638 23.7501 12.645 23.765L12.6231 23.7822L12.6169 23.7871L12.615 23.7885C12.615 23.7885 12.6139 23.7894 12 23L12.6139 23.7894C12.2528 24.0702 11.7467 24.0699 11.3856 23.789ZM12 23L11.3856 23.789C11.3856 23.789 11.3861 23.7894 12 23ZM15 10C15 11.6569 13.6569 13 12 13C10.3431 13 9 11.6569 9 10C9 8.34315 10.3431 7 12 7C13.6569 7 15 8.34315 15 10Z" fill="currentColor"/>
</svg>