<?xml version="1.0" encoding="utf-8"?>
<!-- Generator: Adobe Illustrator 26.0.2, SVG Export Plug-In . SVG Version: 6.00 Build 0)  -->
<svg version="1.1" id="Layer_1" xmlns="http://www.w3.org/2000/svg" xmlns:xlink="http://www.w3.org/1999/xlink" x="0px" y="0px"
	 viewBox="0 0 410 330" style="enable-background:new 0 0 410 330;" xml:space="preserve">
<style type="text/css">
	.st0{fill:#27356A;}
	.st1{fill:#2791C3;}
	.st2{fill:#1E274F;}
</style>
<g>
	<g>
		<path class="st0" d="M269.7,72.8c-10.1-11.5-28.2-16.4-51.5-16.4h-67.5c-4.8,0-8.8,3.5-9.5,8.2L113,242.8
			c-0.6,3.5,2.2,6.7,5.7,6.7h41.7l10.5-66.4l-0.3,2.1c0.7-4.7,4.8-8.2,9.5-8.2h19.8c38.9,0,69.4-15.8,78.3-61.5
			c0.3-1.4,0.5-2.7,0.7-4c-1.1-0.6-1.1-0.6,0,0C281.5,94.7,278.8,83.2,269.7,72.8"/>
		<path class="st0" d="M186.8,105.5c1.1-0.5,2.3-0.8,3.6-0.8h52.9c6.3,0,12.1,0.4,17.5,1.3c1.5,0.2,3,0.5,4.5,0.9
			c1.4,0.3,2.8,0.7,4.2,1.1c0.7,0.2,1.3,0.4,2,0.6c2.6,0.9,5.1,1.9,7.3,3.1c2.7-16.9,0-28.4-9.2-38.8
			c-10.1-11.5-28.2-16.4-51.5-16.4h-67.5c-4.8,0-8.8,3.5-9.5,8.2L113,242.8c-0.6,3.5,2.2,6.7,5.7,6.7h41.7l21.7-137.7
			C182.6,109,184.4,106.7,186.8,105.5z"/>
		<path class="st1" d="M278.2,115.5c-8.9,45.7-39.4,61.5-78.3,61.5h-19.8c-4.8,0-8.8,3.5-9.5,8.2l-13,82.6c-0.5,3.1,1.9,5.9,5,5.9
			h35.1c4.2,0,7.7-3,8.3-7.1l0.3-1.8l6.6-42l0.4-2.3c0.6-4.1,4.2-7.1,8.3-7.1h5.3c34,0,60.7-13.8,68.5-53.8
			c3.3-16.7,1.6-30.7-7-40.5c-2.6-3-5.8-5.4-9.6-7.4C278.7,112.9,278.4,114.2,278.2,115.5L278.2,115.5z"/>
		<path class="st2" d="M269.5,107.9c-1.4-0.4-2.8-0.8-4.2-1.1c-1.4-0.3-2.9-0.6-4.5-0.8c-5.3-0.9-11.2-1.3-17.5-1.3h-52.9
			c-1.3,0-2.5,0.3-3.6,0.8c-2.4,1.2-4.3,3.5-4.7,6.3l-11.2,71.3l-0.3,2.1c0.7-4.7,4.8-8.2,9.5-8.2h19.8c38.9,0,69.4-15.8,78.3-61.5
			c0.3-1.4,0.5-2.7,0.7-4c-2.3-1.2-4.7-2.2-7.3-3.1C270.9,108.3,270.2,108.1,269.5,107.9"/>
	</g>
</g>
</svg>
