<svg width="342" height="252" viewBox="0 0 342 252" fill="none" xmlns="http://www.w3.org/2000/svg">
<path d="M74 0L0 252H342L267.5 0H74Z" fill="#646464"/>
<path d="M78.5309 -1L9.53101 234.5H14L82.9999 -1H78.5309Z" fill="#FFD600"/>
<path d="M163 203L163 228H167L167 203H163Z" fill="#FFD600"/>
<path d="M163 164L163 189H167L167 164H163Z" fill="#FFD600"/>
<path d="M163 122L163 147H167L167 122H163Z" fill="#FFD600"/>
<path d="M163 83L163 108H167L167 83H163Z" fill="#FFD600"/>
<path d="M163 42L163 67H167L167 42H163Z" fill="#FFD600"/>
<path d="M163 3L163 28H167L167 3H163Z" fill="#FFD600"/>
<path d="M262.531 0L335 242.5H330.469L258 0H262.531Z" fill="#FFD600"/>
<g clip-path="url(#clip0_786_392)">
<path d="M47.2552 230.471H37.5464C36.0953 230.471 34.9147 229.279 34.9147 227.815V199.055C34.9147 197.59 36.0953 196.398 37.5464 196.398H47.2552C48.7063 196.398 49.8869 197.59 49.8869 199.055V227.815C49.8869 229.279 48.7063 230.471 47.2552 230.471Z" fill="#3F3D56"/>
<path d="M142.373 230.527H132.664C131.213 230.527 130.032 229.336 130.032 227.871V199.111C130.032 197.646 131.213 196.455 132.664 196.455H142.373C143.824 196.455 145.005 197.646 145.005 199.111V227.871C145.005 229.336 143.824 230.527 142.373 230.527Z" fill="#3F3D56"/>
<path d="M49.5569 159.007L35.2599 179.501C33.5347 181.974 32.8507 185.036 33.3577 188.016L37.7028 213.565C38.6361 219.053 43.3507 223.064 48.8676 223.064H132.881C138.869 223.064 143.822 218.361 144.188 212.33L145.865 184.688C146.065 181.398 144.847 178.18 142.524 175.862L122.47 155.841C120.269 153.644 117.272 152.451 114.177 152.541L58.493 154.161C54.924 154.265 51.6124 156.061 49.5569 159.007Z" fill="#262534"/>
<path d="M51.7347 162.645L49.0011 167.804C47.2592 171.091 49.7989 174.973 53.6632 174.929L122.102 174.162C126.305 174.115 128.673 169.542 126.159 166.326L121.85 160.813C120.856 159.541 119.28 158.805 117.619 158.835L56.2231 159.957C54.3194 159.992 52.5929 161.026 51.7347 162.645Z" fill="#595867"/>
<path d="M137.404 173.41C136.961 173.41 136.531 173.245 136.2 172.943C135.825 172.6 135.61 172.111 135.61 171.601L135.61 170.467L135.836 165.242C135.878 164.271 136.664 163.511 137.627 163.511H144.751C145.415 163.511 146.021 163.878 146.333 164.469L147.182 166.075C147.45 166.583 147.465 167.173 147.223 167.695C146.981 168.216 146.522 168.582 145.963 168.698L140.592 169.82C140.037 169.935 139.599 170.351 139.45 170.903L139.132 172.077C138.938 172.795 138.315 173.327 137.581 173.401C137.522 173.407 137.463 173.41 137.404 173.41Z" fill="#262534"/>
<path d="M41.1639 173.401C40.4302 173.327 39.8068 172.795 39.6127 172.077L39.2955 170.903C39.1463 170.351 38.7085 169.935 38.1532 169.82L32.7818 168.698C32.2233 168.582 31.7641 168.216 31.5219 167.695C31.2798 167.173 31.2949 166.583 31.5632 166.075L32.4121 164.469C32.7245 163.878 33.3306 163.511 33.994 163.511H41.1186C42.081 163.511 42.8675 164.271 42.9094 165.242L43.1346 170.467L43.1347 171.601C43.1347 172.111 42.9197 172.6 42.545 172.943C42.2143 173.245 41.7837 173.41 41.3415 173.41C41.2824 173.41 41.2231 173.407 41.1639 173.401Z" fill="#262534"/>
<path d="M51.0613 195.806C54.9525 195.806 58.107 192.622 58.107 188.695C58.107 184.768 54.9525 181.584 51.0613 181.584C47.17 181.584 44.0155 184.768 44.0155 188.695C44.0155 192.622 47.17 195.806 51.0613 195.806Z" fill="white"/>
<path d="M132.234 195.954C136.126 195.954 139.28 192.77 139.28 188.843C139.28 184.916 136.126 181.732 132.234 181.732C128.343 181.732 125.188 184.916 125.188 188.843C125.188 192.77 128.343 195.954 132.234 195.954Z" fill="white"/>
<path d="M41.6826 150.706C42.3314 151.073 42.8838 151.591 43.2936 152.217L47.9201 154.993L55.7809 158.709C55.7809 158.709 57.6348 152.058 59.8496 151.633C62.0644 151.209 65.7185 156.138 65.7185 156.138C65.7185 156.138 59.3487 166.547 56.574 165.48C53.7993 164.412 47.5997 159.229 47.5997 159.229L46.7898 158.565L41.6389 155.107C40.8965 155.061 40.1758 154.837 39.5369 154.452C37.9259 153.513 37.1003 151.913 37.6927 150.878C38.2851 149.844 40.0711 149.766 41.6826 150.706Z" fill="#9F616A"/>
<path d="M57.0045 153.593L61.0245 148.817L63.4531 149.17C66.432 149.603 68.088 152.883 66.6848 155.57L65.2856 158.249L57.0045 153.593Z" fill="#E5E5E5"/>
<path d="M43.9327 159.846L36.8573 150.002C36.7524 149.857 36.7781 149.653 36.9156 149.538L38.6129 148.124C38.6865 148.063 38.783 148.036 38.8774 148.05C38.9716 148.064 39.0564 148.118 39.1096 148.198L46.1395 158.846C46.1975 158.933 46.2121 159.041 46.1798 159.141C46.1474 159.241 46.0726 159.319 45.9744 159.356L44.3228 159.966C44.2014 160.011 44.0658 159.981 43.9739 159.893C43.9589 159.879 43.945 159.863 43.9327 159.846Z" fill="#3F3D56"/>
<path d="M44.4952 159.244L37.1725 149.665C37.064 149.523 37.0715 149.339 37.1895 149.245L38.6457 148.089C38.7088 148.039 38.7958 148.022 38.8842 148.042C38.9724 148.063 39.0551 148.119 39.1106 148.197L46.4553 158.508C46.5158 158.593 46.5378 158.692 46.516 158.781C46.494 158.87 46.4311 158.936 46.3433 158.961L44.8653 159.385C44.7567 159.417 44.629 159.378 44.5371 159.291C44.5221 159.276 44.508 159.261 44.4952 159.244Z" fill="#E5E5E5"/>
<path d="M41.5735 219.141L38.3896 226.075L33.1948 223.708L37.2166 218.465L41.5735 219.141Z" fill="#9F616A"/>
<path d="M36.2111 223.877L40.0653 223.369C40.0653 223.369 42.7465 229.796 40.7356 230.134C38.7247 230.472 22.9728 231.995 22.9728 229.965C22.9728 227.936 29.5082 225.399 29.5082 225.399L34.0327 222.186L36.2111 223.877Z" fill="#2F2E41"/>
<path d="M66.5421 174.493C66.5421 174.493 71.2341 181.597 61.1797 185.994L50.455 201.553L41.5735 221.002L36.2112 218.972L45.5953 189.545L50.9577 176.354L53.4713 172.295L66.5421 174.493Z" fill="#2F2E41"/>
<path d="M39.2283 217.977L35.6033 224.687L30.5725 221.982L34.9244 217.015L39.2283 217.977Z" fill="#9F616A"/>
<path d="M33.5716 222.35L37.4503 222.097C37.4503 222.097 39.7107 228.686 37.6822 228.891C35.6538 229.097 19.837 229.579 19.9681 227.554C20.0992 225.529 26.7845 223.427 26.7845 223.427L31.507 220.519L33.5716 222.35Z" fill="#2F2E41"/>
<path d="M67.0278 175.067C67.0278 175.067 71.2511 182.464 60.934 186.19L49.227 201.01L39.1082 219.833L33.8883 217.455L45.1533 188.708L51.3564 175.898L54.1268 172.013L67.0278 175.067Z" fill="#2F2E41"/>
<path d="M62.7949 141.818L59.6104 148.114L68.0817 149.444L67.9895 140.98L62.7949 141.818Z" fill="#9F616A"/>
<path d="M64.5631 144.401C67.8199 144.401 70.46 141.737 70.46 138.45C70.46 135.163 67.8199 132.499 64.5631 132.499C61.3063 132.499 58.6661 135.163 58.6661 138.45C58.6661 141.737 61.3063 144.401 64.5631 144.401Z" fill="#9F616A"/>
<path d="M68.3853 176.523L69.3578 160.624C70.1992 156.819 69.919 152.848 68.5518 149.201L68.2177 145.405L60.5093 145.912L57.2416 151.239L54.1415 163.839L53.4712 172.295L68.3853 176.523Z" fill="#E5E5E5"/>
<path d="M45.8279 164.221C46.5642 164.117 47.3145 164.191 48.0163 164.439L53.3642 163.823L61.85 161.979C61.85 161.979 59.3364 155.552 60.8445 153.861C62.3527 152.17 68.2178 153.861 68.2178 153.861C68.2178 153.861 69.3908 166.037 66.5421 166.883C63.6933 167.729 55.6497 167.39 55.6497 167.39L54.6067 167.356L48.4325 167.751C47.8142 168.168 47.1059 168.43 46.3669 168.514C44.5212 168.75 42.9041 167.981 42.7552 166.796C42.6062 165.61 43.9815 164.458 45.8279 164.221Z" fill="#9F616A"/>
<path d="M59.7554 157.159L60.0905 150.901L62.2354 149.699C64.8663 148.223 68.1514 149.822 68.6461 152.818L69.1395 155.806L59.7554 157.159Z" fill="#E5E5E5"/>
<path d="M69.1607 142.108C69.1607 142.108 69.7106 139.333 68.0609 139.148C66.4112 138.963 64.7616 135.633 64.7616 135.633C64.7616 135.633 59.0692 134.631 58.8859 137.036C58.7026 139.441 58.7729 138.906 58.7729 138.906C58.7729 138.906 57.4196 138.331 57.9695 135.926C58.1266 135.239 58.5081 134.612 58.973 134.068C60.4673 132.317 62.7628 131.49 65.0372 131.754C66.0005 131.867 68.8683 132.789 69.4223 133.418C70.8886 135.083 71.5435 140.258 69.1607 142.108Z" fill="#3F3D56"/>
<path d="M49.7189 212.661C48.6844 212.661 47.7718 212.115 47.2753 211.198C46.776 210.275 46.8167 209.199 47.3842 208.318L49.2234 205.462C49.7394 204.661 50.6125 204.183 51.5592 204.183H131.555C132.37 204.183 133.142 204.542 133.672 205.167L135.69 207.55C136.403 208.391 136.563 209.539 136.106 210.546C135.65 211.553 134.685 212.182 133.589 212.188L49.7356 212.661L49.7189 212.661Z" fill="#3F3D56"/>
<path d="M145.428 178.186C146.9 179.158 148.589 179.179 149.202 178.234C149.814 177.288 149.118 175.735 147.645 174.763C147.063 174.367 146.394 174.117 145.696 174.035L139.409 169.999L137.595 173.017L143.986 176.676C144.34 177.288 144.835 177.806 145.428 178.186Z" fill="#FFB5B5"/>
<path d="M127.548 168.24L142.971 176.285L144.312 172.561L133.851 164.291L133.155 152.225C133.07 150.752 132.337 149.416 131.146 148.561C129.954 147.706 128.464 147.446 127.057 147.848C124.552 148.564 123.059 151.212 123.728 153.751L127.548 168.24Z" fill="#E5E5E5"/>
<path d="M131.273 146.649L131.994 142.101L127.127 140.099L126.406 147.013L131.273 146.649Z" fill="#FFB5B5"/>
<path d="M115.945 172.531C115.945 172.531 114.547 181.345 120.137 182.403C125.726 183.461 138.477 184.166 138.477 184.166L154.896 204.262L158.215 200.56L144.067 178.525L132.713 171.297L115.945 172.531Z" fill="#2F2E41"/>
<path d="M117.279 171.104C117.279 171.104 114.02 179.403 119.249 181.659C124.478 183.915 136.774 187.395 136.774 187.395L148.482 210.608L152.517 207.721L143.443 183.112L133.913 173.571L117.279 171.104Z" fill="#2F2E41"/>
<path d="M132.189 145.912L125.901 144.855L121.639 147.249C119.159 150.89 118.954 162.44 118.368 166.819L114.897 174.999L125.901 173.413L134.809 172.531L131.84 152.964L132.189 145.912Z" fill="#E5E5E5"/>
<path d="M130.043 143.563C132.784 143.563 135.007 141.32 135.007 138.553C135.007 135.787 132.784 133.544 130.043 133.544C127.302 133.544 125.079 135.787 125.079 138.553C125.079 141.32 127.302 143.563 130.043 143.563Z" fill="#FFB5B5"/>
<path d="M129.647 131.819C129.79 131.903 129.983 131.775 130.029 131.614C130.075 131.453 130.021 131.281 129.968 131.122C129.879 130.855 129.79 130.589 129.7 130.322C129.51 129.754 129.309 129.166 128.897 128.734C128.277 128.082 127.29 127.916 126.401 128.036C125.261 128.191 124.135 128.814 123.605 129.845C123.075 130.876 123.3 132.314 124.259 132.957C122.893 134.537 122.417 136.298 122.492 138.394C122.567 140.489 124.83 142.418 126.305 143.894C126.635 143.692 126.934 142.747 126.753 142.404C126.572 142.061 126.832 141.663 126.607 141.347C126.383 141.031 126.195 141.534 126.422 141.22C126.565 141.022 126.006 140.565 126.219 140.447C127.248 139.872 127.591 138.578 128.237 137.586C129.017 136.39 130.352 135.58 131.764 135.446C132.542 135.372 133.364 135.506 134.001 135.962C134.639 136.418 135.052 137.232 134.904 138.007C135.287 137.614 135.478 137.039 135.406 136.493C135.334 135.947 135.001 135.442 134.53 135.164C134.816 134.208 134.571 133.108 133.906 132.368C133.241 131.628 130.543 131.754 129.572 131.949" fill="#2F2E41"/>
<path d="M129.496 135.475C128.21 135.615 127.282 136.739 126.497 137.777C126.046 138.376 125.572 139.037 125.584 139.789C125.595 140.55 126.099 141.202 126.34 141.923C126.733 143.101 126.35 144.503 125.413 145.31C126.339 145.487 127.339 144.787 127.499 143.85C127.685 142.758 126.866 141.705 126.963 140.602C127.048 139.631 127.807 138.883 128.452 138.157C129.097 137.43 129.703 136.466 129.406 135.538" fill="#2F2E41"/>
<path d="M141.483 179.129C142.955 180.1 144.644 180.121 145.257 179.176C145.869 178.231 145.173 176.677 143.7 175.706C143.117 175.309 142.449 175.06 141.751 174.978L135.464 170.941L133.65 173.959L140.041 177.618C140.395 178.231 140.89 178.749 141.483 179.129Z" fill="#FFB5B5"/>
<path d="M123.603 169.182L139.026 177.227L140.368 173.503L129.906 165.233L129.21 153.167C129.125 151.694 128.392 150.358 127.201 149.503C126.009 148.648 124.519 148.388 123.112 148.79C120.607 149.506 119.114 152.155 119.783 154.694L123.603 169.182Z" fill="#E5E5E5"/>
<path d="M149.037 207.494L149.394 207.7C149.394 207.7 151.84 206.289 153.062 207.7C154.285 209.11 155.158 212.636 155.158 212.636C155.158 212.636 160.224 216.866 157.255 216.866C155.019 216.866 149.716 214.369 147.23 213.134C146.436 212.74 146.067 211.804 146.376 210.967C146.633 210.27 146.966 209.538 147.298 209.286C147.648 209.022 147.866 208.449 147.997 207.942C148.116 207.483 148.629 207.258 149.037 207.494Z" fill="#2F2E41"/>
<path d="M155.85 200.795L156.206 201.001C156.206 201.001 158.652 199.591 159.875 201.001C161.097 202.411 161.971 205.937 161.971 205.937C161.971 205.937 167.036 210.168 164.067 210.168C161.831 210.168 156.528 207.67 154.042 206.436C153.248 206.041 152.879 205.105 153.188 204.268C153.445 203.571 153.778 202.839 154.11 202.587C154.46 202.323 154.678 201.75 154.809 201.243C154.928 200.784 155.441 200.56 155.85 200.795Z" fill="#2F2E41"/>
</g>
<defs>
<clipPath id="clip0_786_392">
<rect width="156" height="103" fill="white" transform="translate(9 128)"/>
</clipPath>
</defs>
</svg>
