<?xml version="1.0" encoding="utf-8"?>
<!-- Generator: Adobe Illustrator 26.0.2, SVG Export Plug-In . SVG Version: 6.00 Build 0)  -->
<svg version="1.1" id="Layer_1" xmlns="http://www.w3.org/2000/svg" xmlns:xlink="http://www.w3.org/1999/xlink" x="0px" y="0px"
	 viewBox="0 0 342 334.5" style="enable-background:new 0 0 342 334.5;" xml:space="preserve">
<style type="text/css">
	.st0{fill:#646464;}
	.st1{fill:#FFD600;}
	.st2{clip-path:url(#SVGID_00000180355746761182347960000001605322371543946657_);}
	.st3{fill:#3F3D56;}
	.st4{fill:#262534;}
	.st5{fill:#595867;}
	.st6{fill:#FFFFFF;}
	.st7{fill:#9F616A;}
	.st8{fill:#E5E5E5;}
	.st9{fill:#2F2E41;}
	.st10{fill:#FFB5B5;}
</style>
<path class="st0" d="M74,0L0,334.5h342L267.5,0H74z"/>
<path class="st1" d="M78.5,0l-69,317H14L83,0H78.5z"/>
<path class="st1" d="M163,285.5v25h4v-25H163z"/>
<path class="st1" d="M163,246.5v25h4v-25H163z"/>
<path class="st1" d="M163,204.5v25h4v-25H163z"/>
<path class="st1" d="M163,165.5v25h4v-25H163z"/>
<path class="st1" d="M163,124.5v25h4v-25H163z"/>
<path class="st1" d="M163,85.5v25h4v-25H163z"/>
<path class="st1" d="M262.5,0L335,325h-4.5L258,0H262.5z"/>
<g>
	<defs>
		<rect id="SVGID_1_" x="9" y="210.5" width="156" height="103"/>
	</defs>
	<clipPath id="SVGID_00000102502884721636857750000012395471778963098025_">
		<use xlink:href="#SVGID_1_"  style="overflow:visible;"/>
	</clipPath>
	<g style="clip-path:url(#SVGID_00000102502884721636857750000012395471778963098025_);">
		<path class="st3" d="M47.3,312.9h-9.7c-1.5,0-2.6-1.2-2.6-2.7v-28.8c0-1.5,1.2-2.7,2.6-2.7h9.7c1.5,0,2.6,1.2,2.6,2.7v28.8
			C49.9,311.7,48.7,312.9,47.3,312.9z"/>
		<path class="st3" d="M142.4,313h-9.7c-1.5,0-2.6-1.2-2.6-2.7v-28.8c0-1.5,1.2-2.7,2.6-2.7h9.7c1.5,0,2.6,1.2,2.6,2.7v28.8
			C145,311.8,143.8,313,142.4,313z"/>
		<path class="st4" d="M49.6,241.5L35.3,262c-1.7,2.5-2.4,5.5-1.9,8.5l4.3,25.5c0.9,5.5,5.6,9.5,11.2,9.5h84c6,0,10.9-4.7,11.3-10.7
			l1.7-27.6c0.2-3.3-1-6.5-3.3-8.8l-20.1-20c-2.2-2.2-5.2-3.4-8.3-3.3l-55.7,1.6C54.9,236.7,51.6,238.5,49.6,241.5z"/>
		<path class="st5" d="M51.7,245.1l-2.7,5.2c-1.7,3.3,0.8,7.2,4.7,7.1l68.4-0.8c4.2,0,6.6-4.6,4.1-7.8l-4.3-5.5c-1-1.3-2.6-2-4.2-2
			l-61.4,1.1C54.3,242.5,52.6,243.5,51.7,245.1z"/>
		<path class="st4" d="M137.4,255.9c-0.4,0-0.9-0.2-1.2-0.5c-0.4-0.3-0.6-0.8-0.6-1.3v-1.1l0.2-5.2c0-1,0.8-1.7,1.8-1.7h7.1
			c0.7,0,1.3,0.4,1.6,1l0.8,1.6c0.3,0.5,0.3,1.1,0,1.6c-0.2,0.5-0.7,0.9-1.3,1l-5.4,1.1c-0.6,0.1-1,0.5-1.1,1.1l-0.3,1.2
			c-0.2,0.7-0.8,1.2-1.6,1.3C137.5,255.9,137.5,255.9,137.4,255.9z"/>
		<path class="st4" d="M41.2,255.9c-0.7-0.1-1.4-0.6-1.6-1.3l-0.3-1.2c-0.1-0.6-0.6-1-1.1-1.1l-5.4-1.1c-0.6-0.1-1-0.5-1.3-1
			c-0.2-0.5-0.2-1.1,0-1.6l0.8-1.6c0.3-0.6,0.9-1,1.6-1h7.1c1,0,1.7,0.8,1.8,1.7l0.2,5.2l0,1.1c0,0.5-0.2,1-0.6,1.3
			c-0.3,0.3-0.8,0.5-1.2,0.5C41.3,255.9,41.2,255.9,41.2,255.9z"/>
		<path class="st6" d="M51.1,278.3c3.9,0,7-3.2,7-7.1c0-3.9-3.2-7.1-7-7.1c-3.9,0-7,3.2-7,7.1C44,275.1,47.2,278.3,51.1,278.3z"/>
		<path class="st6" d="M132.2,278.4c3.9,0,7-3.2,7-7.1s-3.2-7.1-7-7.1c-3.9,0-7,3.2-7,7.1S128.3,278.4,132.2,278.4z"/>
		<path class="st7" d="M41.7,233.2c0.6,0.4,1.2,0.9,1.6,1.5l4.6,2.8l7.9,3.7c0,0,1.9-6.7,4.1-7.1c2.2-0.4,5.9,4.5,5.9,4.5
			s-6.4,10.4-9.1,9.3c-2.8-1.1-9-6.3-9-6.3l-0.8-0.7l-5.2-3.5c-0.7,0-1.5-0.3-2.1-0.7c-1.6-0.9-2.4-2.5-1.8-3.6
			C38.3,232.3,40.1,232.2,41.7,233.2z"/>
		<path class="st8" d="M57,236.1l4-4.8l2.4,0.4c3,0.4,4.6,3.7,3.2,6.4l-1.4,2.7L57,236.1z"/>
		<path class="st3" d="M43.9,242.3l-7.1-9.8c-0.1-0.1-0.1-0.3,0.1-0.5l1.7-1.4c0.1-0.1,0.2-0.1,0.3-0.1c0.1,0,0.2,0.1,0.2,0.1
			l7,10.6c0.1,0.1,0.1,0.2,0,0.3c0,0.1-0.1,0.2-0.2,0.2l-1.7,0.6C44.2,242.5,44.1,242.4,43.9,242.3C44,242.3,43.9,242.3,43.9,242.3z
			"/>
		<path class="st8" d="M44.5,241.7l-7.3-9.6c-0.1-0.1-0.1-0.3,0-0.4l1.5-1.2c0.1-0.1,0.2-0.1,0.2,0c0.1,0,0.2,0.1,0.2,0.2l7.3,10.3
			c0.1,0.1,0.1,0.2,0.1,0.3c0,0.1-0.1,0.2-0.2,0.2l-1.5,0.4C44.8,241.9,44.6,241.8,44.5,241.7C44.5,241.7,44.5,241.7,44.5,241.7z"/>
		<path class="st7" d="M41.6,301.6l-3.2,6.9l-5.2-2.4l4-5.2L41.6,301.6z"/>
		<path class="st9" d="M36.2,306.3l3.9-0.5c0,0,2.7,6.4,0.7,6.8c-2,0.3-17.8,1.9-17.8-0.2c0-2,6.5-4.6,6.5-4.6l4.5-3.2L36.2,306.3z"
			/>
		<path class="st9" d="M66.5,257c0,0,4.7,7.1-5.4,11.5L50.5,284l-8.9,19.4l-5.4-2l9.4-29.4l5.4-13.2l2.5-4.1L66.5,257z"/>
		<path class="st7" d="M39.2,300.4l-3.6,6.7l-5-2.7l4.4-5L39.2,300.4z"/>
		<path class="st9" d="M33.6,304.8l3.9-0.3c0,0,2.3,6.6,0.2,6.8c-2,0.2-17.8,0.7-17.7-1.3s6.8-4.1,6.8-4.1l4.7-2.9L33.6,304.8z"/>
		<path class="st9" d="M67,257.5c0,0,4.2,7.4-6.1,11.1l-11.7,14.8l-10.1,18.8l-5.2-2.4l11.3-28.7l6.2-12.8l2.8-3.9L67,257.5z"/>
		<path class="st7" d="M62.8,224.3l-3.2,6.3l8.5,1.3l-0.1-8.5L62.8,224.3z"/>
		<path class="st7" d="M64.6,226.9c3.3,0,5.9-2.7,5.9-6s-2.6-6-5.9-6c-3.3,0-5.9,2.7-5.9,6S61.3,226.9,64.6,226.9z"/>
		<path class="st8" d="M68.4,259l1-15.9c0.8-3.8,0.6-7.8-0.8-11.4l-0.3-3.8l-7.7,0.5l-3.3,5.3l-3.1,12.6l-0.7,8.5L68.4,259z"/>
		<path class="st7" d="M45.8,246.7c0.7-0.1,1.5,0,2.2,0.2l5.3-0.6l8.5-1.8c0,0-2.5-6.4-1-8.1c1.5-1.7,7.4,0,7.4,0s1.2,12.2-1.7,13
			c-2.8,0.8-10.9,0.5-10.9,0.5l-1,0l-6.2,0.4c-0.6,0.4-1.3,0.7-2.1,0.8c-1.8,0.2-3.5-0.5-3.6-1.7C42.6,248.1,44,246.9,45.8,246.7z"
			/>
		<path class="st8" d="M59.8,239.6l0.3-6.3l2.1-1.2c2.6-1.5,5.9,0.1,6.4,3.1l0.5,3L59.8,239.6z"/>
		<path class="st3" d="M69.2,224.6c0,0,0.5-2.8-1.1-3c-1.6-0.2-3.3-3.5-3.3-3.5s-5.7-1-5.9,1.4s-0.1,1.9-0.1,1.9s-1.4-0.6-0.8-3
			c0.2-0.7,0.5-1.3,1-1.9c1.5-1.8,3.8-2.6,6.1-2.3c1,0.1,3.8,1,4.4,1.7C70.9,217.6,71.5,222.7,69.2,224.6z"/>
		<path class="st3" d="M49.7,295.1c-1,0-1.9-0.5-2.4-1.5c-0.5-0.9-0.5-2,0.1-2.9l1.8-2.9c0.5-0.8,1.4-1.3,2.3-1.3h80
			c0.8,0,1.6,0.4,2.1,1l2,2.4c0.7,0.8,0.9,2,0.4,3c-0.5,1-1.4,1.6-2.5,1.6L49.7,295.1L49.7,295.1z"/>
		<path class="st10" d="M145.4,260.7c1.5,1,3.2,1,3.8,0c0.6-0.9-0.1-2.5-1.6-3.5c-0.6-0.4-1.3-0.6-1.9-0.7l-6.3-4l-1.8,3l6.4,3.7
			C144.3,259.8,144.8,260.3,145.4,260.7z"/>
		<path class="st8" d="M127.5,250.7l15.4,8l1.3-3.7l-10.5-8.3l-0.7-12.1c-0.1-1.5-0.8-2.8-2-3.7c-1.2-0.9-2.7-1.1-4.1-0.7
			c-2.5,0.7-4,3.4-3.3,5.9L127.5,250.7z"/>
		<path class="st10" d="M131.3,229.1l0.7-4.5l-4.9-2l-0.7,6.9L131.3,229.1z"/>
		<path class="st9" d="M115.9,255c0,0-1.4,8.8,4.2,9.9c5.6,1.1,18.3,1.8,18.3,1.8l16.4,20.1l3.3-3.7l-14.1-22l-11.4-7.2L115.9,255z"
			/>
		<path class="st9" d="M117.3,253.6c0,0-3.3,8.3,2,10.6c5.2,2.3,17.5,5.7,17.5,5.7l11.7,23.2l4-2.9l-9.1-24.6l-9.5-9.5L117.3,253.6z
			"/>
		<path class="st8" d="M132.2,228.4l-6.3-1.1l-4.3,2.4c-2.5,3.6-2.7,15.2-3.3,19.6l-3.5,8.2l11-1.6l8.9-0.9l-3-19.6L132.2,228.4z"/>
		<path class="st10" d="M130,226c2.7,0,5-2.2,5-5c0-2.8-2.2-5-5-5s-5,2.2-5,5C125.1,223.8,127.3,226,130,226z"/>
		<path class="st9" d="M129.6,214.3c0.1,0.1,0.3,0,0.4-0.2c0-0.2,0-0.3-0.1-0.5c-0.1-0.3-0.2-0.5-0.3-0.8c-0.2-0.6-0.4-1.2-0.8-1.6
			c-0.6-0.7-1.6-0.8-2.5-0.7c-1.1,0.2-2.3,0.8-2.8,1.8c-0.5,1-0.3,2.5,0.7,3.1c-1.4,1.6-1.8,3.3-1.8,5.4c0.1,2.1,2.3,4,3.8,5.5
			c0.3-0.2,0.6-1.1,0.4-1.5c-0.2-0.3,0.1-0.7-0.1-1.1c-0.2-0.3-0.4,0.2-0.2-0.1c0.1-0.2-0.4-0.7-0.2-0.8c1-0.6,1.4-1.9,2-2.9
			c0.8-1.2,2.1-2,3.5-2.1c0.8-0.1,1.6,0.1,2.2,0.5c0.6,0.5,1.1,1.3,0.9,2c0.4-0.4,0.6-1,0.5-1.5c-0.1-0.5-0.4-1.1-0.9-1.3
			c0.3-1,0-2.1-0.6-2.8c-0.7-0.7-3.4-0.6-4.3-0.4"/>
		<path class="st9" d="M129.5,217.9c-1.3,0.1-2.2,1.3-3,2.3c-0.5,0.6-0.9,1.3-0.9,2c0,0.8,0.5,1.4,0.8,2.1c0.4,1.2,0,2.6-0.9,3.4
			c0.9,0.2,1.9-0.5,2.1-1.5c0.2-1.1-0.6-2.1-0.5-3.2c0.1-1,0.8-1.7,1.5-2.4C129.1,219.9,129.7,218.9,129.5,217.9"/>
		<path class="st10" d="M141.5,261.6c1.5,1,3.2,1,3.8,0c0.6-0.9-0.1-2.5-1.6-3.5c-0.6-0.4-1.3-0.6-1.9-0.7l-6.3-4l-1.8,3l6.4,3.7
			C140.4,260.7,140.9,261.2,141.5,261.6z"/>
		<path class="st8" d="M123.6,251.6l15.4,8l1.3-3.7l-10.5-8.3l-0.7-12.1c-0.1-1.5-0.8-2.8-2-3.7c-1.2-0.9-2.7-1.1-4.1-0.7
			c-2.5,0.7-4,3.4-3.3,5.9L123.6,251.6z"/>
		<path class="st9" d="M149,290l0.4,0.2c0,0,2.4-1.4,3.7,0c1.2,1.4,2.1,4.9,2.1,4.9s5.1,4.2,2.1,4.2c-2.2,0-7.5-2.5-10-3.7
			c-0.8-0.4-1.2-1.3-0.9-2.2c0.3-0.7,0.6-1.4,0.9-1.7c0.3-0.3,0.6-0.8,0.7-1.3C148.1,290,148.6,289.7,149,290z"/>
		<path class="st9" d="M155.9,283.3l0.4,0.2c0,0,2.4-1.4,3.7,0c1.2,1.4,2.1,4.9,2.1,4.9s5.1,4.2,2.1,4.2c-2.2,0-7.5-2.5-10-3.7
			c-0.8-0.4-1.2-1.3-0.9-2.2c0.3-0.7,0.6-1.4,0.9-1.7c0.4-0.3,0.6-0.8,0.7-1.3C154.9,283.3,155.4,283,155.9,283.3z"/>
	</g>
</g>
<path class="st1" d="M163,46.5v25h4v-25H163z"/>
<path class="st1" d="M163,7.5v25h4v-25H163z"/>
</svg>
