<svg width="27" height="27" viewBox="0 0 27 27" fill="none" xmlns="http://www.w3.org/2000/svg">
<rect width="27" height="27" rx="10" fill="#38A3A5"/>
<g clip-path="url(#clip0_65_415)">
<path d="M18.965 17.1141C18.6132 17.1141 18.3786 17.3572 18.3786 17.7217V19.5446H9.17273V17.9648C9.17273 17.6002 8.93818 17.3572 8.58636 17.3572C8.23455 17.3572 8 17.6002 8 17.9648V20.1522C8 20.5167 8.23455 20.7598 8.58636 20.7598H18.965C19.3168 20.7598 19.5514 20.5167 19.5514 20.1522V17.7217C19.5514 17.4179 19.2582 17.1141 18.965 17.1141Z" fill="white"/>
<path d="M10.6974 12.4355C10.8734 12.4355 10.9906 12.3748 11.1079 12.2533L13.1602 10.1266V17.9648C13.1602 18.3293 13.3947 18.5724 13.7465 18.5724C14.0984 18.5724 14.3329 18.3293 14.3329 17.9648V10.0659L16.3852 12.1925C16.6197 12.4355 16.9715 12.4355 17.2061 12.1925C17.4406 11.9495 17.4406 11.5849 17.2061 11.3418L14.157 8.18228C13.9224 7.93924 13.5706 7.93924 13.3361 8.18228L10.287 11.4026C10.0524 11.6457 10.0524 12.0102 10.287 12.2533C10.4043 12.3748 10.5802 12.4355 10.6974 12.4355Z" fill="white"/>
</g>
<defs>
<clipPath id="clip0_65_415">
<rect width="12" height="13" fill="white" transform="translate(8 8)"/>
</clipPath>
</defs>
</svg>
