<svg width="12" height="16" viewBox="0 0 12 16" fill="none" xmlns="http://www.w3.org/2000/svg">
<path d="M7.26343 5.63171C7.26343 6.53288 6.53288 7.26343 5.63171 7.26343C4.73054 7.26343 4 6.53288 4 5.63171C4 4.73054 4.73054 4 5.63171 4C6.53288 4 7.26343 4.73054 7.26343 5.63171Z" stroke="black" stroke-width="8"/>
<path d="M11.2634 6.58571C10.7941 10.0578 6.57033 15.0179 5.63171 15.0179C4.69309 15.0179 0.469309 10.0578 0 6.58568C0 3.29841 2.5214 9.56178 5.63171 9.56178C8.74202 9.56178 11.2634 3.29844 11.2634 6.58571Z" fill="black"/>
<path d="M11.2634 6.58571C10.7941 10.0578 6.57033 15.0179 5.63171 15.0179C4.69309 15.0179 0.469309 10.0578 0 6.58568C0 3.29841 2.5214 9.56178 5.63171 9.56178C8.74202 9.56178 11.2634 3.29844 11.2634 6.58571Z" fill="black"/>
</svg>
