<svg width="32" height="32" viewBox="0 0 32 32" fill="none" xmlns="http://www.w3.org/2000/svg">
<circle cx="16" cy="16" r="14" fill="#636363"/>
<path fill-rule="evenodd" clip-rule="evenodd" d="M16.0001 6.75C16.2432 6.75 16.4763 6.84658 16.6482 7.01848L20.3149 10.6851C20.6729 11.0431 20.6729 11.6235 20.3149 11.9815C19.9569 12.3395 19.3765 12.3395 19.0185 11.9815L16.9167 9.87969V17.75C16.9167 18.2563 16.5063 18.6667 16.0001 18.6667C15.4938 18.6667 15.0834 18.2563 15.0834 17.75V9.87969L12.9815 11.9815C12.6236 12.3395 12.0432 12.3395 11.6852 11.9815C11.3272 11.6235 11.3272 11.0431 11.6852 10.6851L15.3519 7.01848C15.5238 6.84658 15.757 6.75 16.0001 6.75ZM8.6667 16.8333C9.17296 16.8333 9.58337 17.2437 9.58337 17.75C9.58337 18.6458 9.58781 18.9598 9.63621 19.2032C9.8532 20.294 10.706 21.1468 11.7969 21.3639C12.0402 21.4123 12.3542 21.4167 13.25 21.4167H18.7501C19.6458 21.4167 19.9599 21.4123 20.2032 21.3639C21.2941 21.1468 22.1469 20.294 22.3638 19.2032C22.4122 18.9598 22.4167 18.6458 22.4167 17.75C22.4167 17.2437 22.8271 16.8333 23.3334 16.8333C23.8397 16.8333 24.2501 17.2437 24.2501 17.75C24.2501 17.7859 24.2501 17.8212 24.2501 17.8561C24.2502 18.6056 24.2503 19.1164 24.162 19.5609C23.8003 21.379 22.379 22.8003 20.5608 23.1619C20.1164 23.2504 19.6056 23.2502 18.8562 23.25C18.8213 23.25 18.7859 23.25 18.7501 23.25H13.25C13.2141 23.25 13.1788 23.25 13.1439 23.25C12.3944 23.2502 11.8836 23.2504 11.4392 23.1619C9.62103 22.8003 8.19975 21.379 7.8381 19.5609C7.74971 19.1164 7.74982 18.6056 7.75002 17.8561C7.75003 17.8212 7.75004 17.7859 7.75004 17.75C7.75004 17.2437 8.16044 16.8333 8.6667 16.8333Z" fill="white"/>
</svg>
