<svg id="Layer_1" data-name="Layer 1" xmlns="http://www.w3.org/2000/svg" viewBox="0 0 223.71 219.32"><path d="M188.14,169.52h48.18v86.57H188.14Z" transform="translate(-90.89 -48.55)" style="fill:#f26122"/><path d="M191.2,212.81a55.24,55.24,0,0,1,21-43.29,55.07,55.07,0,1,0,0,86.57A55,55,0,0,1,191.2,212.81Z" transform="translate(-90.89 -48.55)" style="fill:#ea1d25"/><path d="M301.32,212.81a55,55,0,0,1-89,43.28,55.19,55.19,0,0,0,0-86.57,55,55,0,0,1,89,43.29Z" transform="translate(-90.89 -48.55)" style="fill:#f69e1e"/><g id="g4158"><polygon id="polygon9" points="96.94 71.36 78.82 71.36 90.15 1.27 108.28 1.27 96.94 71.36" style="fill:#0458a0"/><path id="path11" d="M253.52,51.53a44.59,44.59,0,0,0-16.25-3c-17.9,0-30.5,9.54-30.58,23.18-.15,10.07,9,15.66,15.89,19S232,96.42,232,99.47c-.07,4.7-5.67,6.86-10.88,6.86-7.24,0-11.11-1.11-17-3.73l-2.38-1.12-2.54,15.74c4.25,1.93,12.08,3.65,20.21,3.73,19,0,31.4-9.4,31.54-23.94.08-8-4.77-14.09-15.21-19.09-6.34-3.2-10.22-5.36-10.22-8.65.08-3,3.29-6,10.44-6a30.76,30.76,0,0,1,13.5,2.68l1.64.74,2.46-15.13Z" transform="translate(-90.89 -48.55)" style="fill:#0458a0"/><path id="path13" d="M277.61,95.07c1.49-4,7.23-19.61,7.23-19.61-.07.15,1.49-4.1,2.39-6.71l1.26,6s3.44,16.78,4.18,20.28ZM300,49.82H286c-4.32,0-7.61,1.26-9.47,5.81L249.57,119.9h19l3.8-10.51h23.27c.52,2.46,2.16,10.51,2.16,10.51H314.6L300,49.82Z" transform="translate(-90.89 -48.55)" style="fill:#0458a0"/><path id="path15" d="M154.57,49.82,136.82,97.61l-1.94-9.69c-3.28-11.19-13.57-23.34-25-29.38l16.25,61.29h19.17l28.48-70Z" transform="translate(-90.89 -48.55)" style="fill:#0458a0"/><path id="path17" d="M120.34,49.82H91.19l-.3,1.41c22.74,5.82,37.8,19.84,44,36.69l-6.33-32.21c-1.05-4.48-4.26-5.75-8.21-5.89Z" transform="translate(-90.89 -48.55)" style="fill:#faa71b"/></g></svg>