<?xml version="1.0" encoding="utf-8"?>
<!-- Generator: Adobe Illustrator 26.0.2, SVG Export Plug-In . SVG Version: 6.00 Build 0)  -->
<svg version="1.1" id="Layer_1" xmlns="http://www.w3.org/2000/svg" xmlns:xlink="http://www.w3.org/1999/xlink" x="0px" y="0px"
	 viewBox="0 0 80 62" style="enable-background:new 0 0 80 62;" xml:space="preserve">
<style type="text/css">
	.st0{clip-path:url(#SVGID_00000067951692449449815630000014071059020016635064_);}
	.st1{fill:#BF7365;}
	.st2{fill:#D36527;}
	.st3{fill:#E3E3E3;}
	.st4{fill:#E9E8E9;}
	.st5{fill:#F79764;}
	.st6{fill:#676025;}
	.st7{opacity:0.1;}
	.st8{fill:#171649;}
	.st9{opacity:0.45;}
	.st10{fill:#F04E23;}
	.st11{fill:#F9A87B;}
	.st12{fill:#B85742;}
	.st13{fill:#95422D;}
	.st14{fill:#F47721;}
	.st15{fill:#F2F2F2;}
</style>
<g>
	<defs>
		<rect id="SVGID_1_" y="0" width="80" height="62"/>
	</defs>
	<clipPath id="SVGID_00000052782864732460343350000009276089249012756387_">
		<use xlink:href="#SVGID_1_"  style="overflow:visible;"/>
	</clipPath>
	<g style="clip-path:url(#SVGID_00000052782864732460343350000009276089249012756387_);">
		<path class="st1" d="M48.7,48.5c0,0-11.5-16.8-15.7-16.5c-4.2,0.3-18.7,24.9-18.7,24.9s-6.3,2.7-7,3.4c-0.7,0.7,12.7,0.3,12.7,0.3
			s-0.9-3.9,0.1-4.9c9-8.8,9.9-10.8,11.3-12.2c1.4-1.4,14,11.6,14,11.6L48.7,48.5z"/>
		<path class="st2" d="M19.6,56.3c0.8-0.3,1.4,0.2,1.5,1.1c0.3,1.8,1,4.3,0.8,4.5C21.5,62,6.6,62,5.7,61.2c-0.9-0.8,7.6-5.3,9.2-5
			C16.3,56.5,16.1,57.5,19.6,56.3z"/>
		<path class="st3" d="M21.8,60c0.1,0.9,0.2,1.7,0.1,1.8C21.5,62,6.6,62.1,5.7,61.3c-0.1-0.1-0.1-0.3,0.1-0.6
			C8.8,61.1,18.3,60.3,21.8,60z"/>
		<path class="st4" d="M5.8,60.7c3.6,0.6,12.5-0.3,16-0.7C11.6,60.5,8,60.9,5.8,60.7z"/>
		<path class="st5" d="M46.4,47.1c0,0-11.8-14.5-16.5-15.1c-4.8-0.6-17.2,23.1-19,24.9c-1.8,1.8-7.7,2.6-7.7,3.5
			c0,0.9,13.9,0.4,13.9,0.4s-0.1-2.6,0.3-4.6c0.4-1.9,9.8-10,11.9-13c2.1-2.9,12.8,13,12.8,13L46.4,47.1z"/>
		<path class="st1" d="M38.7,38.5c0.8,2.2,2.3,4.2,5,6.5c0.3,0,0.5-0.1,0.8-0.2C43,43.1,40.9,40.7,38.7,38.5z"/>
		<path class="st6" d="M45.2,43.5c0,0-5.5,4.9-6.5,10.1c0,0,7,7.8,12.5,8.4c4.7,0.5,12.6-1.7,14.5-5.7c1.9-4.1-11.6-7.2-11.6-7.2
			L45.2,43.5z"/>
		<g class="st7">
			<path class="st8" d="M59.2,57c1.4,0.5,2.8,0.9,4.2,1.3c0.7-0.6,1.2-1.3,1.6-2.1c1.9-4.1-11.6-7.2-11.6-7.2S53.3,54.8,59.2,57z"/>
		</g>
		<path class="st6" d="M62.7,24.9c0,0-5.6,9.4-4.8,13.5c0.8,4.1-4.4,10.5-4.4,10.5s2.6,7.2,11.6,7.2s8.3-27.8,5.8-30.3
			C68.4,23.4,67.9,23.7,62.7,24.9z"/>
		<g class="st7">
			<path class="st8" d="M70.9,25.9c-1.2-1.2-1.9-1.7-2.9-1.8c-0.5,0.1-0.8,14.7-4,20.3c-3.8,6.7-10.5,4.6-10.5,4.6s1.2,3.4,4.9,5.6
				c1.1,0.3,2.1,0.4,2.9,0.1c4.4-1.5,9.3-15.4,10-20C71.7,32.7,72.2,27.1,70.9,25.9z"/>
		</g>
		<path class="st5" d="M59.2,20.9c0,0,1.1,0.8,1.6,1.4c1,1.4,1.7,2.4,1.2,4.1c-0.4,1.3-0.8,3.1-0.8,4.9c0,3.1,6.4-7.2,6.4-7.2
			l-4.5-6L59.2,20.9z"/>
		<g class="st9">
			<path class="st10" d="M63.3,18.2L63.2,18l-3.9,2.8c0,0,1.1,0.8,1.6,1.4c0.2,0.2,0.3,0.5,0.5,0.7c0.8-1.2,1.6-2.6,1.9-3.6
				C63.4,19,63.4,18.6,63.3,18.2z"/>
		</g>
		<path class="st11" d="M56.9,10.7c0,0-1.4,0.8-1.7,4.4c-0.3,3.6,0.4,7.3,2,7.6c1.5,0.3,5.2-1.8,6.4-3.6c1.2-1.8-0.7-7.5-2.7-8.4
			C58.9,9.8,56.9,10.7,56.9,10.7z"/>
		<path class="st12" d="M67.4,7.9c0.5,0.4,1.3,2.5,1.3,4.9s-3.2,6.8-4.1,7.1c-0.8,0.4-4.3-1.9-5.2-7.1c-0.2-1.2-2.7-1.9-2.7-1.9
			s-0.3-2.3,2-3.2c2.2-0.8,2.9-0.9,4.7-1.4C65.2,5.8,66.5,7,67.4,7.9z"/>
		<path class="st12" d="M65.3,6.7C64.7,4.4,66-0.2,69.8,0c3.9,0.2,6.1,3,5.8,5.6c-0.3,2.6-1.5,6.5-4.9,6c-3.4-0.5-4.7-0.5-4.7-0.5
			C65.4,7.7,65.3,6.7,65.3,6.7z"/>
		<path class="st13" d="M67.5,8.1c0.4,0.9,0.7,2.5,0.3,4.3c-0.5,2.6-3.6,6.4-4.6,7.1c0.6,0.4,1.1,0.5,1.4,0.4
			c0.8-0.4,4.1-4.8,4.1-7.1C68.7,10.7,68,8.8,67.5,8.1z"/>
		<path class="st5" d="M69.1,24.5c-1.4-0.4-2.8,0.5-3.2,1.9c-0.5,1.8-1.5,5.1-2.5,9.4c-1.7,6.9-1.3,9.9-5.4,9.9
			c-4.2,0-10.1-1.6-11-2.5c-0.9-0.9-2.2-3.2-3.5-3.8c-0.6-0.3-4.4-1.4-4.7-1.2c0,0.5,0.6,1.1,2.2,3c0.3,0.3,1.8,2,2.9,3
			c1.1,1.1,13.2,9.1,17.6,7.7c4.4-1.4,9.3-13.9,10-18.1C72.1,29.9,72.1,25.3,69.1,24.5z"/>
		<path class="st14" d="M15.5,55.7c0.9-0.3,1.8,0.3,2,1.2c0.2,0.9,0.3,2,0.5,3c0.1,1.1-0.3,1.6-0.4,1.6C17.1,61.7,1.2,62,0.1,61.1
			c-1-0.9,8.4-5.9,10.2-5.5C11.9,55.9,11.6,57.1,15.5,55.7z"/>
		<path class="st15" d="M17.9,59.8c0.1,1,0.2,1.9,0.1,2C17.6,62,1.1,62.1,0.1,61.3c-0.2-0.1-0.1-0.4,0.1-0.7
			C3.5,61.1,14.1,60.2,17.9,59.8z"/>
		<path class="st4" d="M0.2,60.6c4,0.7,13.8-0.3,17.7-0.8C6.7,60.4,2.7,60.8,0.2,60.6z"/>
	</g>
</g>
</svg>
