<svg width="100" height="91" viewBox="0 0 100 91" fill="none" xmlns="http://www.w3.org/2000/svg">
<path d="M17.9978 91.3135C17.9978 91.3135 1.1345 73.2074 15.1457 53.6052C27.5776 36.2127 42.0722 37.4017 52.7065 44.4598C57.2359 47.466 70.2944 44.8306 81.4088 27.1327C96.566 2.99787 149.106 17.6357 139.526 54.7675C134.89 72.7365 153.635 73.3898 144.084 91.3517L17.9978 91.3135Z" fill="#EBF3FA"/>
<path d="M50.3825 56.3103C50.3825 56.3103 42.0401 44.4353 38.7797 45.9749C35.5193 47.5145 50.3825 56.3103 50.3825 56.3103Z" fill="#A8D29F"/>
<path d="M49.8523 53.1196C49.8523 53.1196 48.5778 44.1909 46.569 44.5409C44.5602 44.8915 49.8523 53.1196 49.8523 53.1196Z" fill="#A8D29F"/>
<path d="M42.799 80.9492C42.799 80.9492 43.6009 76.9762 40.4869 76.477C40.4869 76.477 38.3747 76.4035 37.1312 77.2C37.1312 77.2 40.6633 79.2393 40.243 79.873C39.8228 80.5066 36.4714 77.317 36.4714 77.317C36.4714 77.317 32.6851 78.9752 31.8402 80.1762C31.8402 80.1762 36.3146 80.9732 35.7512 81.4844C35.1883 81.995 30.4939 81.382 30.4939 81.382C30.4939 81.382 27.4687 83.8188 28.7862 85.7585C30.1036 87.6982 31.6072 87.6845 32.0836 87.347C32.5594 87.01 34.8894 84.2249 35.1856 84.6038C35.4817 84.9827 34.4566 87.3339 33.2437 88.095C33.2437 88.095 37.0528 89.3776 38.1999 87.7521C39.3469 86.127 38.8167 84.8629 39.544 83.8716C40.2713 82.8802 41.1054 82.4153 40.9562 83.0958C40.807 83.7758 39.2871 85.2053 39.2805 86.5048C39.274 87.8043 39.145 88.7505 40.6296 87.6013C42.1141 86.452 44.0854 83.7948 43.4425 82.3723C42.799 80.9492 42.799 80.9492 42.799 80.9492Z" fill="#82B378"/>
<path d="M30.4591 84.895C30.4591 84.895 39.3432 79.4728 42.799 80.9492C42.799 80.9492 43.9847 82.0293 46.0246 82.4768L46.5613 82.9374C46.5613 82.9374 44.0615 82.1573 43.4419 82.3717C43.4419 82.3717 42.5252 78.6628 30.4591 84.895Z" fill="#82B378"/>
<path d="M46.0246 82.4762C46.0246 82.4762 48.7787 82.8285 50.3525 85.3283L50.0167 85.5575C50.0167 85.5575 47.9066 83.2427 46.1999 82.8295C44.4932 82.4169 46.0246 82.4762 46.0246 82.4762Z" fill="#82B378"/>
<path d="M45.5182 69.3563C45.5182 69.3563 51.9693 65.7436 48.9588 60.8408C48.9588 60.8408 46.5504 57.8302 43.9699 57.0561C43.9699 57.0561 45.3462 64.3674 43.9699 64.5394C42.5937 64.7115 43.0238 56.282 43.0238 56.282C43.0238 56.282 36.2286 53.0134 33.5621 53.2715C33.5621 53.2715 37.7769 60.4107 36.4006 60.2387C35.0244 60.0666 30.2936 52.8414 30.2936 52.8414C30.2936 52.8414 23.3263 51.5511 22.2081 55.6799C21.0899 59.8086 22.8963 61.873 23.9284 62.131C24.9606 62.389 31.5838 62.303 31.4117 63.1632C31.2397 64.0233 26.7669 65.3996 24.2725 64.6254C24.2725 64.6254 27.025 71.4206 30.6376 71.0766C34.2502 70.7325 35.3684 68.4961 37.6048 68.3241C39.8412 68.1521 41.4755 68.7542 40.3573 69.3563C39.2391 69.9584 35.4545 69.5533 33.6481 71.0891C31.8418 72.6248 30.3796 73.571 33.7342 74.2591C37.0887 74.9472 43.1098 74.5172 44.314 71.9367C45.5182 69.3563 45.5182 69.3563 45.5182 69.3563Z" fill="#A8D29F"/>
<path d="M25.3907 56.9701C25.3907 56.9701 43.4539 62.8191 45.5183 69.3563C45.5183 69.3563 45.4323 72.2808 47.2386 75.6354V76.9256C47.2386 76.9256 45.3462 72.5388 44.3141 71.9367C44.3141 71.9367 48.3568 66.2597 25.3907 56.9701Z" fill="#82B378"/>
<path d="M47.2386 75.6354C47.2386 75.6354 50.0243 79.8654 48.4363 85.0148L47.7198 84.8221C47.7198 84.8221 48.4156 79.1506 46.9582 76.2979C45.5003 73.4453 47.2386 75.6354 47.2386 75.6354Z" fill="#82B378"/>
<path d="M52.075 39.1307L42.4228 89.0314C42.2263 90.0462 43.0043 90.9886 44.0381 90.9886H49.1287L52.075 39.1307Z" fill="#ED7D2B"/>
<path d="M104.546 41.3933C104.546 41.3933 97.8753 39.9283 99.2227 34.7875C99.2227 34.7875 100.545 31.4809 102.619 30.1052C102.619 30.1052 103.361 36.9368 104.624 36.7202C105.886 36.5035 103.247 29.1672 103.247 29.1672C103.247 29.1672 108.378 24.457 110.805 23.9703C110.805 23.9703 108.992 31.4106 110.162 30.8896C111.333 30.3687 113.578 22.7139 113.578 22.7139C113.578 22.7139 119.392 19.7066 121.486 23.0563C123.581 26.4065 122.538 28.7153 121.694 29.22C120.851 29.7246 114.973 31.4232 115.356 32.1374C115.739 32.8517 120.061 32.8696 122.059 31.5168C122.059 31.5168 121.446 38.2614 118.161 38.925C114.875 39.5886 113.287 37.9118 111.264 38.3588C109.241 38.8058 107.958 39.7764 109.108 40.0089C110.258 40.2413 113.495 38.8694 115.503 39.7432C117.511 40.6164 119.057 41.0612 116.277 42.5686C113.496 44.0761 108.058 45.3091 106.302 43.3509C104.546 41.3933 104.546 41.3933 104.546 41.3933Z" fill="#DFEBFD"/>
<path d="M52.191 38.9287L45.7932 87.923C45.5809 89.5475 46.8461 90.9879 48.4842 90.9879H57.8696L52.5781 38.7512L52.191 38.9287Z" fill="#78ACEA"/>
<path d="M52.191 38.9287L49.3269 87.611C49.2191 89.4435 50.6759 90.9885 52.5116 90.9885H66.5092L52.191 38.9287Z" fill="#699DEE"/>
<path d="M52.0831 39.3262L53.4757 87.6111C53.3679 89.4436 54.8247 90.9885 56.6604 90.9885H70.658L52.0831 39.3262Z" fill="#5288D8"/>
<path d="M119.1 90.9885H63.9091C62.5312 90.9885 61.3499 90.0037 61.1022 88.6481L52.7043 42.7216C52.3232 40.6365 53.9243 38.7153 56.0442 38.7153H110.585C111.963 38.7153 113.145 39.7001 113.392 41.0557L121.907 87.6214C122.228 89.3738 120.882 90.9885 119.1 90.9885Z" fill="#D7E9FF"/>
<path d="M53.797 48.686H114.826L113.262 40.0148C113.126 39.2625 112.471 38.7153 111.707 38.7153H52.5922C52.2694 38.7153 52.025 39.0082 52.0832 39.3256L53.797 48.686Z" fill="#F99746"/>
<path d="M55.2238 36.1061C53.7648 36.1061 52.578 37.2923 52.578 38.7513H53.0865C53.0865 37.5727 54.0452 36.6135 55.2243 36.6135C56.4035 36.6135 57.3627 37.5721 57.3627 38.7513C57.3627 38.9881 57.3241 39.2157 57.2528 39.428C57.0426 40.0562 56.5488 40.5554 55.9233 40.7716C55.7404 40.8347 55.5472 40.8745 55.3463 40.8859V41.3944C55.5809 41.384 55.8074 41.3427 56.0224 41.2746C56.8804 41.0029 57.5511 40.3039 57.783 39.4285C57.8402 39.2124 57.8706 38.9854 57.8706 38.7519C57.8696 37.2923 56.6828 36.1061 55.2238 36.1061Z" fill="#78ACEA"/>
<path d="M56.042 41.1216C56.042 41.1744 56.0343 41.2261 56.0213 41.2746C55.9543 41.5168 55.7322 41.6949 55.4687 41.6949C55.1524 41.6949 54.896 41.4384 54.896 41.1221C54.896 40.8058 55.1524 40.5494 55.4687 40.5494C55.6533 40.5494 55.8171 40.6371 55.9222 40.7726C55.9979 40.8685 56.042 40.9899 56.042 41.1216Z" fill="#78ACEA"/>
<path d="M64.71 36.1061C63.251 36.1061 62.0642 37.2923 62.0642 38.7513H62.5721C62.5721 37.5727 63.5314 36.6135 64.7105 36.6135C65.8892 36.6135 66.8484 37.5721 66.8484 38.7513C66.8484 38.9881 66.8097 39.2157 66.7384 39.428C66.5283 40.0562 66.0345 40.5554 65.4101 40.7716C65.2272 40.8347 65.0334 40.8745 64.8319 40.8859V41.3944C65.0666 41.384 65.293 41.3427 65.5081 41.2746C66.3666 41.0029 67.0373 40.3039 67.2692 39.4285C67.3264 39.2124 67.3569 38.9854 67.3569 38.7519C67.3563 37.2923 66.169 36.1061 64.71 36.1061Z" fill="#78ACEA"/>
<path d="M65.5277 41.1216C65.5277 41.1744 65.5201 41.2261 65.507 41.2746C65.44 41.5168 65.2185 41.6949 64.9544 41.6949C64.6381 41.6949 64.3817 41.4384 64.3817 41.1221C64.3817 40.8058 64.6381 40.5494 64.9544 40.5494C65.1395 40.5494 65.3039 40.6371 65.4084 40.7726C65.4836 40.8685 65.5277 40.9899 65.5277 41.1216Z" fill="#78ACEA"/>
<path d="M74.1967 36.1061C72.7377 36.1061 71.5509 37.2923 71.5509 38.7513H72.0588C72.0588 37.5727 73.0175 36.6135 74.1972 36.6135C75.3758 36.6135 76.3351 37.5721 76.3351 38.7513C76.3351 38.9881 76.2964 39.2157 76.2251 39.428C76.015 40.0562 75.5212 40.5554 74.8968 40.7716C74.7139 40.8347 74.5201 40.8745 74.3186 40.8859V41.3944C74.5527 41.384 74.7797 41.3427 74.9948 41.2746C75.8538 41.0024 76.5234 40.3039 76.7554 39.4285C76.8125 39.2124 76.843 38.9854 76.843 38.7519C76.8419 37.2923 75.6551 36.1061 74.1967 36.1061Z" fill="#78ACEA"/>
<path d="M75.0144 41.1216C75.0144 41.1744 75.0067 41.2261 74.9937 41.2746C74.9267 41.5168 74.7046 41.6949 74.4411 41.6949C74.1248 41.6949 73.8684 41.4384 73.8684 41.1221C73.8684 40.8058 74.1248 40.5494 74.4411 40.5494C74.6257 40.5494 74.7895 40.6371 74.8951 40.7726C74.9703 40.8685 75.0144 40.9899 75.0144 41.1216Z" fill="#78ACEA"/>
<path d="M83.6822 36.1061C82.2232 36.1061 81.037 37.2923 81.037 38.7513H81.5449C81.5449 37.5727 82.5036 36.6135 83.6828 36.6135C84.8614 36.6135 85.8212 37.5721 85.8212 38.7513C85.8212 38.9881 85.7825 39.2157 85.7112 39.428C85.5011 40.0562 85.0073 40.5554 84.3818 40.7716C84.1989 40.8347 84.0056 40.8745 83.8047 40.8859V41.3944C84.0388 41.384 84.2658 41.3427 84.4809 41.2746C85.3399 41.0024 86.0095 40.3039 86.2414 39.4285C86.2986 39.2124 86.3291 38.9854 86.3291 38.7519C86.3285 37.2923 85.1418 36.1061 83.6822 36.1061Z" fill="#78ACEA"/>
<path d="M84.5009 41.1216C84.5009 41.1744 84.4933 41.2261 84.4803 41.2746C84.4133 41.5168 84.1912 41.6949 83.9277 41.6949C83.6114 41.6949 83.355 41.4384 83.355 41.1221C83.355 40.8058 83.6114 40.5494 83.9277 40.5494C84.1122 40.5494 84.2761 40.6371 84.3812 40.7726C84.4568 40.8685 84.5009 40.9899 84.5009 41.1216Z" fill="#78ACEA"/>
<path d="M93.169 36.1061C91.71 36.1061 90.5232 37.2923 90.5232 38.7513H91.0311C91.0311 37.5727 91.9903 36.6135 93.1695 36.6135C94.3487 36.6135 95.3074 37.5721 95.3074 38.7513C95.3074 38.9881 95.2687 39.2157 95.1974 39.428C94.9873 40.0562 94.4935 40.5554 93.868 40.7716C93.6861 40.8347 93.4918 40.8745 93.2909 40.8859V41.3944C93.5261 41.384 93.752 41.3427 93.9671 41.2746C94.8261 41.0029 95.4963 40.3039 95.7282 39.4285C95.7854 39.2124 95.8158 38.9854 95.8158 38.7519C95.8147 37.2923 94.628 36.1061 93.169 36.1061Z" fill="#78ACEA"/>
<path d="M93.9867 41.1216C93.9867 41.1744 93.979 41.2261 93.966 41.2746C93.899 41.5168 93.6774 41.6949 93.4134 41.6949C93.0971 41.6949 92.8407 41.4384 92.8407 41.1221C92.8407 40.8058 93.0971 40.5494 93.4134 40.5494C93.5985 40.5494 93.7629 40.6371 93.8669 40.7726C93.9426 40.8685 93.9867 40.9899 93.9867 41.1216Z" fill="#78ACEA"/>
<path d="M89.0893 64.9755H86.0042C85.6476 64.9755 85.2992 64.6837 85.2306 64.3271L84.6356 61.242C84.567 60.8854 84.8021 60.5936 85.1587 60.5936H88.2438C88.6004 60.5936 88.9488 60.8854 89.0174 61.242L89.6124 64.3271C89.6816 64.6842 89.4459 64.9755 89.0893 64.9755Z" fill="#AFCDFB"/>
<path d="M96.8742 64.9755H93.7891C93.4325 64.9755 93.0841 64.6837 93.0155 64.3271L92.4205 61.242C92.3519 60.8854 92.587 60.5936 92.9436 60.5936H96.0287C96.3853 60.5936 96.7337 60.8854 96.8023 61.242L97.3974 64.3271C97.4665 64.6842 97.2313 64.9755 96.8742 64.9755Z" fill="#AFCDFB"/>
<path d="M65.7345 64.9755H62.6494C62.2929 64.9755 61.9444 64.6837 61.8758 64.3271L61.2808 61.242C61.2122 60.8854 61.4474 60.5936 61.804 60.5936H64.8891C65.2457 60.5936 65.5941 60.8854 65.6627 61.242L66.2577 64.3271C66.3269 64.6842 66.0911 64.9755 65.7345 64.9755Z" fill="#AFCDFB"/>
<path d="M62.3533 55.7136H61.0277C60.8741 55.7136 60.725 55.5884 60.695 55.4349L60.4392 54.1093C60.4098 53.9558 60.511 53.8306 60.664 53.8306H61.9896C62.1431 53.8306 62.2923 53.9558 62.3222 54.1093L62.5781 55.4349C62.6075 55.5884 62.5062 55.7136 62.3533 55.7136Z" fill="#F99746"/>
<path d="M73.5195 64.9755H70.4343C70.0778 64.9755 69.7299 64.6837 69.6608 64.3271L69.0657 61.242C68.9971 60.8854 69.2323 60.5936 69.5889 60.5936H72.674C73.0306 60.5936 73.379 60.8854 73.4476 61.242L74.0426 64.3271C74.1118 64.6842 73.876 64.9755 73.5195 64.9755Z" fill="#AFCDFB"/>
<path d="M81.3044 64.9755H78.2193C77.8627 64.9755 77.5143 64.6837 77.4457 64.3271L76.8506 61.242C76.782 60.8854 77.0172 60.5936 77.3738 60.5936H80.4589C80.8155 60.5936 81.1639 60.8854 81.2325 61.242L81.8275 64.3271C81.8967 64.6842 81.6609 64.9755 81.3044 64.9755Z" fill="#AFCDFB"/>
<path d="M87.7968 58.2751H84.7117C84.3551 58.2751 84.0067 57.9833 83.9381 57.6267L83.3431 54.5416C83.2745 54.185 83.5097 53.8932 83.8662 53.8932H86.9513C87.3079 53.8932 87.6563 54.185 87.7249 54.5416L88.32 57.6267C88.3891 57.9833 88.1534 58.2751 87.7968 58.2751Z" fill="#AFCDFB"/>
<path d="M95.5817 58.2751H92.4966C92.14 58.2751 91.7916 57.9833 91.723 57.6267L91.128 54.5416C91.0594 54.185 91.2946 53.8932 91.6511 53.8932H94.7363C95.0928 53.8932 95.4413 54.185 95.5098 54.5416L96.1049 57.6267C96.174 57.9833 95.9383 58.2751 95.5817 58.2751Z" fill="#AFCDFB"/>
<path d="M103.367 58.2751H100.282C99.9249 58.2751 99.5765 57.9833 99.5079 57.6267L98.9129 54.5416C98.8443 54.185 99.0795 53.8932 99.4361 53.8932H102.521C102.878 53.8932 103.226 54.185 103.295 54.5416L103.89 57.6267C103.959 57.9833 103.723 58.2751 103.367 58.2751Z" fill="#78ACEA"/>
<path d="M90.4595 72.0777H87.3744C87.0178 72.0777 86.67 71.7859 86.6008 71.4293L86.0058 68.3442C85.9372 67.9876 86.1724 67.6958 86.529 67.6958H89.6141C89.9706 67.6958 90.3191 67.9876 90.3877 68.3442L90.9827 71.4293C91.0513 71.7859 90.8161 72.0777 90.4595 72.0777Z" fill="#AFCDFB"/>
<path d="M98.2444 72.0777H95.1593C94.8027 72.0777 94.4543 71.7859 94.3857 71.4293L93.7907 68.3442C93.7221 67.9876 93.9573 67.6958 94.3139 67.6958H97.399C97.7556 67.6958 98.104 67.9876 98.1726 68.3442L98.7676 71.4293C98.8367 71.7859 98.601 72.0777 98.2444 72.0777Z" fill="#AFCDFB"/>
<path d="M67.1042 72.0777H64.0191C63.6625 72.0777 63.3141 71.7859 63.2455 71.4293L62.6504 68.3442C62.5818 67.9876 62.817 67.6958 63.1736 67.6958H66.2587C66.6153 67.6958 66.9637 67.9876 67.0323 68.3442L67.6273 71.4293C67.6965 71.7859 67.4607 72.0777 67.1042 72.0777Z" fill="#AFCDFB"/>
<path d="M74.8891 72.0777H71.804C71.4474 72.0777 71.099 71.7859 71.0304 71.4293L70.4354 68.3442C70.3668 67.9876 70.6019 67.6958 70.9585 67.6958H74.0436C74.4002 67.6958 74.7486 67.9876 74.8172 68.3442L75.4122 71.4293C75.4814 71.7859 75.2462 72.0777 74.8891 72.0777Z" fill="#AFCDFB"/>
<path d="M82.6746 72.0777H79.5895C79.2329 72.0777 78.8845 71.7859 78.8159 71.4293L78.2209 68.3442C78.1523 67.9876 78.3875 67.6958 78.744 67.6958H81.8291C82.1857 67.6958 82.5342 67.9876 82.6027 68.3442L83.1978 71.4293C83.2664 71.7859 83.0312 72.0777 82.6746 72.0777Z" fill="#AFCDFB"/>
<path d="M91.8292 79.1795H88.744C88.3875 79.1795 88.039 78.8877 87.9705 78.5311L87.3754 75.446C87.3068 75.0894 87.542 74.7976 87.8986 74.7976H90.9837C91.3403 74.7976 91.6887 75.0894 91.7573 75.446L92.3523 78.5311C92.4215 78.8877 92.1857 79.1795 91.8292 79.1795Z" fill="#AFCDFB"/>
<path d="M99.6141 79.1795H96.529C96.1724 79.1795 95.824 78.8877 95.7554 78.5311L95.1603 75.446C95.0917 75.0894 95.3269 74.7976 95.6835 74.7976H98.7686C99.1252 74.7976 99.4736 75.0894 99.5422 75.446L100.137 78.5311C100.206 78.8877 99.9706 79.1795 99.6141 79.1795Z" fill="#AFCDFB"/>
<path d="M68.4745 79.1795H65.3894C65.0328 79.1795 64.6844 78.8877 64.6158 78.5311L64.0208 75.446C63.9522 75.0894 64.1874 74.7976 64.544 74.7976H67.6291C67.9857 74.7976 68.3335 75.0894 68.4027 75.446L68.9977 78.5311C69.0663 78.8877 68.8311 79.1795 68.4745 79.1795Z" fill="#AFCDFB"/>
<path d="M76.2594 79.1795H73.1743C72.8178 79.1795 72.4699 78.8877 72.4007 78.5311L71.8057 75.446C71.7371 75.0894 71.9723 74.7976 72.3289 74.7976H75.414C75.7706 74.7976 76.119 75.0894 76.1876 75.446L76.7826 78.5311C76.8518 78.8877 76.616 79.1795 76.2594 79.1795Z" fill="#F99746"/>
<path d="M84.0442 79.1795H80.9591C80.6025 79.1795 80.2541 78.8877 80.1855 78.5311L79.5905 75.446C79.5219 75.0894 79.7571 74.7976 80.1137 74.7976H83.1988C83.5554 74.7976 83.9038 75.0894 83.9724 75.446L84.5674 78.5311C84.6365 78.8877 84.4008 79.1795 84.0442 79.1795Z" fill="#AFCDFB"/>
<path d="M93.1216 85.8804H90.0365C89.6799 85.8804 89.3315 85.5886 89.2629 85.232L88.6679 82.1469C88.5993 81.7903 88.8345 81.4985 89.1911 81.4985H92.2762C92.6328 81.4985 92.9812 81.7903 93.0498 82.1469L93.6448 85.232C93.7139 85.5886 93.4788 85.8804 93.1216 85.8804Z" fill="#AFCDFB"/>
<path d="M100.907 85.8804H97.8219C97.4653 85.8804 97.1169 85.5886 97.0483 85.232L96.4533 82.1469C96.3847 81.7903 96.6199 81.4985 96.9765 81.4985H100.062C100.418 81.4985 100.767 81.7903 100.835 82.1469L101.43 85.232C101.499 85.5886 101.264 85.8804 100.907 85.8804Z" fill="#AFCDFB"/>
<path d="M69.7669 85.8804H66.6818C66.3252 85.8804 65.9768 85.5886 65.9082 85.232L65.3132 82.1469C65.2446 81.7903 65.4797 81.4985 65.8363 81.4985H68.9214C69.278 81.4985 69.6264 81.7903 69.695 82.1469L70.2901 85.232C70.3592 85.5886 70.1235 85.8804 69.7669 85.8804Z" fill="#AFCDFB"/>
<path d="M77.5518 85.8804H74.4667C74.1101 85.8804 73.7617 85.5886 73.6931 85.232L73.0981 82.1469C73.0295 81.7903 73.2647 81.4985 73.6212 81.4985H76.7064C77.0629 81.4985 77.4113 81.7903 77.4799 82.1469L78.075 85.232C78.1441 85.5886 77.9084 85.8804 77.5518 85.8804Z" fill="#AFCDFB"/>
<path d="M85.3367 85.8804H82.2516C81.895 85.8804 81.5466 85.5886 81.478 85.232L80.883 82.1469C80.8144 81.7903 81.0496 81.4985 81.4062 81.4985H84.4913C84.8478 81.4985 85.1963 81.7903 85.2649 82.1469L85.8599 85.232C85.929 85.5886 85.6933 85.8804 85.3367 85.8804Z" fill="#AFCDFB"/>
<path d="M71.7038 54.4958H63.5307C63.4104 54.4958 63.3119 54.3973 63.3119 54.277C63.3119 54.1566 63.4104 54.0581 63.5307 54.0581H71.7038C71.8241 54.0581 71.9227 54.1566 71.9227 54.277C71.9227 54.3973 71.8241 54.4958 71.7038 54.4958Z" fill="#AFCDFB"/>
<path d="M71.9526 55.486H63.779C63.6587 55.486 63.5602 55.3875 63.5602 55.2672C63.5602 55.1469 63.6587 55.0483 63.779 55.0483H71.9521C72.0724 55.0483 72.1709 55.1469 72.1709 55.2672C72.1715 55.3875 72.0729 55.486 71.9526 55.486Z" fill="#AFCDFB"/>
<path d="M62.9379 47.1253H60.1331C59.9034 47.1253 59.7156 46.9375 59.7156 46.7077C59.7156 46.478 59.9034 46.2902 60.1331 46.2902H62.9379C63.1676 46.2902 63.3554 46.478 63.3554 46.7077C63.3554 46.9375 63.1676 47.1253 62.9379 47.1253Z" fill="white"/>
<path d="M70.634 47.1253H67.8293C67.5996 47.1253 67.4117 46.9375 67.4117 46.7077C67.4117 46.478 67.5996 46.2902 67.8293 46.2902H70.634C70.8638 46.2902 71.0516 46.478 71.0516 46.7077C71.0516 46.9375 70.8638 47.1253 70.634 47.1253Z" fill="white"/>
<path d="M78.3302 47.1253H75.5255C75.2957 47.1253 75.1079 46.9375 75.1079 46.7077C75.1079 46.478 75.2957 46.2902 75.5255 46.2902H78.3302C78.5599 46.2902 78.7478 46.478 78.7478 46.7077C78.7478 46.9375 78.5599 47.1253 78.3302 47.1253Z" fill="white"/>
<path d="M86.0259 47.1253H83.2211C82.9914 47.1253 82.8036 46.9375 82.8036 46.7077C82.8036 46.478 82.9914 46.2902 83.2211 46.2902H86.0259C86.2556 46.2902 86.4434 46.478 86.4434 46.7077C86.444 46.9375 86.2556 47.1253 86.0259 47.1253Z" fill="white"/>
<path d="M93.7221 47.1253H90.9173C90.6876 47.1253 90.4998 46.9375 90.4998 46.7077C90.4998 46.478 90.6876 46.2902 90.9173 46.2902H93.7221C93.9518 46.2902 94.1396 46.478 94.1396 46.7077C94.1396 46.9375 93.9518 47.1253 93.7221 47.1253Z" fill="white"/>
<path d="M101.418 47.1253H98.6135C98.3837 47.1253 98.1959 46.9375 98.1959 46.7077C98.1959 46.478 98.3837 46.2902 98.6135 46.2902H101.418C101.648 46.2902 101.836 46.478 101.836 46.7077C101.836 46.9375 101.648 47.1253 101.418 47.1253Z" fill="white"/>
<path d="M91.3751 58.336C90.7556 58.336 90.3048 58.1395 90.0587 57.7579C89.5873 57.0262 89.9515 56.0005 91.1399 54.7098C92.0082 53.7669 93.0225 53.02 93.0323 53.0123C93.072 52.9829 93.1281 52.9916 93.1575 53.0314C93.1869 53.0711 93.1782 53.1272 93.1384 53.1566C93.0987 53.1855 89.1904 56.0795 90.2095 57.661C90.5324 58.1618 91.2232 58.195 91.7464 58.1346C92.7149 58.0224 93.9773 57.5009 95.1238 56.7398C96.3106 55.9515 97.1463 55.0636 97.4174 54.3026C97.5949 53.8033 97.5399 53.45 97.2541 53.2519C96.8844 52.996 96.1119 52.996 95.1881 53.2513C94.3029 53.4958 93.4122 53.9362 92.8635 54.4011C92.8259 54.4332 92.7693 54.4283 92.7372 54.3908C92.7051 54.3532 92.71 54.2966 92.7475 54.2645C93.3148 53.7843 94.2316 53.3303 95.1402 53.0793C96.1293 52.806 96.9367 52.8153 97.3559 53.1054C97.6041 53.2769 97.8453 53.6346 97.5862 54.363C97.3025 55.1594 96.4413 56.08 95.2229 56.889C94.0541 57.6653 92.7622 58.1977 91.7671 58.3126C91.6299 58.3278 91.4992 58.336 91.3751 58.336Z" fill="#C65447"/>
<path d="M25.3999 90.7533C25.1381 90.3418 24.3498 89.2737 23.2997 89.4152C22.1553 89.5693 24.5632 90.3233 25.3003 90.7566C25.1365 90.7588 24.996 90.7457 24.8926 90.7087C24.3999 90.5328 23.5561 90.8698 23.286 90.988H27.9777C27.945 90.8758 27.8606 90.6924 27.6423 90.559C27.565 90.5116 27.4104 90.5051 27.2106 90.5203C27.4893 90.1915 27.6832 89.1408 26.9068 89.4114C26.3396 89.609 26.3412 90.2509 26.3967 90.6303C26.2759 90.6494 26.1539 90.6684 26.0325 90.6858C25.799 89.4952 24.9726 86.0067 23.2986 85.9136C21.6011 85.8194 24.738 89.5317 25.7827 90.719C25.6482 90.7359 25.5192 90.7479 25.3999 90.7533Z" fill="#82B378"/>
</svg>
