<?xml version="1.0" encoding="utf-8"?>
<!-- Generator: Adobe Illustrator 26.0.2, SVG Export Plug-In . SVG Version: 6.00 Build 0)  -->
<svg version="1.1" id="Layer_1" xmlns="http://www.w3.org/2000/svg" xmlns:xlink="http://www.w3.org/1999/xlink" x="0px" y="0px"
	 viewBox="0 0 106.9 90.2" style="enable-background:new 0 0 106.9 90.2;" xml:space="preserve">
<style type="text/css">
	.st0{fill:#EBEBEB;}
	.st1{fill:#E6E6E6;}
	.st2{fill:#F5F5F5;}
	.st3{fill:#F0F0F0;}
	.st4{fill:#38A3A5;}
	.st5{opacity:0.2;enable-background:new    ;}
	.st6{opacity:0.5;fill:#FFFFFF;enable-background:new    ;}
	.st7{opacity:0.3;fill:#38A3A5;enable-background:new    ;}
	.st8{opacity:0.7;fill:#38A3A5;enable-background:new    ;}
	.st9{opacity:0.2;fill:#38A3A5;enable-background:new    ;}
</style>
<path class="st0" d="M28,83.7h-8.7v0.1L28,83.7L28,83.7z"/>
<path class="st0" d="M83.5,84.2h-1.7v0.1L83.5,84.2L83.5,84.2z"/>
<path class="st1" d="M42.5,81.9h-4.2V18.2h2.4L42.5,81.9z"/>
<path class="st1" d="M40.2,20.4h-4c-0.6,0-1.1-0.2-1.6-0.6c-0.4-0.4-0.6-1-0.6-1.6c0-0.6,0.2-1.1,0.6-1.6c0.4-0.4,1-0.6,1.6-0.6h4
	c0.6,0,1.1,0.2,1.6,0.6c0.4,0.4,0.6,1,0.6,1.6c0,0.6-0.2,1.1-0.6,1.6C41.4,20.2,40.8,20.4,40.2,20.4z"/>
<path class="st2" d="M35.9,20.6c1.2,0,2.1-1.1,2.1-2.4c0-1.3-0.9-2.4-2.1-2.4c-1.2,0-2.1,1.1-2.1,2.4C33.7,19.5,34.7,20.6,35.9,20.6
	z"/>
<path class="st2" d="M35.9,18.2L18,0l10.5,15.9L35.9,18.2z"/>
<path class="st2" d="M35.9,18.2L29,42.8l8.5-17L35.9,18.2z"/>
<path class="st2" d="M35.9,18.2l24.7-6.4l-19,1.1L35.9,18.2z"/>
<path class="st1" d="M79.6,81.9h-3.6v-59h2L79.6,81.9z"/>
<path class="st1" d="M77.7,24.8h-3.4c-0.5,0-1-0.2-1.3-0.5c-0.3-0.3-0.5-0.8-0.5-1.3c0-0.5,0.2-1,0.5-1.3c0.3-0.3,0.8-0.5,1.3-0.5
	h3.4c0.5,0,1,0.2,1.3,0.5c0.3,0.3,0.5,0.8,0.5,1.3c0,0.5-0.2,1-0.5,1.3C78.7,24.6,78.2,24.8,77.7,24.8z"/>
<path class="st2" d="M74,24.9c1,0,1.8-0.9,1.8-2c0-1.1-0.8-2-1.8-2c-1,0-1.8,0.9-1.8,2C72.2,24.1,73,24.9,74,24.9z"/>
<path class="st2" d="M74,23l9-19.5l-9.3,13L74,23z"/>
<path class="st2" d="M74,23l-21.4,2l16,1.6L74,23z"/>
<path class="st2" d="M74,23l12.5,17.5l-6.6-14.6L74,23z"/>
<path class="st3" d="M62.1,67.7c0,0,15.9-8.3-0.8-18.3C44.6,39.4,41.2,57,41.2,57s-2.7-16.3-16.5-8.2c-10.7,6.2-8.5,14-7,17.2
	c-1.6-2.4-5.7-6.2-13.4-1.3c-10.4,6.7,1.4,17.2,1.4,17.2h62.9C76.6,68.6,62.1,67.7,62.1,67.7z"/>
<path class="st1" d="M23.7,20.1c-0.7-1.4-2.1-2.5-3.5-2.5c-0.4,0-0.8,0.1-1.2,0.3c-0.4,0.2-0.7,0.5-0.9,0.8c-0.4-0.4-1-0.6-1.6-0.6
	c-1,0-1.7,0.7-1.8,1.7c-0.4-0.2-0.9-0.3-1.4-0.4c-1,0-1.7,0.4-2.1,1c-0.2-0.1-0.4-0.2-0.6-0.2c-0.1,0-0.2,0-0.4,0
	c-0.1,0-0.2,0.1-0.3,0.2c-0.1,0.1-0.1,0.2-0.2,0.3c0,0.1,0,0.2,0,0.4l0,0.1h15.8C25.5,20.7,24.4,20.1,23.7,20.1z"/>
<path class="st2" d="M67.4,35.5c-0.1,0-0.2,0-0.2,0c-0.7-0.9-1.6-1.4-2.4-1.4c-0.3,0-0.6,0.1-0.8,0.2c-0.2,0.1-0.4,0.3-0.6,0.6
	c-1.3-1.7-2.9-2.7-4.5-2.7c-1.2,0-2.2,0.7-2.7,1.8c-0.7-0.7-1.5-1-2.3-1c-1.4,0-2.2,1.2-2.2,2.9c-0.6-0.4-1.3-0.6-2.1-0.7
	c-1.4-0.1-2.3,0.6-2.8,1.7c-0.3-0.2-0.6-0.3-0.9-0.3c-0.7,0-1.2,0.6-1,1.4h25.8c-0.3-0.7-0.8-1.2-1.4-1.7
	C68.8,35.9,68.2,35.6,67.4,35.5z"/>
<path class="st4" d="M62.6,69.8h-8.1c-3.5,0-6.3,4.6-6.3,10.2c0,5.6,2.8,10.2,6.3,10.2h8.1c3.5,0,6.3-4.6,6.3-10.2
	C68.9,74.4,66.1,69.8,62.6,69.8z"/>
<path class="st5" d="M62.6,69.8h-8.1c-3.5,0-6.3,4.6-6.3,10.2c0,5.6,2.8,10.2,6.3,10.2h8.1c3.5,0,6.3-4.6,6.3-10.2
	C68.9,74.4,66.1,69.8,62.6,69.8z"/>
<path class="st4" d="M25.9,69.8h-8.1c-3.5,0-6.3,4.6-6.3,10.2c0,5.6,2.8,10.2,6.3,10.2h8.1c3.5,0,6.3-4.6,6.3-10.2
	C32.2,74.4,29.4,69.8,25.9,69.8z"/>
<path class="st5" d="M25.9,69.8h-8.1c-3.5,0-6.3,4.6-6.3,10.2c0,5.6,2.8,10.2,6.3,10.2h8.1c3.5,0,6.3-4.6,6.3-10.2
	C32.2,74.4,29.4,69.8,25.9,69.8z"/>
<path class="st4" d="M106.9,72.4c-0.3-3.5-1.2-6.9-2.7-10.1l-0.6-1.4H88.2l8,23c2.8-0.7,5.4-2.1,7.6-4l0.2-0.2
	c1-0.9,1.9-2.1,2.4-3.3C106.8,75.2,107,73.8,106.9,72.4z"/>
<path class="st6" d="M106.9,72.4c-0.3-3.5-1.2-6.9-2.7-10.1l-0.6-1.4H88.2l8,23c2.8-0.7,5.4-2.1,7.6-4l0.2-0.2
	c1-0.9,1.9-2.1,2.4-3.3C106.8,75.2,107,73.8,106.9,72.4z"/>
<path class="st4" d="M86.5,90.2c-3.5,0-6.3-4.6-6.3-10.2c0-5.6,2.8-10.2,6.3-10.2h8.1v20.4H86.5z"/>
<path class="st4" d="M94.6,90.2c3.5,0,6.3-4.6,6.3-10.2c0-5.6-2.8-10.2-6.3-10.2c-3.5,0-6.3,4.6-6.3,10.2
	C88.3,85.6,91.1,90.2,94.6,90.2z"/>
<path class="st4" d="M40.4,83.9L25.2,59.6c0,0,12-12.1,38.3-12.1c22.7,0,36.3,7.5,40.1,13.5l-9,8.8c-8.7,0-8.7,9.2-9.9,13.1
	c-0.1,0.3-0.3,0.5-0.5,0.7c-0.2,0.2-0.5,0.3-0.9,0.3L40.4,83.9"/>
<path class="st6" d="M40.4,83.9L25.2,59.6c0,0,12-12.1,38.3-12.1c22.7,0,36.3,7.5,40.1,13.5l-9,8.8c-8.7,0-8.7,9.2-9.9,13.1
	c-0.1,0.3-0.3,0.5-0.5,0.7c-0.2,0.2-0.5,0.3-0.9,0.3L40.4,83.9"/>
<path class="st4" d="M49.7,90.2c-3.5,0-6.3-4.6-6.3-10.2c0-5.6,2.8-10.2,6.3-10.2h8.1v20.4H49.7z"/>
<path class="st4" d="M57.9,90.2c3.5,0,6.3-4.6,6.3-10.2c0-5.6-2.8-10.2-6.3-10.2c-3.5,0-6.3,4.6-6.3,10.2
	C51.6,85.6,54.4,90.2,57.9,90.2z"/>
<path class="st5" d="M57.9,86.5c2.4,0,4.4-2.9,4.4-6.5c0-3.6-2-6.5-4.4-6.5s-4.4,2.9-4.4,6.5C53.5,83.6,55.4,86.5,57.9,86.5z"/>
<path class="st4" d="M46.8,81.9c0.8-4.6,5.3-12.1,11.1-12.1l5.6-10.2H25.2c-2.4,0-13.8,4.1-18,8.3C4.3,70.7,4,73.7,3.6,81.1
	c-0.1,1.5,1.3,2.8,3,2.8C20.7,83.9,37.8,84,44,84C45.4,84,46.6,83.1,46.8,81.9z"/>
<path class="st6" d="M46.8,81.9c0.8-4.6,5.3-12.1,11.1-12.1l5.6-10.2H25.2c-2.4,0-13.8,4.1-18,8.3C4.3,70.7,4,73.7,3.6,81.1
	c-0.1,1.5,1.3,2.8,3,2.8C20.7,83.9,37.8,84,44,84C45.4,84,46.6,83.1,46.8,81.9z"/>
<path class="st7" d="M63.4,47.4c-26.1,0-38,12-38.3,12.1h26.4c0,0,11.4-9.8,18.9-11.9C68.2,47.5,65.9,47.4,63.4,47.4z"/>
<path class="st8" d="M30.8,70c3.6-1.4,14.6-5.2,17.5-4.2c3,1-4.2,4.6-6.1,5.1c-1.8,0.5-3-0.5-5.7,0.8C33.8,73,26.4,71.6,30.8,70z"/>
<path class="st9" d="M75.6,84.1C75.6,84.1,75.6,84,75.6,84.1c-0.1,0-0.1-0.1-0.1-0.1c0,0,0-0.1,0-0.1c0.1-0.1,5.4-8.1,5.4-24.3
	c0,0,0-0.1,0-0.1c0,0,0.1,0,0.1,0c0,0,0,0,0.1,0c0,0,0,0,0,0c0,0,0,0,0,0c0,0,0,0,0,0.1c0,16.3-5.4,24.4-5.5,24.4
	C75.7,84,75.7,84,75.6,84.1C75.7,84.1,75.7,84.1,75.6,84.1z"/>
<path class="st9" d="M17.7,71.6L17.7,71.6l-7.3-1.7c0,0,0,0-0.1,0c0,0,0,0,0,0c0,0,0,0,0-0.1c0,0,0,0,0-0.1c0,0,0,0,0-0.1
	c0,0,0,0,0,0c0,0,0,0,0.1,0c0,0,0,0,0.1,0l7.2,1.7l12-1.4c0,0,0,0,0.1,0c0,0,0,0,0.1,0c0,0,0,0,0,0s0,0,0,0.1c0,0,0,0,0,0.1
	c0,0,0,0,0,0.1s0,0-0.1,0c0,0,0,0-0.1,0L17.7,71.6L17.7,71.6z"/>
<path class="st4" d="M74.1,62.3h3.6c0.1,0,0.3-0.1,0.4-0.2c0.1-0.1,0.1-0.2,0.2-0.4c0-0.1-0.1-0.3-0.2-0.4c-0.1-0.1-0.2-0.1-0.4-0.1
	h-3.6c-0.1,0-0.3,0.1-0.4,0.1c-0.1,0.1-0.1,0.2-0.1,0.4c0,0.1,0.1,0.3,0.1,0.4C73.8,62.3,74,62.3,74.1,62.3z"/>
<path class="st4" d="M90,62.3h3.6c0.1,0,0.3-0.1,0.4-0.1c0.1-0.1,0.2-0.2,0.2-0.4c0-0.1-0.1-0.3-0.2-0.4c-0.1-0.1-0.2-0.1-0.4-0.1
	H90c-0.1,0-0.3,0.1-0.4,0.1c-0.1,0.1-0.1,0.2-0.2,0.4c0,0.1,0.1,0.3,0.2,0.4S89.9,62.3,90,62.3z"/>
<path class="st8" d="M10.2,70.1c-0.7-0.5-2-1.2-3.4-1.9C6.1,69,5.4,69.9,5,71c0.5,0.1,1.1,0.4,1.5,0.7C8.3,73.1,13,71.9,10.2,70.1z"
	/>
<path class="st7" d="M56.2,59.6h36.9c1.9,0,3.7-0.5,5.4-1.4c0,0-6-5.4-18-7.8c-4.9-1-9.6-1.3-11.1-1.2C66,50.9,60.8,54.8,56.2,59.6z
	"/>
<path class="st4" d="M34.1,82.2H7.9c-0.1,0-0.3,0-0.4-0.1s-0.2-0.2-0.3-0.3c-0.1-0.1-0.1-0.3-0.1-0.4c0-0.1,0.1-0.3,0.2-0.4L8,80.2
	c0.1-0.1,0.2-0.1,0.2-0.2C8.4,80,8.5,80,8.6,80h24.9c0.1,0,0.2,0,0.3,0.1c0.1,0,0.2,0.1,0.2,0.2l0.7,0.8c0.1,0.1,0.2,0.2,0.2,0.4
	c0,0.1,0,0.3-0.1,0.4c-0.1,0.1-0.1,0.2-0.3,0.3C34.4,82.2,34.3,82.2,34.1,82.2z"/>
</svg>
