<svg width="98" height="86" viewBox="0 0 98 86" fill="none" xmlns="http://www.w3.org/2000/svg">
<path d="M132 78.0405H0V78.106H132V78.0405Z" fill="#EBEBEB"/>
<path d="M36.3423 79.8384H27.5986V79.9039H36.3423V79.8384Z" fill="#EBEBEB"/>
<path d="M55.9389 82.2566H45.1809V82.3221H55.9389V82.2566Z" fill="#EBEBEB"/>
<path d="M27.3345 81.4303H13.8494V81.4958H27.3345V81.4303Z" fill="#EBEBEB"/>
<path d="M118.774 80.2819H94.1846V80.3474H118.774V80.2819Z" fill="#EBEBEB"/>
<path d="M91.8349 80.2819H90.1638V80.3474H91.8349V80.2819Z" fill="#EBEBEB"/>
<path d="M84.3321 81.396H73.1833V81.4615H84.3321V81.396Z" fill="#EBEBEB"/>
<path d="M62.568 66.2661H11.5922C11.1929 66.2654 10.8101 66.1063 10.528 65.8237C10.2459 65.5411 10.0874 65.158 10.0874 64.7587V-6.89883C10.0909 -7.29588 10.2509 -7.67552 10.5326 -7.9553C10.8144 -8.23507 11.1951 -8.39239 11.5922 -8.39307H62.568C62.9678 -8.39307 63.3512 -8.23425 63.6339 -7.95155C63.9166 -7.66885 64.0754 -7.28542 64.0754 -6.88563V64.7587C64.0754 65.1585 63.9166 65.5419 63.6339 65.8246C63.3512 66.1073 62.9678 66.2661 62.568 66.2661ZM11.5922 -8.34027C11.2104 -8.33957 10.8444 -8.18739 10.5747 -7.91715C10.3049 -7.6469 10.1534 -7.28066 10.1534 -6.89883V64.7587C10.1534 65.1405 10.3049 65.5068 10.5747 65.777C10.8444 66.0473 11.2104 66.1994 11.5922 66.2001H62.568C62.95 66.1994 63.3163 66.0473 63.5864 65.7772C63.8566 65.507 64.0087 65.1408 64.0094 64.7587V-6.89883C64.0087 -7.28091 63.8566 -7.64714 63.5864 -7.91731C63.3163 -8.18748 62.95 -8.33957 62.568 -8.34027H11.5922Z" fill="#EBEBEB"/>
<path d="M119.674 66.2661H68.6954C68.2958 66.2654 67.9128 66.1064 67.6303 65.8238C67.3477 65.5413 67.1887 65.1583 67.188 64.7587V-6.89883C67.1922 -7.29612 67.3527 -7.67576 67.6349 -7.95546C67.9171 -8.23517 68.2981 -8.39239 68.6954 -8.39307H119.674C120.07 -8.39169 120.451 -8.23407 120.732 -7.95437C121.013 -7.67467 121.173 -7.29542 121.176 -6.89883V64.7587C121.176 65.1576 121.018 65.5402 120.736 65.8227C120.455 66.1053 120.073 66.2647 119.674 66.2661ZM68.6954 -8.34027C68.3133 -8.33957 67.9471 -8.18748 67.6769 -7.91731C67.4068 -7.64714 67.2547 -7.28091 67.254 -6.89883V64.7587C67.2547 65.1408 67.4068 65.507 67.6769 65.7772C67.9471 66.0473 68.3133 66.1994 68.6954 66.2001H119.674C120.056 66.1994 120.422 66.0473 120.692 65.7772C120.962 65.507 121.115 65.1408 121.115 64.7587V-6.89883C121.115 -7.28091 120.962 -7.64714 120.692 -7.91731C120.422 -8.18748 120.056 -8.33957 119.674 -8.34027H68.6954Z" fill="#EBEBEB"/>
<path d="M50.886 78.0405H46.6409V14.3109H49.0169L50.886 78.0405Z" fill="#E6E6E6"/>
<path d="M48.6314 16.5101H44.6476C44.065 16.508 43.5069 16.2756 43.0949 15.8636C42.6829 15.4517 42.4506 14.8935 42.4485 14.3109C42.4506 13.7283 42.6829 13.1702 43.0949 12.7582C43.5069 12.3463 44.065 12.1139 44.6476 12.1118H48.6314C49.214 12.1139 49.7721 12.3463 50.1841 12.7582C50.596 13.1702 50.8284 13.7283 50.8305 14.3109C50.8284 14.8935 50.596 15.4517 50.1841 15.8636C49.7721 16.2756 49.214 16.508 48.6314 16.5101Z" fill="#E6E6E6"/>
<path d="M44.2384 16.7027C45.4077 16.7027 46.3557 15.6461 46.3557 14.3426C46.3557 13.0391 45.4077 11.9824 44.2384 11.9824C43.069 11.9824 42.1211 13.0391 42.1211 14.3426C42.1211 15.6461 43.069 16.7027 44.2384 16.7027Z" fill="#F5F5F5"/>
<path d="M44.2384 14.3426L26.3472 -3.89185L36.8464 11.9983L44.2384 14.3426Z" fill="#F5F5F5"/>
<path d="M44.2385 14.3426L37.3904 38.9527L45.9017 21.9141L44.2385 14.3426Z" fill="#F5F5F5"/>
<path d="M44.2385 14.3426L68.9753 7.96704L49.962 9.11544L44.2385 14.3426Z" fill="#F5F5F5"/>
<path d="M88.0096 78.0406H84.4351V19.0366H86.4362L88.0096 78.0406Z" fill="#E6E6E6"/>
<path d="M86.1114 20.8872H82.7586C82.2685 20.8872 81.7985 20.6925 81.4519 20.3459C81.1053 19.9993 80.9106 19.5293 80.9106 19.0392C80.9106 18.549 81.1053 18.079 81.4519 17.7324C81.7985 17.3859 82.2685 17.1912 82.7586 17.1912H86.1114C86.6016 17.1912 87.0716 17.3859 87.4182 17.7324C87.7647 18.079 87.9594 18.549 87.9594 19.0392C87.9594 19.5293 87.7647 19.9993 87.4182 20.3459C87.0716 20.6925 86.6016 20.8872 86.1114 20.8872Z" fill="#E6E6E6"/>
<path d="M82.4129 21.0482C83.397 21.0482 84.1949 20.1594 84.1949 19.0629C84.1949 17.9665 83.397 17.0776 82.4129 17.0776C81.4287 17.0776 80.6309 17.9665 80.6309 19.0629C80.6309 20.1594 81.4287 21.0482 82.4129 21.0482Z" fill="#F5F5F5"/>
<path d="M82.4129 19.0629L91.3704 -0.483643L82.0354 12.5474L82.4129 19.0629Z" fill="#F5F5F5"/>
<path d="M82.4129 19.0629L61.0078 21.0772L76.9613 22.648L82.4129 19.0629Z" fill="#F5F5F5"/>
<path d="M82.4128 19.0629L94.8631 36.5925L88.2446 21.9933L82.4128 19.0629Z" fill="#F5F5F5"/>
<path d="M72.0877 67.1109C72.0877 67.1109 59.2362 60.7274 72.7161 53.0899C86.1959 45.4524 88.9837 58.9269 88.9837 58.9269C88.9837 58.9269 91.1406 46.4344 102.287 52.6358C110.885 57.4195 109.151 63.3542 107.918 65.8173C109.238 64.0089 112.548 61.0891 118.742 64.8563C127.145 69.9806 117.586 78.0379 117.586 78.0379H66.8315C60.3609 67.8079 72.0877 67.1109 72.0877 67.1109Z" fill="#E6E6E6"/>
<path d="M70.4879 63.7661C70.4879 63.7661 86.4151 55.4369 69.6959 45.4629C52.9768 35.489 49.5369 53.0899 49.5369 53.0899C49.5369 53.0899 46.8626 36.78 33.0501 44.8769C22.3924 51.1231 24.5361 58.8689 26.0699 62.0844C24.4358 59.7189 20.3279 55.9121 12.6719 60.833C2.25186 67.5228 14.0975 78.0405 14.0975 78.0405H76.9929C85.008 64.6821 70.4879 63.7661 70.4879 63.7661Z" fill="#F0F0F0"/>
<path d="M32.1051 16.1985C31.3871 14.7518 29.9931 13.7222 28.5623 13.7222C28.1487 13.7157 27.7395 13.8081 27.3689 13.9918C26.9984 14.1755 26.677 14.4451 26.4318 14.7782C25.9947 14.4035 25.4418 14.1909 24.8663 14.1763C23.8921 14.1763 23.174 14.8732 23.0183 15.8553C22.569 15.6342 22.0795 15.5066 21.5795 15.4804C20.6053 15.4355 19.8344 15.8368 19.4384 16.4863C19.2559 16.3761 19.0493 16.3118 18.8365 16.2988C18.7152 16.2786 18.5907 16.2892 18.4745 16.3297C18.3583 16.3701 18.2542 16.4391 18.1717 16.5303C18.0891 16.6215 18.0308 16.732 18.0022 16.8516C17.9735 16.9713 17.9753 17.0962 18.0075 17.2149L18.0313 17.3099H33.8317C33.8687 16.7951 32.8021 16.2249 32.1051 16.1985Z" fill="#E6E6E6"/>
<path d="M75.8103 31.5924C75.7348 31.5842 75.6591 31.5798 75.5832 31.5792C74.881 30.7264 73.9992 30.18 73.1755 30.18C72.898 30.1769 72.6245 30.2458 72.3816 30.38C72.1386 30.5141 71.9347 30.709 71.7895 30.9456C70.5091 29.2876 68.8539 28.2105 67.3015 28.2105C66.0528 28.2105 65.1024 28.9128 64.5718 30.0585C63.8484 29.4064 63.0379 29.0184 62.2644 29.0184C60.9075 29.0184 60.0627 30.2222 60.0468 31.9224C59.4109 31.55 58.6986 31.327 57.9639 31.2703C56.6016 31.1937 55.6195 31.888 55.213 33.0153C54.9546 32.8298 54.6508 32.7176 54.3339 32.6906C53.5894 32.6484 53.1749 33.2714 53.3597 34.103H79.2C78.884 33.4388 78.4096 32.8624 77.8185 32.4246C77.2274 31.9868 76.5378 31.701 75.8103 31.5924Z" fill="#F5F5F5"/>
<path d="M65.9999 89.9627C94.2697 89.9627 117.187 88.6247 117.187 86.9743C117.187 85.3238 94.2697 83.9858 65.9999 83.9858C37.7302 83.9858 14.813 85.3238 14.813 86.9743C14.813 88.6247 37.7302 89.9627 65.9999 89.9627Z" fill="#F5F5F5"/>
<path d="M71.016 65.8886H62.8848C59.3973 65.8886 56.5725 70.4637 56.5725 76.108C56.5725 81.7524 59.3973 86.3275 62.8848 86.3275H71.016C74.5034 86.3275 77.3308 81.7524 77.3308 76.108C77.3308 70.4637 74.4981 65.8886 71.016 65.8886Z" fill="#38A3A5"/>
<path opacity="0.2" d="M71.016 65.8886H62.8848C59.3973 65.8886 56.5725 70.4637 56.5725 76.108C56.5725 81.7524 59.3973 86.3275 62.8848 86.3275H71.016C74.5034 86.3275 77.3308 81.7524 77.3308 76.108C77.3308 70.4637 74.4981 65.8886 71.016 65.8886Z" fill="black"/>
<path d="M34.304 65.8886H26.1728C22.6854 65.8886 19.8606 70.4637 19.8606 76.108C19.8606 81.7524 22.6854 86.3275 26.1728 86.3275H34.304C37.7915 86.3275 40.6189 81.7524 40.6189 76.108C40.6189 70.4637 37.7915 65.8886 34.304 65.8886Z" fill="#38A3A5"/>
<path opacity="0.2" d="M34.304 65.8886H26.1728C22.6854 65.8886 19.8606 70.4637 19.8606 76.108C19.8606 81.7524 22.6854 86.3275 26.1728 86.3275H34.304C37.7915 86.3275 40.6189 81.7524 40.6189 76.108C40.6189 70.4637 37.7915 65.8886 34.304 65.8886Z" fill="black"/>
<path d="M115.273 68.5022C114.953 65.0159 114.041 61.6098 112.575 58.4306L111.936 57.0604H96.5474L104.528 80.0284C107.336 79.3272 109.937 77.97 112.118 76.0684L112.303 75.91C113.349 74.9982 114.163 73.8513 114.679 72.5635C115.196 71.2758 115.399 69.8839 115.273 68.5022Z" fill="#38A3A5"/>
<path opacity="0.5" d="M115.273 68.5022C114.953 65.0159 114.041 61.6098 112.575 58.4306L111.936 57.0604H96.5474L104.528 80.0284C107.336 79.3272 109.937 77.97 112.118 76.0684L112.303 75.91C113.349 74.9982 114.163 73.8513 114.679 72.5635C115.196 71.2758 115.399 69.8839 115.273 68.5022Z" fill="white"/>
<path d="M94.8393 86.3275C91.3518 86.3275 88.5244 81.7524 88.5244 76.108C88.5244 70.4637 91.3518 65.8886 94.8393 65.8886H102.941V86.3275H94.8393Z" fill="#38A3A5"/>
<path d="M102.97 86.3275C106.458 86.3275 109.285 81.7521 109.285 76.108C109.285 70.464 106.458 65.8886 102.97 65.8886C99.4828 65.8886 96.6555 70.464 96.6555 76.108C96.6555 81.7521 99.4828 86.3275 102.97 86.3275Z" fill="#38A3A5"/>
<path d="M48.7448 80.0284L33.5596 55.6586C33.5596 55.6586 45.5742 43.5146 71.8158 43.5146C94.5357 43.5146 108.142 51.0175 111.944 57.0631L102.941 65.8912C94.2294 65.8912 94.2769 75.1312 93.081 79.0252C92.9902 79.3184 92.8075 79.5746 92.5597 79.7557C92.312 79.9369 92.0125 80.0335 91.7056 80.0311H48.7448" fill="#38A3A5"/>
<path opacity="0.5" d="M48.7448 80.0284L33.5596 55.6586C33.5596 55.6586 45.5742 43.5146 71.8158 43.5146C94.5357 43.5146 108.142 51.0175 111.944 57.0631L102.941 65.8912C94.2294 65.8912 94.2769 75.1312 93.081 79.0252C92.9902 79.3184 92.8075 79.5746 92.5597 79.7557C92.312 79.9369 92.0125 80.0335 91.7056 80.0311H48.7448" fill="white"/>
<path d="M58.1328 86.3275C54.6453 86.3275 51.8179 81.7524 51.8179 76.108C51.8179 70.4637 54.648 65.8886 58.1328 65.8886H66.2349V86.3275H58.1328Z" fill="#38A3A5"/>
<path d="M66.2639 86.3275C69.7515 86.3275 72.5787 81.7521 72.5787 76.108C72.5787 70.464 69.7515 65.8886 66.2639 65.8886C62.7762 65.8886 59.949 70.464 59.949 76.108C59.949 81.7521 62.7762 86.3275 66.2639 86.3275Z" fill="#38A3A5"/>
<path opacity="0.2" d="M66.2639 82.5708C68.7105 82.5708 70.6938 79.6773 70.6938 76.108C70.6938 72.5388 68.7105 69.6453 66.2639 69.6453C63.8173 69.6453 61.834 72.5388 61.834 76.108C61.834 79.6773 63.8173 82.5708 66.2639 82.5708Z" fill="black"/>
<path d="M55.1469 78.0168C55.9204 73.4496 60.4744 65.8886 66.2349 65.8886L71.8079 55.6586H33.5596C31.1203 55.6586 19.7155 59.7797 15.5627 63.9324C12.6587 66.8364 12.3551 69.7642 12.0119 77.209C11.9433 78.727 13.3399 80.047 15.0189 80.047C29.1323 80.047 46.2132 80.1024 52.4304 80.1209C53.8032 80.113 54.941 79.2391 55.1469 78.0168Z" fill="#38A3A5"/>
<path opacity="0.5" d="M55.1469 78.0168C55.9204 73.4496 60.4744 65.8886 66.2349 65.8886L71.8079 55.6586H33.5596C31.1203 55.6586 19.7155 59.7797 15.5627 63.9324C12.6587 66.8364 12.3551 69.7642 12.0119 77.209C11.9433 78.727 13.3399 80.047 15.0189 80.047C29.1323 80.047 46.2132 80.1024 52.4304 80.1209C53.8032 80.113 54.941 79.2391 55.1469 78.0168Z" fill="white"/>
<path opacity="0.3" d="M71.8078 43.512C45.7273 43.512 33.8262 55.4712 33.5569 55.656H59.941C59.941 55.656 71.293 45.8484 78.8091 43.7601C76.5862 43.5982 74.2525 43.5155 71.8078 43.512Z" fill="#38A3A5"/>
<path opacity="0.7" d="M39.1827 66.0972C42.8022 64.7244 53.7344 60.8726 56.715 61.8732C59.6955 62.8737 52.4778 66.4483 50.6588 66.9235C48.8398 67.3987 47.6492 66.4457 44.9273 67.763C42.2055 69.0804 34.7977 67.7551 39.1827 66.0972Z" fill="#38A3A5"/>
<path opacity="0.2" d="M84.0205 80.1657C83.9924 80.1656 83.9648 80.1574 83.9413 80.1419C83.9111 80.1211 83.8903 80.0892 83.8834 80.0531C83.8764 80.0171 83.884 79.9798 83.9043 79.9492C83.9598 79.87 89.3084 71.8154 89.3084 55.6612C89.3084 55.6241 89.3232 55.5885 89.3494 55.5623C89.3756 55.536 89.4112 55.5213 89.4483 55.5213C89.4666 55.5213 89.4847 55.5249 89.5015 55.532C89.5183 55.5391 89.5336 55.5494 89.5464 55.5624C89.5591 55.5755 89.5692 55.5909 89.5759 55.6079C89.5827 55.6248 89.586 55.643 89.5856 55.6612C89.5856 71.9131 84.1895 80.0284 84.134 80.1076C84.1214 80.1259 84.1044 80.1408 84.0846 80.151C84.0648 80.1611 84.0427 80.1662 84.0205 80.1657Z" fill="#38A3A5"/>
<path opacity="0.2" d="M26.0672 67.697H26.0382L18.7703 66.0233C18.7506 66.0216 18.7315 66.0156 18.7143 66.0059C18.6971 65.9961 18.6822 65.9828 18.6707 65.9668C18.6591 65.9507 18.6512 65.9324 18.6474 65.913C18.6435 65.8936 18.644 65.8737 18.6486 65.8545C18.6532 65.8352 18.6619 65.8173 18.6741 65.8017C18.6863 65.7862 18.7017 65.7734 18.7193 65.7644C18.7368 65.7554 18.7561 65.7502 18.7759 65.7493C18.7956 65.7485 18.8153 65.7518 18.8336 65.7593L26.0751 67.4225L38.0528 66.0549C38.0723 66.0473 38.0933 66.0443 38.1142 66.0461C38.1351 66.0478 38.1553 66.0543 38.1732 66.0651C38.1912 66.0759 38.2064 66.0906 38.2178 66.1082C38.2292 66.1258 38.2364 66.1457 38.2389 66.1665C38.2414 66.1873 38.2391 66.2084 38.2322 66.2282C38.2253 66.2479 38.214 66.2659 38.1991 66.2806C38.1842 66.2953 38.1661 66.3064 38.1462 66.313C38.1264 66.3197 38.1053 66.3217 38.0845 66.3189L26.0831 67.697H26.0672Z" fill="#38A3A5"/>
<path d="M82.4895 58.4359H86.1089C86.2439 58.4352 86.3731 58.3813 86.4685 58.2859C86.5639 58.1905 86.6178 58.0613 86.6185 57.9264C86.6178 57.7915 86.5639 57.6623 86.4685 57.5669C86.3731 57.4715 86.2439 57.4176 86.1089 57.4169H82.4895C82.3546 57.4176 82.2254 57.4715 82.13 57.5669C82.0346 57.6623 81.9807 57.7915 81.98 57.9264C81.9807 58.0613 82.0346 58.1905 82.13 58.2859C82.2254 58.3813 82.3546 58.4352 82.4895 58.4359Z" fill="#38A3A5"/>
<path d="M98.3689 58.4359H101.986C102.121 58.4359 102.251 58.3823 102.347 58.2868C102.443 58.1914 102.497 58.0618 102.498 57.9264C102.497 57.791 102.443 57.6614 102.347 57.5659C102.251 57.4705 102.121 57.4169 101.986 57.4169H98.3689C98.234 57.4176 98.1048 57.4715 98.0094 57.5669C97.914 57.6623 97.8601 57.7915 97.8594 57.9264C97.8601 58.0613 97.914 58.1905 98.0094 58.2859C98.1048 58.3813 98.234 58.4352 98.3689 58.4359Z" fill="#38A3A5"/>
<path opacity="0.7" d="M18.5434 66.2318C17.7989 65.7777 16.5766 65.0596 15.1932 64.3231C14.4364 65.1232 13.83 66.0533 13.4033 67.0687C13.9507 67.1951 14.4607 67.4483 14.8923 67.8079C16.6558 69.1648 21.384 67.9636 18.5434 66.2318Z" fill="#38A3A5"/>
<path opacity="0.3" d="M64.6167 55.6586H101.492C103.377 55.659 105.231 55.1725 106.873 54.2462C106.873 54.2462 100.906 48.8237 88.8915 46.4873C83.9547 45.5263 79.274 45.154 77.8352 45.2464C74.4032 47.0469 69.1469 50.8591 64.6167 55.6586Z" fill="#38A3A5"/>
<path d="M42.504 78.3362H16.2782C16.137 78.3367 15.9987 78.2963 15.88 78.2199C15.7613 78.1435 15.6672 78.0344 15.6091 77.9057C15.5511 77.777 15.5315 77.6342 15.5528 77.4947C15.5741 77.3551 15.6353 77.2247 15.7291 77.1192L16.4076 76.3536C16.4767 76.2763 16.5613 76.2145 16.6559 76.1722C16.7505 76.1299 16.853 76.108 16.9567 76.108H41.8202C41.9235 76.1081 42.0256 76.13 42.1197 76.1723C42.2139 76.2146 42.2981 76.2764 42.3667 76.3536L43.0452 77.1192C43.1385 77.2242 43.1996 77.3539 43.2212 77.4927C43.2427 77.6316 43.2238 77.7737 43.1667 77.9021C43.1097 78.0305 43.0168 78.1397 42.8992 78.2167C42.7817 78.2937 42.6445 78.3352 42.504 78.3362Z" fill="#38A3A5"/>
</svg>
