<svg width="102" height="92" viewBox="0 0 102 92" fill="none" xmlns="http://www.w3.org/2000/svg">
<mask id="mask0_17_626" style="mask-type:alpha" maskUnits="userSpaceOnUse" x="0" y="0" width="102" height="92">
<rect x="0.511475" width="101.268" height="91.623" rx="13" fill="white"/>
</mask>
<g mask="url(#mask0_17_626)">
<path d="M69.9521 104.187C93.9215 104.187 113.352 84.7557 113.352 60.7864C113.352 36.817 93.9215 17.386 69.9521 17.386C45.9828 17.386 26.5518 36.817 26.5518 60.7864C26.5518 84.7557 45.9828 104.187 69.9521 104.187Z" fill="#EBF3FA"/>
<path d="M63.8489 56.7175H41.4706C39.2328 56.7175 37.4019 58.5485 37.4019 60.7863V78.4177C37.4019 80.6555 39.2328 82.4865 41.4706 82.4865H44.137C44.0726 83.4094 43.9173 84.2408 43.5376 84.8491C43.1416 85.4845 43.5172 85.7937 44.5575 85.4852C46.0148 85.0539 47.3466 84.1832 47.9319 82.4851H63.8489C66.0868 82.4851 67.9177 80.6542 67.9177 78.4164V60.785C67.9177 58.5485 66.0868 56.7175 63.8489 56.7175Z" fill="#9BD1D2"/>
<path d="M63.849 56.7175H61.1365C63.3743 56.7175 65.2053 58.5485 65.2053 60.7863V78.4177C65.2053 80.6555 63.3743 82.4865 61.1365 82.4865H63.849C66.0868 82.4865 67.9178 80.6555 67.9178 78.4177V60.7863C67.9178 58.5485 66.0868 56.7175 63.849 56.7175Z" fill="#2D8284"/>
<path d="M63.8489 56.7175H60.4583V69.6773C60.4583 73.6803 63.7709 77.0615 67.6919 77.0615H67.9177V60.7863C67.9177 58.5485 66.0867 56.7175 63.8489 56.7175Z" fill="#2D8284"/>
<path d="M67.6918 38.4081H100.016C103.248 38.4081 105.893 40.9775 105.893 44.2108V69.6774C105.893 72.9114 103.248 75.7066 100.016 75.7066H96.1645C96.2601 77.0629 96.4927 78.2883 97.0678 79.1712C97.6421 80.0582 97.617 80.5071 96.3618 80.2135C93.9551 79.6554 91.6346 78.3791 90.6825 75.7066H67.6918C64.4592 75.7066 61.8145 72.9114 61.8145 69.6774V44.2108C61.8145 40.9775 64.4592 38.4081 67.6918 38.4081Z" fill="#7DC3C5"/>
<path d="M100.016 38.4081H97.3032C100.536 38.4081 103.181 40.9775 103.181 44.2108V69.6774C103.181 72.9114 100.536 75.7066 97.3032 75.7066H100.016C103.248 75.7066 105.893 72.9114 105.893 69.6774V44.2108C105.893 40.9775 103.248 38.4081 100.016 38.4081Z" fill="#395F73"/>
<path d="M74.0207 64.8552C75.1443 64.8552 76.0551 63.9443 76.0551 62.8208C76.0551 61.6972 75.1443 60.7864 74.0207 60.7864C72.8972 60.7864 71.9863 61.6972 71.9863 62.8208C71.9863 63.9443 72.8972 64.8552 74.0207 64.8552Z" fill="#F5F5F5"/>
<path d="M80.8022 64.8552C81.9258 64.8552 82.8366 63.9443 82.8366 62.8208C82.8366 61.6972 81.9258 60.7864 80.8022 60.7864C79.6787 60.7864 78.7678 61.6972 78.7678 62.8208C78.7678 63.9443 79.6787 64.8552 80.8022 64.8552Z" fill="#F5F5F5"/>
<path d="M87.5835 64.8552C88.707 64.8552 89.6179 63.9443 89.6179 62.8208C89.6179 61.6972 88.707 60.7864 87.5835 60.7864C86.4599 60.7864 85.5491 61.6972 85.5491 62.8208C85.5491 63.9443 86.4599 64.8552 87.5835 64.8552Z" fill="#F5F5F5"/>
<path d="M94.3647 64.8552C95.4883 64.8552 96.3991 63.9443 96.3991 62.8208C96.3991 61.6972 95.4883 60.7864 94.3647 60.7864C93.2412 60.7864 92.3303 61.6972 92.3303 62.8208C92.3303 63.9443 93.2412 64.8552 94.3647 64.8552Z" fill="#F5F5F5"/>
<path d="M43.5049 77.7396C44.254 77.7396 44.8612 77.1324 44.8612 76.3834C44.8612 75.6343 44.254 75.0271 43.5049 75.0271C42.7559 75.0271 42.1487 75.6343 42.1487 76.3834C42.1487 77.1324 42.7559 77.7396 43.5049 77.7396Z" fill="#F5F5F5"/>
<path d="M48.93 77.7396C49.679 77.7396 50.2863 77.1324 50.2863 76.3834C50.2863 75.6343 49.679 75.0271 48.93 75.0271C48.1809 75.0271 47.5737 75.6343 47.5737 76.3834C47.5737 77.1324 48.1809 77.7396 48.93 77.7396Z" fill="#F5F5F5"/>
<path d="M54.355 77.7396C55.1041 77.7396 55.7113 77.1324 55.7113 76.3834C55.7113 75.6343 55.1041 75.0271 54.355 75.0271C53.606 75.0271 52.9988 75.6343 52.9988 76.3834C52.9988 77.1324 53.606 77.7396 54.355 77.7396Z" fill="#F5F5F5"/>
</g>
</svg>
