<?xml version="1.0" standalone="no"?>
<!DOCTYPE svg PUBLIC "-//W3C//DTD SVG 20010904//EN"
 "http://www.w3.org/TR/2001/REC-SVG-20010904/DTD/svg10.dtd">
<svg version="1.0" xmlns="http://www.w3.org/2000/svg"
 width="930.000000pt" height="1280.000000pt" viewBox="0 0 930.000000 1280.000000"
 preserveAspectRatio="xMidYMid meet">
<metadata>
Created by potrace 1.15, written by Peter Selinger 2001-2017
</metadata>
<g transform="translate(0.000000,1280.000000) scale(0.100000,-0.100000)"
fill="#000000" stroke="none">
<path d="M4335 12789 c-1496 -104 -2843 -915 -3635 -2190 -232 -373 -414 -787
-529 -1204 -305 -1107 -197 -2278 305 -3295 191 -387 372 -660 676 -1020 34
-41 753 -976 1596 -2077 918 -1199 1555 -2022 1588 -2052 186 -170 442 -170
628 0 33 30 670 853 1588 2052 843 1101 1562 2036 1596 2077 304 360 485 633
676 1020 566 1147 629 2502 174 3695 -353 923 -967 1689 -1798 2242 -825 549
-1864 821 -2865 752z m559 -2254 c224 -29 398 -81 601 -180 553 -268 931 -756
1062 -1374 25 -116 27 -145 28 -366 0 -267 -10 -345 -70 -555 -161 -561 -586
-1032 -1130 -1253 -201 -82 -365 -120 -592 -139 -294 -25 -593 23 -878 139
-544 221 -969 692 -1130 1253 -60 210 -70 288 -70 555 1 221 3 250 28 366 112
527 406 965 842 1252 177 116 437 227 637 271 209 46 467 58 672 31z"/>
</g>
</svg>
