<svg width="28" height="27" viewBox="0 0 28 27" fill="currentColor" xmlns="http://www.w3.org/2000/svg">
<path d="M14.9154 3.00001C17.061 3.01129 19.1313 3.77955 20.7498 5.1651C22.3684 6.55066 23.4277 8.46152 23.7352 10.5503C24.0446 12.6087 23.5552 14.7062 22.3643 16.4259C22.0955 16.8284 22.1612 17.0429 22.4957 17.3367C24.1175 18.7439 25.7154 20.1776 27.3282 21.5965C28.0211 22.2047 28.2003 22.9656 27.7613 23.5208C27.2894 24.1084 26.471 24.173 25.8378 23.6178C24.3803 22.3428 22.9407 21.0501 21.4892 19.7692C21.1069 19.4314 20.7485 18.9084 20.3154 18.8379C19.9331 18.7733 19.4612 19.2169 19.0341 19.4431C17.4746 20.258 15.7017 20.592 13.9464 20.4018C12.1911 20.2116 10.5347 19.5059 9.19291 18.3767C5.28033 15.0452 5.12801 9.86869 7.83994 6.4461C8.66842 5.37299 9.73847 4.50334 10.9661 3.90543C12.1937 3.30752 13.5456 2.9976 14.9154 3.00001ZM22.648 11.7254C22.7257 7.87683 19.7778 4.12227 14.9005 4.11933C10.4443 4.11933 7.1739 7.35096 7.15598 11.6843C7.13507 16.091 10.4802 19.3227 14.9393 19.3227C15.9584 19.3423 16.971 19.1591 17.9163 18.7841C18.8615 18.409 19.72 17.8499 20.44 17.1403C21.16 16.4307 21.7268 15.5852 22.1062 14.6547C22.4857 13.7241 22.67 12.7278 22.648 11.7254Z" fill="currentColor"/>
</svg>
