<svg width="98" height="91" viewBox="0 0 98 91" fill="none" xmlns="http://www.w3.org/2000/svg">
<path d="M16.1201 81.6767C17.5355 81.5497 18.914 81.6721 20.2255 81.9931C21.0683 77.8831 24.5248 74.6297 28.9258 74.2464C29.032 74.2348 29.1405 74.2302 29.2467 74.2256C30.2327 67.7719 35.8089 62.826 42.5397 62.826C47.6911 62.826 52.1613 65.7215 54.4218 69.9747C54.4241 69.9747 54.4241 69.9724 54.4264 69.9724C55.985 69.4991 57.6359 69.2405 59.3515 69.2405C68.636 69.2405 76.1611 76.7678 76.1611 86.0569C76.1611 87.3153 76.0248 88.5414 75.7616 89.719H46.0355H42.9414H42.6113C42.5859 89.719 42.5628 89.7213 42.5397 89.7213C42.5143 89.7213 42.4912 89.719 42.4681 89.719H37.6261H28.9466H27.1686H21.9203H5.47095C7.12881 85.3619 11.1603 82.1085 16.1201 81.6767Z" fill="#63813A"/>
<path d="M65.6654 84.0776C66.6952 83.9852 67.6974 84.073 68.6487 84.3062C69.2605 81.3183 71.7727 78.9562 74.9707 78.6768C75.0469 78.6699 75.1277 78.6653 75.2039 78.6607C75.9197 73.9711 79.972 70.3783 84.8625 70.3783C88.6054 70.3783 91.8541 72.4841 93.4958 75.5736C93.4981 75.5736 93.4981 75.5736 93.4981 75.5736C94.6296 75.2295 95.8302 75.0425 97.0771 75.0425C103.824 75.0425 109.292 80.5125 109.292 87.2617C109.292 88.1761 109.192 89.0674 109.001 89.924H87.4001H85.1511H84.911C84.8925 89.924 84.8763 89.9263 84.8579 89.9263C84.8394 89.9263 84.8232 89.924 84.8047 89.924H81.2858H74.9799H73.6869H69.8747H57.9233C59.1333 86.7537 62.0634 84.3916 65.6654 84.0776Z" fill="#B7C54C"/>
<path d="M82.7567 80.0878C82.4658 79.2911 82.1148 78.5246 81.7177 77.7834C81.7892 77.3031 81.8377 76.8136 81.8377 76.3102C81.8377 75.1303 81.6276 74.0035 81.2443 72.9576C80.4708 70.8448 78.9838 69.083 77.0835 67.947C74.5551 62.5994 69.1151 58.8911 62.8 58.8911C56.3163 58.8911 50.7516 62.7956 48.3156 68.3811C48.2741 68.4781 48.2441 68.5797 48.2025 68.6767C46.4984 68.2587 44.6951 68.111 42.8525 68.268C42.527 68.2934 42.1991 68.3395 41.8781 68.3811C33.6489 69.5956 27.5877 76.7836 27.8186 85.1006C27.8186 85.253 27.8348 85.3962 27.844 85.5439C27.2206 85.2576 26.5371 85.0891 25.8075 85.0891C25.7451 85.0891 25.6851 85.0891 25.6228 85.0983C23.039 85.1953 20.9771 87.308 20.9771 89.9172H47.8123H62.2366H83.5141C83.738 88.765 83.8604 87.5643 83.8604 86.3359C83.8627 84.1377 83.4702 82.0389 82.7567 80.0878Z" fill="#B7C54C"/>
<path d="M87.8804 39.8533H40.4719V90.1133H87.8804V39.8533Z" fill="#FEEBD7"/>
<path d="M87.8804 83.2441H40.4719V90.1134H87.8804V83.2441Z" fill="#FDD4A3"/>
<path d="M88.9725 41.2756H39.3821V44.1249H88.9725V41.2756Z" fill="#FEEBD7"/>
<path opacity="0.6" d="M90.6465 42.0539H88.9725V44.125H87.8826V45.5174L40.4719 48.2674V44.125H39.382V42.0539H37.708L38.2252 40.5068H90.1293L90.6465 42.0539Z" fill="#F4CEAE"/>
<path d="M90.6465 42.0538H37.708L38.2252 40.5067L40.5689 33.5312L43.5775 24.5839H84.7747L85.7907 27.5994L90.1293 40.5067L90.6465 42.0538Z" fill="#E5656F"/>
<path d="M55.7761 18.6174H49.3086V24.5839H55.7761V18.6174Z" fill="#FEEBD7"/>
<path opacity="0.6" d="M55.7761 18.6174V20.363L49.3086 20.7394V18.6174H55.7761Z" fill="#F4CEAE"/>
<path d="M56.5957 17.7723H48.4888V19.4671H56.5957V17.7723Z" fill="#E5656F"/>
<path d="M53.9911 24.5839L40.5688 33.5312L43.5775 24.5839H53.9911Z" fill="#C14D5C"/>
<path d="M56.3302 68.8267H46.3484V87.7189H56.3302V68.8267Z" fill="#E28450"/>
<path d="M56.3302 68.8267V87.7189H46.3484V68.8267H56.3302ZM57.3346 67.8223H56.3302H46.3484H45.344V68.8267V87.7189V88.7234H46.3484H56.3302H57.3346V87.7189V68.8267V67.8223Z" fill="white"/>
<path d="M55.843 69.3138H46.3484V87.7189H55.843V69.3138Z" fill="#F7A776"/>
<path d="M48.4496 78.7531C48.4496 79.0741 48.191 79.3327 47.8701 79.3327C47.5491 79.3327 47.2905 79.0741 47.2905 78.7531C47.2905 78.4322 47.5491 78.1736 47.8701 78.1736C48.191 78.1736 48.4496 78.4345 48.4496 78.7531Z" fill="#E28450"/>
<path d="M48.6874 78.5175C48.6874 78.8385 48.4288 79.0971 48.1079 79.0971C47.7869 79.0971 47.5283 78.8385 47.5283 78.5175C47.5283 78.1966 47.7869 77.938 48.1079 77.938C48.4265 77.938 48.6874 78.1966 48.6874 78.5175Z" fill="white"/>
<path d="M58.0136 87.6335H44.6606V89.4392H58.0136V87.6335Z" fill="#C9BEB1"/>
<path d="M59.0179 89.4392H43.6538V91.2495H59.0179V89.4392Z" fill="#DDD3C7"/>
<path opacity="0.6" d="M71.7035 90.1111H59.0178V91.2472H50.8901L51.4097 90.1111L51.7098 89.4392L61.5554 67.7023L71.7035 90.1111Z" fill="#F4CEAE"/>
<path d="M85.4282 70.1335H61.5554V91.2471H85.4282V70.1335Z" fill="#FEEBD7"/>
<path opacity="0.6" d="M85.4282 70.1335V73.3454L61.5554 74.7331V70.1335H85.4282Z" fill="#F4CEAE"/>
<path d="M85.8947 47.6809H81.3298V48.8539H85.8947V47.6809Z" fill="#FDD4A3"/>
<path d="M86.7514 70.9279H59.8123L60.8975 67.7023H85.6615L86.2734 69.5102L86.7514 70.9279Z" fill="#E5656F"/>
<path opacity="0.6" d="M60.7196 50.5024L60.2185 65.9312L82.2718 65.4301V50.5024H60.7196Z" fill="#F4CEAE"/>
<path d="M81.7708 51.0057H62.2297V63.4189H81.7708V51.0057Z" fill="#63849C"/>
<path d="M81.7708 51.0057V63.4189H62.2298V51.0057H81.7708ZM82.7753 49.999H81.7708H62.2298H61.2253V51.0034V63.4166V64.4211H62.2298H81.7708H82.7753V63.4166V51.0034V49.999Z" fill="white"/>
<path d="M72.0339 51.0057L62.2275 60.8167V55.6099L66.8363 51.0057H72.0339Z" fill="#95B3C6"/>
<path d="M75.7836 51.0057L63.375 63.4189H62.2297V62.0936L73.3222 51.0057H75.7836Z" fill="#95B3C6"/>
<path d="M72.5349 51.0057H71.5305V63.4189H72.5349V51.0057Z" fill="white"/>
<g opacity="0.22">
<path d="M68.6348 52.3611H62.2273V63.4189H68.6348V52.3611Z" fill="#95B3C6"/>
</g>
<g opacity="0.22">
<path d="M78.9446 52.3611H72.5371V63.4189H78.9446V52.3611Z" fill="#95B3C6"/>
</g>
<path opacity="0.6" d="M64.0029 73.1191L63.5942 85.694L81.9762 85.2853V73.1191H64.0029Z" fill="#F4CEAE"/>
<path d="M81.4544 73.5325H65.5315V83.6436H81.4544V73.5325Z" fill="#63849C"/>
<path d="M81.4544 73.5325V83.6436H65.5315V73.5325H81.4544ZM82.4588 72.5258H81.4544H65.5315H64.5271V73.5302V83.6413V84.6457H65.5315H81.4544H82.4588V83.6413V73.5302V72.5258Z" fill="white"/>
<path d="M73.4468 73.5325L65.5315 81.4524V76.2455L68.2515 73.5325H73.4468Z" fill="#95B3C6"/>
<path d="M77.1966 73.5325L67.0901 83.6436H65.5315V82.7292L74.7352 73.5325H77.1966Z" fill="#95B3C6"/>
<g opacity="0.22">
<path d="M78.499 74.6339H65.5293V83.6459H78.499V74.6339Z" fill="#95B3C6"/>
</g>
<path opacity="0.6" d="M45.0783 50.5024L44.575 65.9312L56.5979 65.4301V50.5024H45.0783Z" fill="#F4CEAE"/>
<path d="M56.0925 51.0057H46.584V63.4189H56.0925V51.0057Z" fill="#63849C"/>
<path d="M56.0924 51.0057V63.4189H46.5839V51.0057H56.0924ZM57.0991 49.999H56.0947H46.5862H45.5818V51.0034V63.4166V64.4211H46.5862H56.0947H57.0991V63.4166V51.0034V49.999Z" fill="white"/>
<path d="M55.4066 51.0057L46.5862 59.8307V54.6239L50.209 51.0057H55.4066Z" fill="#95B3C6"/>
<path d="M56.0925 51.5991V54.0721L46.7456 63.4189H46.584V61.1076L56.0925 51.5991Z" fill="#95B3C6"/>
<g opacity="0.22">
<path d="M52.9912 52.3611H46.5837V63.4189H52.9912V52.3611Z" fill="#95B3C6"/>
</g>
<path d="M70.6298 86.7676H66.0649V87.9405H70.6298V86.7676Z" fill="#FDD4A3"/>
<path d="M72.9135 88.1508H68.3486V89.3237H72.9135V88.1508Z" fill="#FDD4A3"/>
</svg>
