<svg width="97" height="81" viewBox="0 0 97 81" fill="none" xmlns="http://www.w3.org/2000/svg">
<g clip-path="url(#clip0_31_402)">
<path d="M48.6472 48.5902L46.0529 50.4775L43.4584 72.6525H37.3261L39.4488 47.4107L47.9397 44.108L48.6472 48.5902Z" fill="#2F2E41"/>
<path d="M59.4968 41.5131C59.4968 41.5131 60.2044 49.5339 57.3741 49.7698C54.5438 50.0057 43.6944 47.4107 43.6944 47.4107L38.5055 65.8112L30.7222 61.8009C30.7222 61.8009 35.4393 41.0413 38.2696 39.8618C41.0999 38.6823 50.5342 36.3232 50.5342 36.3232L57.3741 37.5028L59.4968 41.5131Z" fill="#2F2E41"/>
<path d="M42.515 72.1807C42.515 72.1807 43.9302 77.6064 42.9867 78.0783C42.4193 78.3619 41.8681 78.6769 41.3357 79.0219V78.0783C41.3357 78.0783 40.1564 79.2578 40.1564 80.2014C40.1564 81.145 33.7883 81.3809 33.7883 80.2014C33.7883 79.0219 34.0241 77.6064 35.2034 76.8987C36.3827 76.191 37.7979 72.1807 37.7979 72.1807H42.515Z" fill="#2F2E41"/>
<path d="M35.675 62.5086L35.2034 66.9908L33.5523 69.8216L29.5428 65.3394L32.6089 60.3855L35.675 62.5086Z" fill="#2F2E41"/>
<path d="M31.9013 66.9908C31.9013 66.9908 31.0329 64.0207 30.1699 64.3262C29.3069 64.6317 26.0049 67.6985 26.0049 67.6985L23.6463 69.1139C23.6463 69.1139 18.9291 69.5857 20.3443 71.0011C21.7594 72.4165 26.9483 74.3038 29.3069 73.3602C31.6655 72.4165 32.1372 72.1806 32.1372 72.1806L32.8448 72.6524L35.675 71.9447L35.2033 66.9908C35.2033 66.9908 34.4958 69.1139 31.9013 66.9908Z" fill="#2F2E41"/>
<path d="M51.4776 12.0252C48.4816 12.0252 46.0529 9.59595 46.0529 6.59937C46.0529 3.60279 48.4816 1.17358 51.4776 1.17358C54.4736 1.17358 56.9023 3.60279 56.9023 6.59937C56.9023 9.59595 54.4736 12.0252 51.4776 12.0252Z" fill="#9F616A"/>
<path d="M54.8975 9.78409C54.8975 9.78409 54.4258 14.7381 55.8409 14.7381C57.256 14.7381 55.605 20.8716 51.8313 20.8716C48.0576 20.8716 46.6425 13.5586 46.6425 13.5586C46.6425 13.5586 49.2369 12.6149 48.7652 9.54819C48.2934 6.48144 54.8975 9.78409 54.8975 9.78409Z" fill="#9F616A"/>
<path d="M55.2735 14.3602L57.2562 15.2099L62.6373 17.4869C62.8543 17.5787 63.0358 17.7382 63.1547 17.9416C63.2737 18.145 63.3237 18.3814 63.2973 18.6155L61.2658 36.6771C61.2658 36.6771 63.3885 41.1593 60.0865 41.3952L59.6148 43.0465L55.8411 38.5644L41.6896 38.0925L41.4538 15.2099L47.9288 12.6507C47.9288 12.6507 48.8095 17.5208 55.2735 14.3602Z" fill="#3F3D56"/>
<path d="M61.8552 18.1587L62.7268 17.9096C62.8246 17.8817 62.9271 17.8748 63.0277 17.8894C63.1283 17.9041 63.2246 17.9399 63.3103 17.9945C63.396 18.0491 63.4692 18.1213 63.525 18.2063C63.5808 18.2913 63.6179 18.3871 63.6339 18.4875L65.9468 32.9988C66.1272 34.0734 65.9545 35.1775 65.4545 36.1457C64.7399 37.4991 63.2556 38.7265 60.2042 37.2669L58.0815 21.9331L61.8552 18.1587Z" fill="#3F3D56"/>
<path d="M44.166 14.856L41.3357 15.3278L33.5524 26.1794L32.8448 28.0666L28.3635 26.6512C28.3635 26.6512 28.5994 28.7743 26.2408 28.5384C26.2408 28.5384 29.0711 36.3233 34.9676 33.9642C40.864 31.6052 42.7509 24.5281 42.7509 24.5281L44.166 14.856Z" fill="#3F3D56"/>
<path d="M40.8639 19.5741L51.4776 15.3278L51.9492 16.7432L46.9963 20.9895L40.8639 19.5741Z" fill="#CCCCCC"/>
<path d="M54.7437 6.9453C54.5434 6.89179 54.5139 6.62574 54.5072 6.41843C54.4712 5.3083 53.8029 4.16918 52.7405 3.84601C52.3328 3.73419 51.9059 3.71069 51.4884 3.7771C50.8925 3.85649 50.3171 4.04849 49.7929 4.34288C49.5161 4.49848 49.2447 4.68589 48.9308 4.73342C48.7236 4.76481 47.826 5.02582 47.6196 5.06255C47.1658 5.14331 46.7441 5.54942 46.3086 5.39829C45.892 5.25371 45.7997 4.71418 45.7897 4.27323C45.7667 3.26864 46.5292 1.87826 47.2008 1.13093C47.7104 0.563808 48.4778 0.302017 49.228 0.16589C50.1042 0.0250622 50.9922 -0.0289704 51.8791 0.00457757C53.0796 0.0259922 54.3134 0.11867 55.3959 0.63821C56.4784 1.15775 57.3877 2.19176 57.4396 3.39155C57.4504 3.64148 57.4246 3.89245 57.4456 4.14173C57.4968 4.74984 57.8197 5.29911 57.9711 5.89028C58.0794 6.32404 58.0956 6.77568 58.0187 7.21608C57.9417 7.65648 57.7733 8.07586 57.5244 8.44719C57.1227 9.03854 55.5161 9.57537 55.5393 10.2899C55.2489 9.98905 55.9337 9.68617 55.6433 9.38527C55.5132 9.28591 55.4211 9.14492 55.3824 8.98583C55.3437 8.82674 55.3607 8.65918 55.4306 8.51112L55.7389 7.30819C55.7954 7.08792 55.8509 6.8495 55.7656 6.63874C55.4351 5.82178 55.0778 7.03451 54.7437 6.9453Z" fill="#2F2E41"/>
<path d="M51.9494 16.7432L56.4307 34.2001L38.9772 40.3337L28.8353 31.841L22.4672 12.7329L32.845 20.2818L51.9494 16.7432Z" fill="#F2F2F2"/>
<path d="M51.0936 18.6344L51.1538 18.8625L34.1721 23.3447L34.1119 23.1166L51.0936 18.6344Z" fill="#E6E6E6"/>
<path d="M51.5656 19.8139L51.6257 20.042L34.644 24.5242L34.5838 24.2961L51.5656 19.8139Z" fill="#E6E6E6"/>
<path d="M51.8014 20.9934L51.8616 21.2215L34.8798 25.7037L34.8197 25.4756L51.8014 20.9934Z" fill="#E6E6E6"/>
<path d="M52.0372 22.173L52.0974 22.4011L35.1157 26.8832L35.0555 26.6552L52.0372 22.173Z" fill="#E6E6E6"/>
<path d="M52.2731 23.3525L52.3333 23.5806L35.3515 28.0627L35.2913 27.8347L52.2731 23.3525Z" fill="#E6E6E6"/>
<path d="M52.5089 24.532L52.5691 24.7601L35.5873 29.2422L35.5272 29.0142L52.5089 24.532Z" fill="#E6E6E6"/>
<path d="M52.7448 25.7115L52.8049 25.9396L35.8232 30.4217L35.763 30.1937L52.7448 25.7115Z" fill="#E6E6E6"/>
<path d="M52.9806 26.8911L53.0408 27.1191L36.059 31.6013L35.9989 31.3733L52.9806 26.8911Z" fill="#E6E6E6"/>
<path d="M53.2164 28.0706L53.2766 28.2986L36.2949 32.7808L36.2347 32.5528L53.2164 28.0706Z" fill="#E6E6E6"/>
<path d="M59.1409 29.5844C59.1409 29.5844 53.8362 26.4153 51.4777 28.5384C49.1191 30.6616 58.3175 33.7283 58.3175 33.7283L59.1409 29.5844Z" fill="#9F616A"/>
<path d="M64.9215 31.1334L58.0816 28.5385C58.0816 28.5385 59.2609 33.0206 56.9023 33.2565L60.2043 37.2669C60.2043 37.2669 66.8083 37.2669 64.9215 31.1334Z" fill="#3F3D56"/>
<path d="M46.9226 31.0366L37.8465 34.0962L39.9944 38.7791L49.0706 35.7196L46.9226 31.0366Z" fill="#E6E6E6"/>
<path d="M30.8399 21.1075L24 15.9175L25.8869 22.287L32.9626 27.4769L30.8399 21.1075Z" fill="#CCCCCC"/>
<path d="M27.3734 24.5521L34.2134 29.7418L34.0708 29.9298L27.2308 24.7401L27.3734 24.5521Z" fill="#E6E6E6"/>
<path d="M27.845 27.1471L34.6851 32.3368L34.5425 32.5248L27.7025 27.3351L27.845 27.1471Z" fill="#E6E6E6"/>
<path d="M26.9484 28.7744C26.9484 28.7744 21.052 25.2358 24.8257 23.8204C28.5995 22.405 28.5995 27.8308 28.5995 27.8308C28.5995 27.8308 28.8353 29.0103 26.9484 28.7744Z" fill="#9F616A"/>
<path opacity="0.1" d="M61.5014 20.8716L61.7373 30.0719L58.0815 29.0283L61.0298 29.1282L61.5014 20.8716Z" fill="black"/>
<path d="M77.697 41.6681C76.6913 41.6681 75.876 40.8526 75.876 39.8467C75.876 38.8408 76.6913 38.0253 77.697 38.0253C78.7028 38.0253 79.5181 38.8408 79.5181 39.8467C79.5181 40.8526 78.7028 41.6681 77.697 41.6681Z" fill="#F2F2F2"/>
</g>
<defs>
<clipPath id="clip0_31_402">
<rect width="97" height="81" fill="white" transform="matrix(-1 0 0 1 97 0)"/>
</clipPath>
</defs>
</svg>
