<svg width="100" height="91" viewBox="0 0 100 91" fill="none" xmlns="http://www.w3.org/2000/svg">
<mask id="mask0_505_171" style="mask-type:alpha" maskUnits="userSpaceOnUse" x="0" y="0" width="100" height="91">
<rect x="0.900391" y="0.877197" width="98.555" height="89.1688" rx="13" fill="white"/>
</mask>
<g mask="url(#mask0_505_171)">
<path d="M17.4171 99.9946C17.4171 99.9946 0.55381 81.8884 14.565 62.2862C26.9969 44.8938 41.4915 46.0827 52.1258 53.1409C56.6552 56.147 69.7137 53.5116 80.8282 35.8137C95.9853 11.6789 148.525 26.3167 138.945 63.4485C134.309 81.4175 153.054 82.0708 143.503 100.033L17.4171 99.9946Z" fill="#EBF3FA"/>
<g clip-path="url(#clip0_505_171)">
<path d="M85.5037 54.4248C87.2137 55.0707 88.9276 55.7085 90.6335 56.3625C92.0172 56.8923 93.3908 57.4465 94.7724 57.9763C98.7321 59.4943 100.982 62.7564 100.984 67.0251C100.984 74.8983 100.972 82.7694 101 90.6425C101 91.7611 100.658 92.5558 99.6263 93H96.4602L92.9739 89.2203C92.9819 86.5035 92.988 83.7868 92.992 81.07C92.992 77.1375 92.992 73.2044 92.992 69.2705C92.992 68.7102 92.9759 68.1315 92.3616 67.8442C91.4392 67.4122 90.5872 68.0867 90.5872 69.2705C90.5872 74.7516 90.5872 80.2326 90.5872 85.7136C90.5664 86.0077 90.5246 86.2998 90.4623 86.5878L89.8783 86.111C88.7625 84.9047 87.6474 83.6992 86.5329 82.4943C86.3863 81.1741 85.7937 79.9455 84.8552 79.0162C81.0466 75.0144 77.2763 70.9739 73.4617 66.9803C72.7044 66.1877 71.8102 65.5316 70.9783 64.8123L69.3188 64.309C67.7881 62.679 66.2567 61.0489 64.7247 59.4189C63.6452 58.2656 62.5757 57.1022 61.5022 55.955L65.488 54.4187C67.3007 58.3512 70.2835 60.6129 74.5815 61.0347C75.3992 61.0204 76.231 61.1019 77.0326 60.9776C81.0164 60.3439 83.8462 58.1515 85.5037 54.4248Z" fill="#549FFE"/>
<path d="M58.0159 93H56.0562C55.3372 92.564 54.6887 92.1157 54.6907 91.103C54.7068 81.9564 54.6907 72.8077 54.7269 63.6591C54.7269 62.7605 55.1096 61.8619 55.315 60.9634C55.8085 61.4667 56.31 61.9638 56.7954 62.4732C59.1129 64.902 61.4237 67.3335 63.7278 69.7677C63.9292 70.9067 64.3018 71.9662 65.1175 72.824C69.351 77.2985 73.5805 81.7771 77.806 86.2597C78.6018 87.1206 79.6625 87.683 80.815 87.8552L80.952 87.9652V87.9489C81.1292 88.1526 81.2964 88.3788 81.4837 88.5805C82.8586 90.0557 84.2383 91.5289 85.6226 93H60.4469C60.4469 85.2002 60.4469 77.4018 60.4469 69.6047C60.459 69.376 60.459 69.1468 60.4469 68.918C60.3744 68.2477 59.7359 67.6568 59.1317 67.6853C58.5275 67.7138 58.0662 68.2314 58.0441 68.9955C58.0441 69.1727 58.0441 69.35 58.0441 69.5273L58.0159 93Z" fill="#549FFE"/>
<path d="M55.3152 60.9634C55.1138 61.8619 54.7311 62.7605 54.7271 63.6591C54.6828 72.8077 54.707 81.9564 54.6908 91.103C54.6908 92.1218 55.3374 92.564 56.0564 93H51.2327C50.2559 92.4723 49.9941 91.6491 50.0001 90.5549C50.0384 82.5901 50.0202 74.6232 50.0243 66.6584C50.0243 63.761 51.1864 61.4239 53.3898 59.5941C53.5046 59.4984 53.6073 59.3904 53.7181 59.2844L55.3152 60.9634Z" fill="#338DEE"/>
<path d="M58.0159 93V69.5273C58.0159 69.35 58.0159 69.1728 58.0159 68.9955C58.038 68.2314 58.469 67.7159 59.1035 67.6853C59.7379 67.6548 60.3461 68.2477 60.4186 68.9181C60.4307 69.1468 60.4307 69.376 60.4186 69.6047C60.4186 77.4018 60.4186 85.2002 60.4186 93H58.0159Z" fill="#348DEF"/>
<path d="M85.6066 93C84.225 91.5316 82.8454 90.0584 81.4677 88.5805C81.2804 88.3767 81.1133 88.1608 80.936 87.9489C81.9431 87.8735 82.9823 87.8918 83.8564 87.2377C85.7335 86.219 86.4848 84.5624 86.5351 82.4963C87.6509 83.7012 88.7654 84.9061 89.8785 86.111C89.0225 86.6204 88.1766 87.142 87.3125 87.631C86.5291 88.0711 86.4102 88.7985 87.0608 89.5096C87.9268 90.4551 88.817 91.3801 89.6791 92.3276C89.8453 92.5384 89.9941 92.7626 90.1242 92.9979L85.6066 93Z" fill="#3F4C5A"/>
<path d="M90.128 93C89.998 92.7646 89.8491 92.5404 89.6829 92.3296C88.8189 91.3822 87.9287 90.4571 87.0646 89.5117C86.4141 88.8006 86.5329 88.0732 87.3164 87.6331C88.1804 87.144 89.0263 86.6143 89.8823 86.113L90.4543 86.5857L92.9759 89.2203L96.4622 93H90.128Z" fill="#576574"/>
<path d="M85.3043 40.0152C85.0163 43.0716 83.7515 45.5696 81.3205 47.4422C81.2037 47.5673 81.1072 47.7103 81.0345 47.866C80.4847 48.0982 79.947 48.3672 79.381 48.5526C78.7486 48.7564 78.0417 49.1272 77.4535 49.0029C75.2985 48.5465 73.5805 47.2975 72.1908 45.5757C70.5695 43.5647 70.1264 41.1766 70.0881 38.6847C70.0458 35.9666 70.0881 33.2464 70.0881 30.5344C73.7965 30.1547 77.3647 28.8984 80.5048 26.8668C81.1493 26.4593 81.6488 26.5041 82.1544 27.0828C82.819 27.8428 83.4957 28.5967 84.2107 29.3078C84.9599 30.0515 85.4957 30.8564 85.3184 31.9791C85.3104 34.651 85.3057 37.3297 85.3043 40.0152Z" fill="#FECCBE"/>
<path d="M85.3124 31.977C85.4897 30.8543 84.9539 30.0495 84.2047 29.3058C83.4897 28.5947 82.813 27.8408 82.1483 27.0808C81.6428 26.5021 81.1413 26.4532 80.4988 26.8648C77.3587 28.8963 73.7905 30.1527 70.0821 30.5324L66.7549 30.5874C66.8113 29.0939 66.6703 27.5596 66.9563 26.115C68.066 20.6319 71.2684 16.9867 76.6338 15.377C76.8656 15.2913 77.0916 15.1906 77.3106 15.0754C82.1745 15.5502 86.7585 19.5846 88.1341 24.6927C88.4147 25.7965 88.5754 26.9279 88.6135 28.0669C88.69 29.697 88.6255 31.3148 88.6235 32.9388C87.6185 32.2643 86.5531 31.814 85.3124 31.977Z" fill="#576574"/>
<path d="M66.755 30.5813L70.0822 30.5262C70.0822 33.2464 70.046 35.9665 70.0822 38.6765C70.1205 41.1684 70.5636 43.5667 72.1849 45.5675C73.5746 47.2893 75.2926 48.5383 77.4476 48.9947C78.0357 49.119 78.7427 48.7482 79.3751 48.5444C79.941 48.359 80.4788 48.0901 81.0286 47.8578C81.0286 49.0477 81.0911 50.2376 81.0447 51.4235C81.0125 52.265 81.3448 52.752 82.1082 53.0271C83.0024 53.349 83.8826 53.7056 84.7647 54.0581C85.0165 54.16 85.2541 54.2965 85.4978 54.4167C83.8403 58.1434 81.0105 60.3256 77.0267 60.9613C76.2211 61.0856 75.3933 61.0041 74.5756 61.0184V49.5734C73.3108 49.1659 72.1708 48.8256 71.0369 48.4548C70.6663 48.3346 70.3118 48.1614 69.9493 48.0126C69.6049 47.6968 69.2625 47.3789 68.9161 47.0652C66.9443 45.2721 65.6936 43.1001 65.5304 40.3718C65.5022 40.2244 65.4555 40.0813 65.3915 39.9459C65.4277 39.1553 65.3673 38.4238 64.9303 37.7046C64.5928 37.1738 64.4162 36.5547 64.4223 35.9237C64.4284 35.2926 64.6168 34.6771 64.9645 34.1531C65.3995 33.4461 65.4177 32.7268 65.3975 31.9729C65.5284 30.7952 65.6815 30.6383 66.755 30.5813Z" fill="#FEBDAB"/>
<path d="M55.315 60.9633L53.7179 59.2783C52.8438 58.3369 52.8713 58.1632 51.9999 57.2232C50.9808 56.1291 50.9465 53.5473 51.9998 52.5C52.8968 51.6157 52.0856 52.3626 53 51.5C53.8841 50.6646 56.144 50.6483 57 51.5C57.3726 51.8688 57.2787 51.562 57.6231 51.9593C56.9956 52.4036 56.3906 52.8797 55.8105 53.3856C54.741 54.4044 54.743 55.411 55.7702 56.4868C57.7037 58.5108 59.6439 60.5287 61.5908 62.5404C62.7066 63.6991 63.8251 64.8537 64.9462 66.0043C64.123 67.0777 63.6905 68.4053 63.7217 69.7636C61.4216 67.3362 59.1128 64.9067 56.7953 62.4752C56.3099 61.9638 55.8084 61.4666 55.315 60.9633Z" fill="#3F4C5B"/>
<path d="M66.755 30.5813C65.6815 30.6383 65.5285 30.785 65.3975 31.977C64.1488 31.8364 63.0673 32.2338 62.1106 33.0304C62.2032 30.5283 62.032 27.9834 62.4389 25.5342C63.3432 20.0939 67.9796 15.7865 73.4316 15.0754C74.7025 14.9104 76.0157 15.0754 77.3107 15.0754C77.0942 15.1881 76.8709 15.2868 76.642 15.3709C71.2766 16.9806 68.0742 20.6258 66.9745 26.1088C66.6704 27.5535 66.8114 29.0878 66.755 30.5813Z" fill="#3F4C5B"/>
<path d="M69.9552 48.0085C70.3178 48.1573 70.6722 48.3305 71.0428 48.4507C72.1767 48.8215 73.3167 49.172 74.5815 49.5693V61.0225C70.2835 60.6007 67.2926 58.339 65.488 54.4065C66.5897 53.9501 67.6914 53.4855 68.7971 53.0373C69.7377 52.6603 69.9391 52.3812 69.9391 51.344C69.9391 50.2336 69.9492 49.1231 69.9552 48.0085Z" fill="#F6AE9F"/>
<path d="M64.9525 66.0104C63.8327 64.8517 62.7142 63.6971 61.597 62.5465C59.6542 60.5293 57.7139 58.5115 55.7764 56.4929C54.7492 55.4171 54.7472 54.4126 55.8167 53.3917C56.3968 52.8858 57.0018 52.4097 57.6294 51.9655C58.9224 53.2939 60.2161 54.6231 61.5104 55.953C62.5839 57.1103 63.6534 58.2738 64.7329 59.4168C66.2569 61.0482 67.7856 62.679 69.3189 64.309C67.5889 64.1501 66.1569 64.7838 64.9525 66.0104Z" fill="#576574"/>
<path d="M62.1105 33.0304C63.0672 32.2337 64.1487 31.8364 65.3974 31.977C65.4176 32.737 65.3974 33.4501 64.9644 34.1572C64.6202 34.6805 64.4342 35.294 64.4292 35.9225C64.4242 36.5511 64.6004 37.1676 64.9362 37.6964C65.3733 38.4238 65.4337 39.1553 65.3974 39.9377C62.9383 39.9581 61.4116 38.8619 60.9544 36.6776C60.6563 35.2676 61.1739 34.0716 62.1105 33.0304Z" fill="#F6AF9F"/>
<path d="M85.3125 31.977C86.5532 31.8139 87.6186 32.2642 88.6236 32.9387L88.6478 33.171L88.6176 38.8395C87.7133 39.8114 86.5491 40.0274 85.3044 40.007C85.3071 37.3269 85.3098 34.6502 85.3125 31.977Z" fill="#F6AE9F"/>
<path d="M88.6177 38.8395L88.6479 33.1628C90.2813 34.746 90.2652 37.1667 88.6177 38.8395Z" fill="#FEBEAB"/>
<path d="M86.535 82.4963C86.4847 84.5624 85.7294 86.2251 83.8563 87.2377C83.4535 86.9586 82.9742 86.7426 82.6479 86.3921C80.8876 84.5583 79.1716 82.6797 77.4254 80.8316C74.8984 78.1583 72.3654 75.4918 69.8264 72.8321C68.4165 71.3386 67.9896 69.0199 68.9926 67.2227C69.4941 66.3262 70.3138 65.611 70.9885 64.8143C71.8203 65.5336 72.7145 66.1897 73.4718 66.9823C77.2864 70.9759 81.0568 75.0164 84.8654 79.0182C85.8009 79.9487 86.3906 81.1771 86.535 82.4963Z" fill="#FCC957"/>
<path d="M70.9805 64.8143C70.3057 65.611 69.486 66.3262 68.9845 67.2227C67.9775 69.0199 68.4004 71.3386 69.8183 72.8321C72.3493 75.5 74.8824 78.1665 77.4174 80.8316C79.1636 82.6797 80.8796 84.5563 82.6398 86.3921C82.9742 86.7426 83.4455 86.9586 83.8483 87.2377C82.9742 87.8918 81.941 87.8734 80.9279 87.9488V87.9651L80.7909 87.8551C79.6423 87.6813 78.5855 87.1198 77.792 86.2617C73.5652 81.7791 69.3356 77.3005 65.1034 72.826C64.2978 71.9662 63.9232 70.9066 63.7137 69.7697C63.6826 68.4114 64.115 67.0838 64.9383 66.0104C66.1467 64.7878 67.5747 64.1521 69.3048 64.3009L70.9805 64.8143Z" fill="#F2B438"/>
<path d="M92.974 89.2203L90.4524 86.5857C90.5147 86.2978 90.5564 86.0057 90.5773 85.7116C90.5853 80.2306 90.5853 74.7495 90.5773 69.2685C90.5773 68.0908 91.4292 67.4163 92.3516 67.8422C92.9659 68.1295 92.98 68.7082 92.9821 69.2685C92.9821 73.2078 92.9821 77.141 92.9821 81.068C92.9874 83.7888 92.9847 86.5063 92.974 89.2203Z" fill="#348DEE"/>
</g>
</g>
<defs>
<clipPath id="clip0_505_171">
<rect width="51" height="78" fill="white" transform="translate(50 15)"/>
</clipPath>
</defs>
</svg>
